<?xml version="1.0" encoding="utf-8"?>
<!-- Generator: Adobe Illustrator 19.0.0, SVG Export Plug-In . SVG Version: 6.00 Build 0)  -->
<svg version="1.1" id="Capa_1" xmlns="http://www.w3.org/2000/svg" xmlns:xlink="http://www.w3.org/1999/xlink" x="0px" y="0px"
	 viewBox="-442 267.9 307 307" style="enable-background:new -442 267.9 307 307;" xml:space="preserve">
<style type="text/css">
	.st0{fill:#E83D69;}
	.st1{fill:none;stroke:#E83D69;stroke-width:12.3056;stroke-miterlimit:10;}
</style>
<path id="XMLID_119_" class="st0" d="M-242,429.8c12.1,0,23.2,0.1,34.4,0c4.2-0.1,7.7,0.8,9.4,5.2c1.7,4.2-0.4,7.1-3.3,9.7
	c-26.8,24.3-53.5,48.7-80.3,73c-4.8,4.4-8,4.2-13.7-0.8c-20.1-17.6-40.1-35.2-60.2-52.8c-6.7-5.9-13.5-11.8-20.2-17.7
	c-3-2.7-5.5-5.5-3.7-10c1.7-4.3,5.1-5.4,9.3-5.4c9.6,0.1,19.3-0.3,28.9,0.1c4.9,0.2,6.4-1.3,6.3-6.2c-0.2-25.9-0.1-51.7-0.1-77.6
	c0-13.3,1.3-14.5,14.3-14.5c22.5,0,45,0,67.5,0c8.5,0,11.3,2.8,11.3,11.2c0,26.5,0,53.1,0,79.6C-242,425.3-242,427.3-242,429.8z"/>
<circle id="XMLID_117_" class="st1" cx="-289.3" cy="422.1" r="136.7"/>
</svg>
