<?xml version="1.0" encoding="utf-8"?>
<!-- Generator: Adobe Illustrator 19.0.0, SVG Export Plug-In . SVG Version: 6.00 Build 0)  -->
<svg version="1.1" id="Capa_1" xmlns="http://www.w3.org/2000/svg" xmlns:xlink="http://www.w3.org/1999/xlink" x="0px" y="0px"
	 viewBox="64 83.5 172 133" style="enable-background:new 64 83.5 172 133;" xml:space="preserve">
<style type="text/css">
	.st0{fill:none;stroke:#4EBCBE;stroke-width:8.5736;stroke-linecap:round;stroke-miterlimit:10;}
	.st1{fill:none;stroke:#FCC880;stroke-width:4.6765;stroke-linecap:round;stroke-miterlimit:10;}
	.st2{fill:#FCC880;}
	.st3{fill:#B8D270;}
	.st4{fill:#F19234;}
	.st5{fill:#343434;}
	.st6{fill:#4EBCBE;}
	.st7{fill:#27537C;}
	.st8{fill:none;stroke:#F0E08A;stroke-width:8.5736;stroke-linecap:round;stroke-miterlimit:10;}
	.st9{fill:none;stroke:#FCC880;stroke-width:5.4559;stroke-miterlimit:10;}
	.st10{fill:#F0E08A;}
	.st11{fill:#754D24;}
	.st12{fill:#0D8D95;}
	.st13{fill:#B8D378;}
	.st14{fill:#F1E08A;}
	.st15{fill:#532810;}
</style>
<g>
	<path class="st0" d="M186.3,126c0,0,11.8,10.6,20.3,22.9"/>
	<path class="st1" d="M197.1,131.3c0,0-5.7,11.5-22.4,18.9"/>
	<path class="st0" d="M159,126c0,0-11.8,10.6-20.3,22.9"/>
	<path class="st1" d="M148.9,130.5c0,0-1.3,1.1,20.4,19.8"/>
	<path class="st2" d="M166.8,122c3.4-2.5,1-6.8,1-6.8l4.8-0.1l4.8,0.1c0,0-2.4,4.3,1,6.8c4,3-5.8,2.7-5.8,2.7S162.7,125,166.8,122z"
		/>
	<path class="st3" d="M172.6,162.1l13.7-0.8v49.4h-9l-1.3-33.8c0,0,0.6-5.8-3.4-5.8c-4,0-3.4,5.8-3.4,5.8l-1.3,33.8h-9v-49.4
		L172.6,162.1z"/>
	<g>
		<path class="st4" d="M176.3,212.1c-0.1-0.3-0.1-0.6-0.1-1c0-3.2,2.6-5.7,5.7-5.7c3.2,0,5.7,2.6,5.7,5.7c0,0.3,0,0.7-0.1,1H176.3z"
			/>
		<path class="st5" d="M187.7,211.3c0,0.3,0,0.5-0.1,0.8h-11.3c0-0.3-0.1-0.5-0.1-0.8H187.7z"/>
	</g>
	<g>
		<path class="st4" d="M169.2,212.1c0.1-0.3,0.1-0.6,0.1-1c0-3.2-2.6-5.7-5.7-5.7c-3.2,0-5.7,2.6-5.7,5.7c0,0.3,0,0.7,0.1,1H169.2z"
			/>
		<path class="st5" d="M169.3,211.3c0,0.3,0,0.5-0.1,0.8h-11.3c0-0.3-0.1-0.5-0.1-0.8H169.3z"/>
	</g>
	<g>
		<ellipse class="st2" cx="181.4" cy="106.9" rx="2" ry="2.7"/>
		<ellipse class="st2" cx="163.9" cy="106.9" rx="2" ry="2.7"/>
	</g>
	<path class="st2" d="M177.6,117.8h-10.1c-2.2-2.8-3.5-5.8-3.5-10.4c0-6.2,1.2-11.2,8.5-11.2c7.3,0,8.5,5,8.5,11.2
		C181.2,111.9,179.9,115,177.6,117.8z"/>
	<path class="st6" d="M157.1,121.1h10.6c2,3.8,5,3.1,5,3.1s3,0.7,5-3.1h10.6c0,0-2.8,17.9-0.8,41.6h-14.7h-14.7
		C159.9,139,157.1,121.1,157.1,121.1z"/>
	<path class="st7" d="M168.1,162.7v-40.8c-0.1-0.2-0.3-0.5-0.4-0.7h-10.6c0,0,2.8,17.9,0.8,41.6H168.1z"/>
	<path class="st7" d="M177.2,162.7v-40.8c0.1-0.2,0.3-0.5,0.4-0.7h10.6c0,0-2.8,17.9-0.8,41.6H177.2z"/>
	<path class="st8" d="M91.1,126c0,0-11,9.2-14.2,27.1"/>
	<path class="st8" d="M118.4,126c0,0,11.8,10.6,20.3,22.9"/>
	<path class="st2" d="M110.6,122c-3.4-2.5-1-6.8-1-6.8l-4.8-0.1l-4.8,0.1c0,0,2.4,4.3-1,6.8c-4,3,5.8,2.7,5.8,2.7
		S114.6,125,110.6,122z"/>
	<path class="st6" d="M104.7,162.1l-13.7-0.8v49.4h9l1.3-33.8c0,0-0.6-5.8,3.4-5.8c4,0,3.4,5.8,3.4,5.8l1.3,33.8h9v-49.4
		L104.7,162.1z"/>
	<path class="st1" d="M128.5,130.5c0,0,1.3,1.1-20.4,19.8"/>
	<line class="st9" x1="201.2" y1="171.1" x2="201.2" y2="212.4"/>
	<path class="st10" d="M205.2,213.1c0-0.2,0.1-0.4,0.1-0.7c0-2.2-1.8-4-4-4c-2.2,0-4,1.8-4,4c0,0.2,0,0.5,0.1,0.7H205.2z"/>
	<line class="st9" x1="213.4" y1="171.1" x2="213.4" y2="212.4"/>
	<path class="st4" d="M215.8,154.2h-8.5h-8.5c0,0-6.1,7.6-2.6,32.2h11.1h11.1C221.9,161.8,215.8,154.2,215.8,154.2z"/>
	<path class="st1" d="M217.5,131.3c0,0,23.1,13.9-1.3,26.2"/>
	<path class="st4" d="M217.1,134.6c0.7-3.4,3.7-3.8,3.7-3.8c-3.3-4.5-9-3.2-9-3.2l-4.5,7.3l-4.5-7.3c0,0-5.7-1.3-9,3.2
		c0,0,3,0.4,3.7,3.8c0,0.1,0,0.2,0,0.3c0.6,3.6-1.1,5.4,0.5,8.6c0,0,1.5,5.1,0.7,8.7h8.5h8.5c-0.8-3.8,0.7-8.7,0.7-8.7
		c1.6-3.2,0-5,0.5-8.6C217,134.7,217,134.7,217.1,134.6z"/>
	<path class="st2" d="M209.9,126.8c0,0-0.6-4,0.1-6.1c0.6-2.1-2.6,1.7-2.6,1.7s-3.3-3.8-2.6-1.7c0.6,2.1,0.1,6.1,0.1,6.1l-1.9,0.8
		c0.9,5.6,4.5,7.3,4.5,7.3s3.5-1.7,4.5-7.3L209.9,126.8z"/>
	<polygon class="st10" points="207.3,152.2 198.8,152.2 198.8,154.2 207.3,154.2 215.8,154.2 215.8,152.2 	"/>
	<path class="st10" d="M209.5,213.1c0-0.2-0.1-0.4-0.1-0.7c0-2.2,1.8-4,4-4c2.2,0,4,1.8,4,4c0,0.2,0,0.5-0.1,0.7H209.5z"/>
	<circle class="st10" cx="207.3" cy="100.4" r="3.9"/>
	<ellipse class="st2" cx="198.6" cy="113.7" rx="2" ry="2.6"/>
	<ellipse class="st2" cx="215.7" cy="113.7" rx="2" ry="2.6"/>
	<path class="st2" d="M215.7,114.1c0,7.7-5.8,10.9-8.3,10.9c-2.5,0-8.3-3.5-8.3-10.9c0-6,1.2-10.9,8.3-10.9
		C214.5,103.2,215.7,108.1,215.7,114.1z"/>
	<g>
		<circle class="st4" cx="198.4" cy="116.3" r="1.2"/>
		<circle class="st4" cx="216.2" cy="116.3" r="1.2"/>
	</g>
	<path class="st10" d="M212.1,109c0,0-6.1,5.4-13,2.2c0,0-1.2-8.5,8.2-8.5c9.4,0,8.2,8.4,8.2,8.4S213.1,111.2,212.1,109z"/>
	<path class="st11" d="M150.7,120.3c0,6.6-5.4,12-12,12l0,0c-6.6,0-12-5.4-12-12v-8.7c0-6.6,5.4-12,12-12l0,0c6.6,0,12,5.4,12,12
		V120.3z"/>
	<line class="st9" x1="132.6" y1="170.3" x2="132.6" y2="211.5"/>
	<path class="st12" d="M136.5,212.2c0-0.2,0.1-0.4,0.1-0.7c0-2.2-1.8-4-4-4c-2.2,0-4,1.8-4,4c0,0.2,0,0.5,0.1,0.7H136.5z"/>
	<line class="st9" x1="144.8" y1="170.3" x2="144.8" y2="211.5"/>
	<path class="st12" d="M140.8,212.2c0-0.2-0.1-0.4-0.1-0.7c0-2.2,1.8-4,4-4c2.2,0,4,1.8,4,4c0,0.2,0,0.5-0.1,0.7H140.8z"/>
	<g>
		<path class="st12" d="M101,212.1c0.1-0.3,0.1-0.6,0.1-1c0-3.2-2.6-5.7-5.7-5.7c-3.2,0-5.7,2.6-5.7,5.7c0,0.3,0,0.7,0.1,1H101z"/>
		<path class="st5" d="M89.7,211.3c0,0.3,0,0.5,0.1,0.8H101c0-0.3,0.1-0.5,0.1-0.8H89.7z"/>
	</g>
	<g>
		<path class="st12" d="M108.1,212.1c-0.1-0.3-0.1-0.6-0.1-1c0-3.2,2.6-5.7,5.7-5.7c3.2,0,5.7,2.6,5.7,5.7c0,0.3,0,0.7-0.1,1H108.1z
			"/>
		<path class="st5" d="M108.1,211.3c0,0.3,0,0.5,0.1,0.8h11.3c0-0.3,0.1-0.5,0.1-0.8H108.1z"/>
	</g>
	<path class="st13" d="M147.2,153.4h-8.5h-8.5c0,0-6.1,7.6-2.6,50h22.1C153.2,161,147.2,153.4,147.2,153.4z"/>
	<polygon class="st14" points="138.7,151.3 130.2,151.3 130.2,153.4 138.7,153.4 147.2,153.4 147.2,151.3 	"/>
	<ellipse class="st2" cx="129.7" cy="112.5" rx="2" ry="2.7"/>
	<ellipse class="st2" cx="147.2" cy="112.5" rx="2" ry="2.7"/>
	<path class="st13" d="M148.4,133.7c0.7-3.4,3.7-3.8,3.7-3.8c-3.3-4.5-9-3.2-9-3.2l-4.5,3.8l-4.5-3.8c0,0-5.7-1.3-9,3.2
		c0,0,3,0.4,3.7,3.8c0,0.1,0,0.2,0,0.2c0.6,3.6-1.1,5.4,0.5,8.6c0,0,1.5,5.1,0.7,8.7h8.5h8.5c-0.8-3.8,0.7-8.7,0.7-8.7
		c1.6-3.2,0-5,0.5-8.6C148.4,133.9,148.4,133.8,148.4,133.7z"/>
	<path class="st2" d="M141.3,125.9c0,0-0.6-4,0.1-6.1c0.6-2.1-2.6,1.7-2.6,1.7s-3.3-3.8-2.6-1.7c0.6,2.1,0.1,6.1,0.1,6.1l-1.9,0.8
		c0.9,5.6,4.5,4.3,4.5,4.3s3.5,1.3,4.5-4.3L141.3,125.9z"/>
	<path class="st2" d="M147.2,113c0,7.9-6,11.2-8.5,11.2c-2.6,0-8.5-3.6-8.5-11.2c0-6.2,1.2-11.2,8.5-11.2
		C146,101.8,147.2,106.8,147.2,113z"/>
	<g>
		<ellipse class="st2" cx="96" cy="106.9" rx="2" ry="2.7"/>
		<ellipse class="st2" cx="113.5" cy="106.9" rx="2" ry="2.7"/>
	</g>
	<path class="st2" d="M99.7,117.8h10.1c2.2-2.8,3.5-5.8,3.5-10.4c0-6.2-1.2-11.2-8.5-11.2c-7.3,0-8.5,5-8.5,11.2
		C96.2,111.9,97.5,115,99.7,117.8z"/>
	<path class="st11" d="M143.6,107.7c0,0-6.2,5.5-13.3,2.2c0,0-1.2-8.7,8.4-8.7c9.6,0,8.4,8.6,8.4,8.6S144.7,110,143.6,107.7z"/>
	<path class="st4" d="M120.3,121.1h-10.6c-2,3.8-5,3.1-5,3.1s-3,0.7-5-3.1H89.2c0,0,2.8,17.9,0.8,41.6h14.7h14.7
		C117.5,139,120.3,121.1,120.3,121.1z"/>
	<ellipse transform="matrix(0.9878 0.1556 -0.1556 0.9878 25.3043 -10.0119)" class="st2" cx="76.6" cy="156.6" rx="4" ry="4.7"/>
	<path class="st15" d="M181,97.3l-0.8,0.2l-0.2-0.7l-1-0.5l-0.4-1l-0.8,0.1l-0.5-1.5l-0.7,0.4l-0.6-1.1l-1.1,0.7l-0.5-1.6l-1.1,1.4
		l-0.5-1.6c-0.1-0.4-0.2-0.7-0.2-0.7s-0.1,0.3-0.2,0.7l-0.5,1.6l-1.1-1.4l-0.5,1.6l-1.1-0.7l-0.6,1.1l-0.7-0.4l-0.5,1.5l-0.8-0.1
		l-0.4,1l-1,0.5l-0.2,0.7l-0.8-0.2l-0.8,6.9l0.8,0v4.7l1.6-0.2c0,0,0.2-6.5,1.2-8.3c0,0,2.3,0.8,5.6,0.8c3.3,0,5.6-0.8,5.6-0.8
		c1,1.8,1.2,8.3,1.2,8.3l1.6,0.2v-4.7l0.8,0L181,97.3z"/>
	<path class="st4" d="M95.6,104.3c0,0-0.8-4.8,1.1-7.3c1.9-2.5,9.5,0.6,13.1-10c0,0,1,4.5-0.3,6.3c0,0,2-0.1,2.6-1.4
		c0,0,0.3,2.9-0.9,3.3c0,0,2.3,0.7,3.6-0.7c0,0-0.4,2.9-1.5,3.3c0,0,0.5,1.3,1.5,1l-1.5,1.5c0,0,0.8,2.4,0.6,3.9
		c0,0-0.7-0.1-0.7,0.5c0,0-1.6-3.8-2.1-4c0,0-5.7,3.5-12.6-0.8c0,0,0.4,2.8-2.2,4.5C96.3,104.5,96.4,104.3,95.6,104.3z"/>
</g>
</svg>
