<?xml version="1.0" encoding="utf-8"?>
<!-- Generator: Adobe Illustrator 19.0.0, SVG Export Plug-In . SVG Version: 6.00 Build 0)  -->
<svg version="1.1" id="Layer_1" xmlns="http://www.w3.org/2000/svg" xmlns:xlink="http://www.w3.org/1999/xlink" x="0px" y="0px"
	 viewBox="-41 164.9 512 512" style="enable-background:new -41 164.9 512 512;" xml:space="preserve">
<style type="text/css">
	.st0{fill:#EE3C68;}
</style>
<g id="XMLID_377_">
	<g id="XMLID_380_">
		<g id="XMLID_383_">
			<path id="XMLID_407_" class="st0" d="M328.8,317.9L246.9,236c4-6.1,6.2-13.2,6.2-20.7c0-20.7-16.8-37.5-37.5-37.5
				s-37.5,16.8-37.5,37.5c0,7.5,2.2,14.6,6.2,20.7l-81.9,81.9H-27.1v345.3h485.4V317.9H328.8z M215.6,192.8
				c12.4,0,22.5,10.1,22.5,22.5c0,6-2.3,11.6-6.6,15.9c-4.3,4.3-9.9,6.6-15.9,6.6c-6,0-11.6-2.3-15.9-6.6c-4.3-4.3-6.6-9.9-6.6-15.9
				C193.1,202.9,203.2,192.8,215.6,192.8z M194.9,246.6c6.1,4,13.2,6.2,20.7,6.2s14.6-2.2,20.7-6.2l71.3,71.3H123.6L194.9,246.6z
				 M443.3,352.9h-92.6v15h92.6v240.2h-72.6v15h72.6v25H-12.1v-25h352.8v-15H-12.1V367.9h92.6v-15h-92.6v-20h455.4L443.3,352.9
				L443.3,352.9z"/>
			<path id="XMLID_404_" class="st0" d="M215.6,573.1c31.7,0,57.5-25.8,57.5-57.5v-60c0-15.3-6-29.7-16.9-40.6
				C245.3,404,230.9,398,215.6,398c-31.7,0-57.5,25.8-57.5,57.5v60C158,547.3,183.9,573.1,215.6,573.1z M173.1,455.5
				c0-23.5,19.1-42.5,42.5-42.5c11.3,0,22,4.4,30,12.5c8.1,8.1,12.5,18.7,12.5,30v60c0,23.5-19.1,42.5-42.5,42.5
				s-42.5-19.1-42.5-42.5V455.5z"/>
			<path id="XMLID_203_" class="st0" d="M40.4,545.9c-8-7.7-12.4-18-12.4-28.9h-15c0,15,6,29.1,17,39.7c11,10.6,25.4,16.4,40.5,16.4
				c31.7,0,57.5-25.2,57.5-56.1V395.5h-15v121.5c0,22.7-19.1,41.1-42.5,41.1C59.2,558.1,48.5,553.7,40.4,545.9z"/>
			<path id="XMLID_395_" class="st0" d="M418.3,520.6c0-13-4.9-25.4-13.7-35c8.8-9.7,13.7-22,13.7-35c0-29-23.6-52.5-52.5-52.5
				h-62.5v175.1h62.5C394.7,573.1,418.3,549.5,418.3,520.6z M318.2,413h47.5c20.7,0,37.5,16.8,37.5,37.5c0,11.2-5.2,21.9-14.3,29.2
				l-7.3,5.8l7.3,5.8c9.1,7.3,14.3,18,14.3,29.2c0,20.7-16.8,37.5-37.5,37.5h-47.5V413z"/>
			<rect id="XMLID_188_" x="170.6" y="352.9" class="st0" width="90.1" height="15"/>
			<rect id="XMLID_187_" x="280.6" y="352.9" class="st0" width="20" height="15"/>
			<rect id="XMLID_125_" x="130.5" y="352.9" class="st0" width="20" height="15"/>
		</g>
	</g>
</g>
</svg>
