<?xml version="1.0" encoding="utf-8"?>
<!-- Generator: Adobe Illustrator 19.0.0, SVG Export Plug-In . SVG Version: 6.00 Build 0)  -->
<svg version="1.1" id="Layer_1" xmlns="http://www.w3.org/2000/svg" xmlns:xlink="http://www.w3.org/1999/xlink" x="0px" y="0px"
	 viewBox="-41 164.9 512 512" style="enable-background:new -41 164.9 512 512;" xml:space="preserve">
<style type="text/css">
	.st0{fill:#EE3C68;}
</style>
<g id="XMLID_399_">
	<g id="XMLID_400_">
		<path id="XMLID_401_" class="st0" d="M420.4,516.1h29.6l-22.7-51.7c-0.8-26.9-23-48.6-50.1-48.6c-2.2,0-4.5,0.2-6.6,0.5
			c-14.7-59.1-62.5-103.8-121-115.5c11.8-9.2,19.4-23.5,19.4-39.5c0-27.6-22.5-50.1-50.1-50.1s-50.1,22.5-50.1,50.1
			c0,16.1,7.6,30.4,19.4,39.5c-25,5-48.7,16.2-68.6,32.5c-26.2,21.6-44.8,51.3-52.7,84.1c-4-1-8.2-1.6-12.5-1.6
			c-27.6,0-50.1,22.5-50.1,50.1c0,17.4,8.9,32.8,22.5,41.8c-27.8,11.1-47.6,38.2-47.6,69.9v53.1h150.5v-48.2
			c26.1,18.1,57.3,28,89.3,28c29.8,0,58.3-8.2,83.2-23.9v44.1h150.5v-53.1C452.5,552.2,439.8,529.7,420.4,516.1z M422.6,487.4
			l6.6,15h-17.5C416.1,498.2,419.9,493.1,422.6,487.4z M377.3,502.4c-17.8,0-32.6-12.8-35.8-29.6h71.6
			C409.9,489.6,395.1,502.4,377.3,502.4z M390.3,517.5l-13,15l-13-15c4.2-0.9,8.6-1.4,13-1.4C381.8,516.1,386.1,516.6,390.3,517.5z
			 M342.9,502.4h-15.7l5.3-13.8C335.2,493.8,338.7,498.5,342.9,502.4z M377.3,429.5c17.8,0,32.6,12.8,35.8,29.6h-14.8v-11.7h-13.7
			v11.7h-43.2C344.7,442.3,359.5,429.5,377.3,429.5z M218.9,224.7c17.8,0,32.6,12.8,35.8,29.6h-22.5l-6.5-7.3v-12H212v11.7l-7.6,7.6
			H183C186.2,237.5,201.1,224.7,218.9,224.7z M183,268h27.1l8.5-8.4l7.5,8.4h28.7c-3.2,16.9-18,29.6-35.8,29.6S186.2,284.9,183,268z
			 M231.9,312.7l-13,15l-13-15c4.2-0.9,8.6-1.4,13-1.4C223.3,311.3,227.7,311.8,231.9,312.7z M191.9,317.6l20.1,23.1v29.6h13.7
			v-29.6l20.1-23.1c20.5,10,34.6,31.1,34.6,55.4v39.4h-16.7v-37.2h-13.7v37.2h-62.5v-37.2h-13.7v37.2h-16.7v-39.4
			C157.3,348.6,171.4,327.6,191.9,317.6z M54.3,429.5c19.1,0,34.8,14.7,36.3,33.4c-20.1-1.1-33.2-7.1-40-11.2
			c1.7-2.3,2.4-3.9,2.5-4.1l-12.3-6c-0.3,0.5-5.8,11.1-22.6,18.5C21.2,442.7,36.2,429.5,54.3,429.5z M18.9,474.5
			c9.8-3.6,17-8.3,22.3-12.7c7.7,5.1,23.4,13.2,48.1,14.7c-4.5,15-18.5,25.9-34.9,25.9C37.2,502.4,22.7,490.5,18.9,474.5z
			 M67.4,517.5l-13,15l-13-15c4.2-0.9,8.6-1.4,13-1.4C58.8,516.1,63.2,516.6,67.4,517.5z M115.9,617H99.2v-37.2H85.6V617H23.1v-37.2
			H9.4V617H-7.3v-39.4c0-24.3,14.1-45.3,34.6-55.3l20.1,23.1V575h13.7v-29.6l20.1-23.1c20.5,10,34.6,31.1,34.6,55.3V617z
			 M218.9,596.8c-33,0-65-11.5-90.5-32.4c-4.6-25.9-22.5-47.3-46.4-56.8c13.5-9,22.5-24.4,22.5-41.8c0-18.4-10-34.6-24.9-43.3
			c10.2-45.4,42-82,83.1-99.7c-11.8,13.3-19.1,30.8-19.1,50V426h150.5v-53.1c0-19.2-7.2-36.8-19.1-50.1
			c40.4,17.3,71.7,52.8,82.5,97.1c-17.4,7.5-29.8,24.7-30.3,44.7l-19.9,51.5h26.8c-17.4,12.2-29.4,31.5-31.7,53.7
			C278,587.5,249.2,596.8,218.9,596.8z M422.2,617v-37.2h-13.7V617H346v-37.2h-13.7V617h-16.7v-39.4c0-24.3,14.1-45.3,34.6-55.3
			l20.1,23.1V575h13.7v-29.6l20.1-23.1c20.5,10,34.6,31.1,34.6,55.3V617L422.2,617L422.2,617z"/>
	</g>
</g>
</svg>
