<?xml version="1.0" encoding="utf-8"?>
<!-- Generator: Adobe Illustrator 19.0.0, SVG Export Plug-In . SVG Version: 6.00 Build 0)  -->
<svg version="1.1" id="Layer_1" xmlns="http://www.w3.org/2000/svg" xmlns:xlink="http://www.w3.org/1999/xlink" x="0px" y="0px"
	 viewBox="-41 164.9 512 512" style="enable-background:new -41 164.9 512 512;" xml:space="preserve">
<style type="text/css">
	.st0{fill:#EE3C68;}
</style>
<g id="XMLID_348_">
	<g id="XMLID_349_">
		<path id="XMLID_40_" class="st0" d="M452.9,370.8c-0.9,0.2-23.3,4.8-42.2,10.5c-25.3,7.6-39.7,23.5-39.7,43.7v91.3h-63.9
			c-15.8,0-28.6,12.8-28.6,28.6v118.7h15.6V545c0-7.2,5.8-13,13-13h79.6V425c0-17.6,17.9-25.6,28.6-28.8c10.9-3.3,23.2-6.2,31.5-8.1
			v151.7c0,18.7-15.2,33.9-33.9,33.9h-86.5l-11.3,90h15.5l9.5-74.3h72.7c27.3,0,49.5-22.2,49.5-49.5V368.9L452.9,370.8z"/>
	</g>
</g>
<g id="XMLID_343_">
	<g id="XMLID_344_">
		<path id="XMLID_345_" class="st0" d="M417,248.8L417,248.8c-24.4,0-44.4,19.4-45.3,43.6l-21.9,50.1h21.8v26H415
			c26.1,0,47.4-21.3,47.4-47.4v-27.1C462.3,269.1,442,248.8,417,248.8z M446.7,321.2c0,17.5-14.3,31.8-31.8,31.8h-27.6v-26h-13.6
			l13.6-31.2v-1.6c0-16.4,13.3-29.7,29.7-29.7h0c16.4,0,29.7,13.3,29.7,29.7L446.7,321.2L446.7,321.2z"/>
	</g>
</g>
<g id="XMLID_340_">
	<g id="XMLID_341_">
		<path id="XMLID_37_" class="st0" d="M122.8,516.3H58.9V425c0-20.2-14.5-36.2-39.7-43.7C0.3,375.6-22.1,371-23,370.8l-9.4-1.9
			v171.1c0,27.3,22.2,49.5,49.5,49.5h72.7l9.5,74.3h15.5l-11.3-90H17.1c-18.7,0-33.9-15.2-33.9-33.9V388.2
			c8.2,1.9,20.6,4.8,31.5,8.1c10.7,3.2,28.6,11.2,28.6,28.8V532h79.6c7.2,0,13,5.8,13,13v118.7h15.6V545
			C151.5,529.2,138.6,516.3,122.8,516.3z"/>
	</g>
</g>
<g id="XMLID_328_">
	<g id="XMLID_329_">
		<path id="XMLID_337_" class="st0" d="M58.2,292.4c-0.9-24.2-20.9-43.6-45.3-43.6h0c-25,0-45.3,20.3-45.3,45.3v27.1
			c0,26.1,21.3,47.4,47.4,47.4h43.2v-26H80L58.2,292.4z M42.6,326.9v26H15c-17.5,0-31.8-14.3-31.8-31.8v-27.1
			c0-16.4,13.3-29.7,29.7-29.7h0c16.4,0,29.7,13.3,29.7,29.7v1.6l13.6,31.2L42.6,326.9L42.6,326.9z"/>
	</g>
</g>
<g id="XMLID_238_">
	<g id="XMLID_239_">
		<path id="XMLID_249_" class="st0" d="M84.8,437.2v46.9h109.6v179.7H210V484.1h15.6v179.7h15.6V484.1h103.9v-46.9H84.8z
			 M329.5,468.4H100.4v-15.6h229.2L329.5,468.4L329.5,468.4z"/>
	</g>
</g>
<g id="XMLID_130_">
	<g id="XMLID_199_">
		<path id="XMLID_227_" class="st0" d="M320.7,258.1v-39.7h-43.7v-41.7H94.7v39.7l-37.9,46.3h37.9v33.9h32.6v-15.6h-17v-33.9H89.8
			l20.5-25.1v-29.6h151v26H138.4v119.8h182.3v-33.9h37.9L320.7,258.1z M305.1,288.8v33.9H154v-26h122.9v-52.5h-15.6v36.8H154v-46.9
			h151v29.6l20.5,25.1H305.1z"/>
	</g>
</g>
<g id="XMLID_43_">
	<g id="XMLID_44_">
		<g id="XMLID_57_">
			<rect id="XMLID_11_" x="163.4" y="380.9" class="st0" width="15.6" height="15.6"/>
			<rect id="XMLID_7_" x="207.2" y="380.9" class="st0" width="15.6" height="15.6"/>
			<rect id="XMLID_4_" x="250.9" y="380.9" class="st0" width="15.6" height="15.6"/>
		</g>
	</g>
</g>
</svg>
