<?xml version="1.0" encoding="utf-8"?>
<!-- Generator: Adobe Illustrator 19.0.0, SVG Export Plug-In . SVG Version: 6.00 Build 0)  -->
<svg version="1.1" id="Capa_1" xmlns="http://www.w3.org/2000/svg" xmlns:xlink="http://www.w3.org/1999/xlink" x="0px" y="0px"
	 viewBox="0 120 595.3 601.9" style="enable-background:new 0 120 595.3 601.9;" xml:space="preserve">
<style type="text/css">
	.st0{fill:#E41C54;}
</style>
<g>
	<g>
		<path class="st0" d="M110.5,537.1c-4.8-4.8-12.6-4.8-17.4,0l-25.3,25.3c-4.8,4.8-4.8,12.6,0,17.4c2.4,2.4,5.5,3.6,8.7,3.6
			c3.1,0,6.3-1.2,8.7-3.6l25.3-25.3C115.3,549.7,115.3,541.9,110.5,537.1z"/>
	</g>
</g>
<g>
	<g>
		<path class="st0" d="M146.2,572.8c-4.8-4.8-12.6-4.8-17.4,0L44.6,657c-4.8,4.8-4.8,12.6,0,17.4c2.4,2.4,5.5,3.6,8.7,3.6
			c3.1,0,6.3-1.2,8.7-3.6l84.2-84.2C151,585.4,151,577.6,146.2,572.8z"/>
	</g>
</g>
<g>
	<g>
		<path class="st0" d="M181.9,608.5c-4.8-4.8-12.6-4.8-17.4,0l-42.1,42.1c-4.8,4.8-4.8,12.6,0,17.4c2.4,2.4,5.5,3.6,8.7,3.6
			c3.1,0,6.3-1.2,8.7-3.6l42.1-42.1C186.7,621.1,186.7,613.3,181.9,608.5z"/>
	</g>
</g>
<g>
	<g>
		<path class="st0" d="M413.8,305.2c-14.3-14.3-33.4-22.2-53.6-22.2c-20.3,0-39.3,7.9-53.6,22.2c-14.3,14.3-22.2,33.4-22.2,53.6
			s7.9,39.3,22.2,53.6c14.3,14.3,33.4,22.2,53.6,22.2c20.3,0,39.3-7.9,53.6-22.2C443.4,382.9,443.4,334.8,413.8,305.2z M396.4,395
			c-9.7,9.7-22.5,15-36.2,15c-13.7,0-26.5-5.3-36.2-15c-9.7-9.7-15-22.5-15-36.2s5.3-26.5,15-36.2c9.7-9.7,22.5-15,36.2-15
			c13.7,0,26.5,5.3,36.2,15C416.4,342.6,416.4,375.1,396.4,395z"/>
	</g>
</g>
<g>
	<g>
		<path class="st0" d="M544.4,183.3c-1.1-4.2-4.5-7.6-8.7-8.7c-42-11.2-86.6-11.4-128.7-0.5c-6.6,1.7-13,3.7-19.4,5.9
			c-0.6,0.2-1.1,0.3-1.6,0.6c-35.1,12.5-67.2,32.6-93.8,59.2c0,0,0,0,0,0c-0.1,0.1-0.1,0.1-0.2,0.2c-0.1,0.1-0.2,0.2-0.3,0.3
			c-0.1,0.1-0.2,0.2-0.3,0.3l-37.7,43.8c-59.2-0.7-116.8,22.8-158.8,64.7c-13.7,13.7-25.4,28.9-35,45.5c-1.9,3.3-2.2,7.4-0.7,10.9
			c1.5,3.6,4.6,6.2,8.3,7.1l68.3,17.4l-13.4,36.3c-6.6,17.9-2.1,38.3,11.4,51.8l67.1,67.1c9.4,9.4,22,14.4,34.9,14.4
			c5.7,0,11.4-1,16.9-3l36.3-13.4l17.4,68.3c0.9,3.7,3.6,6.8,7.1,8.3c1.5,0.6,3.1,1,4.8,1c2.1,0,4.3-0.6,6.2-1.7
			c16.5-9.6,31.8-21.4,45.5-35c42-42,65.4-99.6,64.7-158.8l43.8-37.7c0.1-0.1,0.2-0.2,0.3-0.3c0.1-0.1,0.2-0.2,0.4-0.3
			c0.1-0.1,0.1-0.1,0.2-0.2c0,0,0,0,0,0c26.5-26.6,46.7-58.7,59.2-93.8c0.2-0.5,0.4-1.1,0.6-1.6c2.2-6.4,4.2-12.9,5.9-19.4
			C555.9,269.8,555.7,225.3,544.4,183.3z M89.9,393.1c6.6-9.4,14-18.3,22.3-26.5c32.2-32.2,74.6-52,119.4-56.6l-84,97.8L89.9,393.1z
			 M145.4,475l11.4-31.1l15.9,15.9l-24,38.4C143.8,491.5,142.5,482.8,145.4,475z M166.4,516.2l24.1-38.6l16.7,16.7l-31.4,31.4
			L166.4,516.2z M193.3,543.1l31.4-31.4l16.7,16.7l-38.6,24.1L193.3,543.1z M244,573.6c-7.8,2.9-16.6,1.5-23.1-3.3l38.4-24
			l15.9,15.9L244,573.6z M352.4,606.9c-8.2,8.2-17.1,15.7-26.5,22.3l-14.7-57.7l97.8-84C404.5,532.3,384.6,574.7,352.4,606.9z
			 M461.9,409.5L298,550.3L168.7,421l99.5-115.8c0.1-0.1,0.2-0.2,0.3-0.3l41.1-47.8c22.4-22.3,49.1-39.6,78.2-51l125.2,125.2
			C501.6,360.4,484.2,387.1,461.9,409.5z M521.4,305L414,197.6c35.5-9,72.8-9.4,108.4-1C530.7,232.2,530.4,269.5,521.4,305z"/>
	</g>
</g>
</svg>
