<?xml version="1.0" encoding="utf-8"?>
<!-- Generator: Adobe Illustrator 19.0.0, SVG Export Plug-In . SVG Version: 6.00 Build 0)  -->
<svg version="1.1" id="Capa_1" xmlns="http://www.w3.org/2000/svg" xmlns:xlink="http://www.w3.org/1999/xlink" x="0px" y="0px"
	 viewBox="0 120 595.3 601.9" style="enable-background:new 0 120 595.3 601.9;" xml:space="preserve">
<style type="text/css">
	.st0{fill:#E41C54;}
</style>
<g id="XMLID_146_">
	<g id="XMLID_147_">
		<path id="XMLID_34_" class="st0" d="M371.3,509.7c-2.7-3.8-8-4.7-11.8-1.9c-18.3,13.2-39.9,20.1-62.5,20.1
			c-58.9,0-106.9-48-106.9-106.9c0-19.1,5.1-37.9,14.8-54.3c2.4-4,1-9.2-3-11.6c-4-2.4-9.2-1-11.6,3c-11.2,19-17.1,40.7-17.1,62.9
			c0,68.3,55.6,123.9,123.9,123.9c26.2,0,51.2-8.1,72.4-23.3C373.2,518.8,374,513.5,371.3,509.7z"/>
	</g>
</g>
<g id="XMLID_143_">
	<g id="XMLID_144_">
		<path id="XMLID_33_" class="st0" d="M297,297.1c-30.5,0-59.8,11.2-82.5,31.5c-3.5,3.1-3.8,8.5-0.7,12c3.1,3.5,8.5,3.8,12,0.7
			c19.6-17.5,44.9-27.2,71.2-27.2c58.9,0,106.9,48,106.9,106.9c0,23.6-7.5,46-21.8,64.7c-2.8,3.7-2.1,9,1.6,11.9
			c1.5,1.2,3.3,1.7,5.1,1.7c2.6,0,5.1-1.2,6.8-3.3c16.5-21.7,25.2-47.6,25.2-74.9C420.9,352.7,365.3,297.1,297,297.1z"/>
	</g>
</g>
<g id="XMLID_140_">
	<g id="XMLID_141_">
		<path id="XMLID_32_" class="st0" d="M533.3,574.3c-3.8-2.7-9.1-1.7-11.8,2.1C470.4,650.1,386.5,694,297,694
			c-4.7,0-8.5,3.8-8.5,8.5s3.8,8.5,8.5,8.5c95,0,184.2-46.7,238.4-124.9C538.1,582.3,537.1,577,533.3,574.3z"/>
	</g>
</g>
<g id="XMLID_137_">
	<g id="XMLID_138_">
		<path id="XMLID_31_" class="st0" d="M554.3,535.7c-4.2-2-9.3-0.3-11.3,3.9c-2.4,4.9-4.9,9.7-7.5,14.4c-2.3,4.1-0.8,9.3,3.3,11.5
			c1.3,0.7,2.7,1.1,4.1,1.1c3,0,5.9-1.6,7.4-4.3c2.8-5,5.5-10.2,8-15.3C560.3,542.8,558.5,537.7,554.3,535.7z"/>
	</g>
</g>
<g id="XMLID_134_">
	<g id="XMLID_135_">
		<path id="XMLID_30_" class="st0" d="M530.2,248.6c-36.4-49.2-86.3-85-144.2-103.7c-4.5-1.4-9.2,1-10.7,5.5
			c-1.4,4.5,1,9.2,5.5,10.7c54.6,17.6,101.5,51.3,135.8,97.7C551.6,305.9,570,362,570,421c0,31.7-5.4,62.8-16,92.4
			c-0.3,0.8-0.6,1.5-0.8,2.3c-1.6,4.4,0.6,9.3,5,10.9c1,0.4,2,0.5,2.9,0.5c3.4,0,6.7-2.1,8-5.5c0.3-0.8,0.6-1.6,0.9-2.4
			c11.3-31.4,17-64.4,17-98.1C587,358.4,567.4,298.8,530.2,248.6z"/>
	</g>
</g>
<g id="XMLID_131_">
	<g id="XMLID_132_">
		<path id="XMLID_29_" class="st0" d="M345.6,135c-15.9-2.7-32.3-4-48.6-4c-4.7,0-8.5,3.8-8.5,8.5s3.8,8.5,8.5,8.5
			c15.3,0,30.7,1.3,45.7,3.8c0.5,0.1,1,0.1,1.4,0.1c4.1,0,7.7-2.9,8.3-7.1C353.3,140.2,350.2,135.8,345.6,135z"/>
	</g>
</g>
<g id="XMLID_128_">
	<g id="XMLID_129_">
		<path id="XMLID_28_" class="st0" d="M146.8,649C69.9,598.3,24,513,24,421c0-39.2,8.1-76.9,24.1-112.3
			c15.5-34.2,37.4-64.4,65.3-89.7c3.5-3.2,3.7-8.5,0.6-12c-3.1-3.5-8.5-3.7-12-0.6c-29.6,26.9-52.9,59-69.3,95.3
			C15.6,339.3,7,379.4,7,421c0,97.7,48.8,188.3,130.4,242.2c1.4,0.9,3.1,1.4,4.7,1.4c2.8,0,5.5-1.3,7.1-3.8
			C151.8,656.9,150.7,651.6,146.8,649z"/>
	</g>
</g>
<g id="XMLID_125_">
	<g id="XMLID_126_">
		<path id="XMLID_27_" class="st0" d="M383.8,650.1c-1.5-4.4-6.3-6.8-10.8-5.3c-5.1,1.7-10.4,3.3-15.7,4.7c-4.5,1.2-7.2,5.8-6,10.4
			c1,3.8,4.4,6.3,8.2,6.3c0.7,0,1.4-0.1,2.2-0.3c5.6-1.5,11.3-3.2,16.8-5.1C382.9,659.4,385.3,654.6,383.8,650.1z"/>
	</g>
</g>
<g id="XMLID_122_">
	<g id="XMLID_123_">
		<path id="XMLID_26_" class="st0" d="M334.6,663.1c-0.6-4.6-4.8-8-9.4-7.4c-5.4,0.6-10.9,1.1-16.3,1.4c-4.7,0.2-8.3,4.2-8,8.9
			c0.2,4.5,4,8.1,8.5,8.1c0.1,0,0.3,0,0.4,0c5.8-0.3,11.7-0.8,17.5-1.5C331.9,671.9,335.2,667.7,334.6,663.1z"/>
	</g>
</g>
<g id="XMLID_119_">
	<g id="XMLID_120_">
		<path id="XMLID_25_" class="st0" d="M468.8,595.6c-3.2-3.4-8.5-3.7-12-0.5c-4,3.7-8.2,7.3-12.4,10.7c-3.7,2.9-4.3,8.3-1.3,11.9
			c1.7,2.1,4.1,3.2,6.6,3.2c1.9,0,3.7-0.6,5.3-1.9c4.5-3.6,9-7.5,13.3-11.4C471.8,604.4,472,599,468.8,595.6z"/>
	</g>
</g>
<g id="XMLID_116_">
	<g id="XMLID_117_">
		<path id="XMLID_24_" class="st0" d="M142.7,600c-4.1-3.5-8.2-7.3-12-11.1c-3.3-3.3-8.7-3.3-12,0.1c-3.3,3.3-3.3,8.7,0.1,12
			c4.1,4.1,8.5,8.1,12.9,11.9c1.6,1.4,3.6,2.1,5.5,2.1c2.4,0,4.7-1,6.4-2.9C146.6,608.4,146.3,603.1,142.7,600z"/>
	</g>
</g>
<g id="XMLID_113_">
	<g id="XMLID_114_">
		<path id="XMLID_23_" class="st0" d="M429.1,627.3c-2.4-4-7.6-5.3-11.6-3c-4.7,2.8-9.5,5.4-14.3,7.9c-4.2,2.1-5.9,7.2-3.8,11.4
			c1.5,3,4.5,4.7,7.6,4.7c1.3,0,2.6-0.3,3.8-0.9c5.2-2.6,10.4-5.5,15.4-8.4C430.2,636.5,431.5,631.3,429.1,627.3z"/>
	</g>
</g>
<g id="XMLID_110_">
	<g id="XMLID_111_">
		<path id="XMLID_22_" class="st0" d="M67.2,476.4c-1.3-5.3-2.4-10.7-3.3-16c-0.8-4.6-5.2-7.7-9.8-7c-4.6,0.8-7.7,5.1-7,9.8
			c1,5.7,2.1,11.5,3.5,17.2c0.9,3.9,4.4,6.5,8.2,6.5c0.7,0,1.3-0.1,2-0.2C65.5,485.5,68.3,481,67.2,476.4z"/>
	</g>
</g>
<g id="XMLID_107_">
	<g id="XMLID_108_">
		<path id="XMLID_21_" class="st0" d="M109.4,263.5c-3.7-2.9-9-2.2-11.9,1.4c-3.6,4.6-7.1,9.4-10.3,14.2c-2.6,3.9-1.6,9.1,2.3,11.8
			c1.5,1,3.1,1.5,4.7,1.5c2.7,0,5.4-1.3,7-3.7c3-4.5,6.3-9,9.6-13.2C113.7,271.7,113.1,266.4,109.4,263.5z"/>
	</g>
</g>
<g id="XMLID_104_">
	<g id="XMLID_105_">
		<path id="XMLID_20_" class="st0" d="M182.9,628c-4.8-2.6-9.5-5.5-14-8.4c-3.9-2.5-9.2-1.4-11.7,2.5c-2.5,3.9-1.4,9.2,2.5,11.7
			c4.9,3.2,10,6.2,15.1,9c1.3,0.7,2.7,1.1,4.1,1.1c3,0,5.9-1.6,7.4-4.4C188.5,635.5,187,630.3,182.9,628z"/>
	</g>
</g>
<g id="XMLID_101_">
	<g id="XMLID_102_">
		<path id="XMLID_19_" class="st0" d="M109.1,564.3c-3.3-4.3-6.5-8.8-9.5-13.3c-2.6-3.9-7.8-5-11.7-2.4c-3.9,2.6-5,7.8-2.4,11.7
			c3.2,4.9,6.6,9.7,10.2,14.3c1.7,2.2,4.2,3.3,6.7,3.3c1.8,0,3.6-0.6,5.1-1.7C111.2,573.4,111.9,568.1,109.1,564.3z"/>
	</g>
</g>
<g id="XMLID_98_">
	<g id="XMLID_99_">
		<path id="XMLID_18_" class="st0" d="M276.2,656.4c-5.4-0.5-10.9-1.1-16.2-2c-4.6-0.7-9,2.4-9.7,7.1c-0.7,4.6,2.4,9,7.1,9.7
			c5.7,0.9,11.6,1.6,17.4,2.1c0.3,0,0.5,0,0.7,0c4.3,0,8.1-3.3,8.4-7.7C284.3,660.9,280.9,656.8,276.2,656.4z"/>
	</g>
</g>
<g id="XMLID_95_">
	<g id="XMLID_96_">
		<path id="XMLID_17_" class="st0" d="M228.1,647.1c-5.2-1.6-10.4-3.4-15.5-5.3c-4.4-1.7-9.3,0.5-10.9,4.9
			c-1.7,4.4,0.5,9.3,4.9,10.9c5.4,2.1,11,4,16.6,5.7c0.8,0.3,1.7,0.4,2.5,0.4c3.6,0,7-2.4,8.1-6
			C235.1,653.2,232.6,648.5,228.1,647.1z"/>
	</g>
</g>
<g id="XMLID_92_">
	<g id="XMLID_93_">
		<path id="XMLID_16_" class="st0" d="M61.7,352.6c-4.5-1.1-9.2,1.6-10.3,6.1c-1.4,5.6-2.7,11.4-3.7,17.2c-0.8,4.6,2.2,9,6.8,9.8
			c0.5,0.1,1,0.1,1.5,0.1c4,0,7.6-2.9,8.3-7c1-5.4,2.1-10.7,3.5-16C69,358.4,66.2,353.8,61.7,352.6z"/>
	</g>
</g>
<g id="XMLID_89_">
	<g id="XMLID_90_">
		<path id="XMLID_15_" class="st0" d="M60.8,411.4c0.2-4.7-3.5-8.6-8.1-8.8c-4.7-0.2-8.6,3.5-8.8,8.1c-0.1,3.4-0.2,6.8-0.2,10.2
			c0,2.4,0,4.9,0.1,7.3c0.1,4.6,3.9,8.2,8.5,8.2c0.1,0,0.2,0,0.2,0c4.7-0.1,8.4-4,8.2-8.7c-0.1-2.3-0.1-4.6-0.1-6.8
			C60.7,417.8,60.7,414.6,60.8,411.4z"/>
	</g>
</g>
<g id="XMLID_86_">
	<g id="XMLID_87_">
		<path id="XMLID_14_" class="st0" d="M83.5,522.6c-2.3-4.9-4.5-9.9-6.5-15c-1.7-4.4-6.6-6.5-11-4.8c-4.4,1.7-6.5,6.6-4.8,11
			c2.1,5.4,4.5,10.8,7,16.1c1.5,3,4.5,4.8,7.7,4.8c1.2,0,2.5-0.3,3.6-0.8C83.8,531.8,85.6,526.8,83.5,522.6z"/>
	</g>
</g>
<g id="XMLID_83_">
	<g id="XMLID_84_">
		<path id="XMLID_13_" class="st0" d="M80.9,305.6c-4.2-2.1-9.3-0.3-11.3,3.9c-2.6,5.2-5,10.6-7.2,16c-1.8,4.3,0.3,9.3,4.7,11.1
			c1,0.4,2.1,0.6,3.2,0.6c3.3,0,6.5-2,7.9-5.3c2.1-5,4.3-10.1,6.7-14.9C86.8,312.7,85.1,307.6,80.9,305.6z"/>
	</g>
</g>
<g id="XMLID_80_">
	<g id="XMLID_81_">
		<path id="XMLID_12_" class="st0" d="M523.7,307.8c-2.6-5.2-5.4-10.4-8.4-15.4c-2.4-4-7.6-5.4-11.6-3c-4,2.4-5.4,7.6-3,11.6
			c2.8,4.7,5.4,9.5,7.8,14.4c1.5,3,4.5,4.7,7.6,4.7c1.3,0,2.6-0.3,3.8-0.9C524.1,317.1,525.8,312,523.7,307.8z"/>
	</g>
</g>
<g id="XMLID_77_">
	<g id="XMLID_78_">
		<path id="XMLID_11_" class="st0" d="M366.3,177.3c-5.6-1.6-11.3-3-17-4.2c-4.6-1-9.1,2-10,6.6s2,9.1,6.6,10
			c5.3,1.1,10.7,2.4,15.9,3.9c0.8,0.2,1.6,0.3,2.3,0.3c3.7,0,7.1-2.4,8.2-6.2C373.4,183.2,370.8,178.6,366.3,177.3z"/>
	</g>
</g>
<g id="XMLID_74_">
	<g id="XMLID_75_">
		<path id="XMLID_10_" class="st0" d="M314.5,168.3c-5.8-0.4-11.7-0.6-17.5-0.6c-4.7,0-8.5,3.8-8.5,8.5s3.8,8.5,8.5,8.5
			c5.4,0,10.9,0.2,16.4,0.6c0.2,0,0.4,0,0.6,0c4.4,0,8.1-3.4,8.4-7.9C322.7,172.7,319.2,168.6,314.5,168.3z"/>
	</g>
</g>
<g id="XMLID_71_">
	<g id="XMLID_72_">
		<path id="XMLID_9_" class="st0" d="M415.1,196.8c-5.2-2.7-10.5-5.3-15.8-7.6c-4.3-1.9-9.3,0-11.2,4.3c-1.9,4.3,0,9.3,4.3,11.2
			c5,2.2,9.9,4.6,14.7,7.1c1.3,0.7,2.6,1,4,1c3,0,6-1.6,7.5-4.5C420.8,204.1,419.2,199,415.1,196.8z"/>
	</g>
</g>
<g id="XMLID_68_">
	<g id="XMLID_69_">
		<path id="XMLID_8_" class="st0" d="M495.5,263.6c-3.6-4.6-7.4-9-11.4-13.3c-3.2-3.5-8.5-3.7-12-0.5c-3.5,3.2-3.7,8.5-0.5,12
			c3.7,4,7.2,8.2,10.6,12.5c1.7,2.1,4.1,3.2,6.6,3.2c1.8,0,3.7-0.6,5.3-1.8C497.8,272.6,498.4,267.2,495.5,263.6z"/>
	</g>
</g>
<g id="XMLID_65_">
	<g id="XMLID_66_">
		<path id="XMLID_7_" class="st0" d="M548.6,391.5c-0.5-4.7-4.7-8-9.4-7.4c-4.7,0.5-8,4.7-7.4,9.4c0.6,5.4,1.1,10.9,1.3,16.3
			c0.2,4.5,4,8.1,8.5,8.1c0.1,0,0.3,0,0.4,0c4.7-0.2,8.3-4.2,8.1-8.9C549.7,403.1,549.3,397.2,548.6,391.5z"/>
	</g>
</g>
<g id="XMLID_62_">
	<g id="XMLID_63_">
		<path id="XMLID_6_" class="st0" d="M458.7,226c-4.5-3.7-9.1-7.3-13.9-10.7c-3.8-2.7-9.1-1.9-11.8,1.9c-2.7,3.8-1.9,9.1,1.9,11.8
			c4.4,3.2,8.8,6.5,12.9,10c1.6,1.3,3.5,2,5.4,2c2.4,0,4.9-1,6.5-3.1C462.8,234.4,462.3,229,458.7,226z"/>
	</g>
</g>
<g id="XMLID_59_">
	<g id="XMLID_60_">
		<path id="XMLID_5_" class="st0" d="M542.1,357c-1.5-5.6-3.2-11.3-5-16.8c-1.5-4.4-6.3-6.8-10.7-5.3c-4.4,1.5-6.8,6.3-5.3,10.7
			c1.7,5.1,3.3,10.4,4.7,15.7c1,3.8,4.4,6.3,8.2,6.3c0.7,0,1.4-0.1,2.1-0.3C540.6,366.2,543.3,361.5,542.1,357z"/>
	</g>
</g>
<g id="XMLID_54_">
	<g id="XMLID_55_">
		<path id="XMLID_56_" class="st0" d="M501.2,382.1l-44.3-6.3c-3.5-12.5-8.5-24.6-14.9-35.9l26.9-35.8c2.5-3.4,2.2-8.1-0.8-11.1
			L425,249.9c-3-3-7.7-3.3-11.1-0.8L378.1,276c-11.4-6.4-23.4-11.4-35.9-14.9l-6.3-44.3c-0.6-4.2-4.2-7.3-8.4-7.3h-61
			c-4.2,0-7.8,3.1-8.4,7.3l-6.3,44.3c-12.5,3.5-24.6,8.5-35.9,14.9l-35.8-26.9c-3.4-2.5-8.1-2.2-11.1,0.8L125.9,293
			c-3,3-3.3,7.7-0.8,11.1l26.9,35.8c-6.4,11.4-11.3,23.4-14.9,35.9l-44.3,6.3c-4.2,0.6-7.3,4.2-7.3,8.4v61c0,4.2,3.1,7.8,7.3,8.4
			l44.3,6.3c3.5,12.5,8.5,24.6,14.9,35.9l-26.9,35.8c-2.5,3.4-2.2,8.1,0.8,11.1l43.1,43.1c3,3,7.7,3.3,11.1,0.8l35.8-26.9
			c11.4,6.4,23.4,11.3,35.9,14.9l6.3,44.3c0.6,4.2,4.2,7.3,8.4,7.3h61c4.2,0,7.8-3.1,8.4-7.3l6.3-44.3c12.5-3.5,24.6-8.5,35.9-14.9
			l35.8,26.9c3.4,2.5,8.1,2.2,11.1-0.8l43.1-43.1c3-3,3.3-7.7,0.8-11.1L442,502.1c6.4-11.4,11.3-23.4,14.9-35.9l44.3-6.3
			c4.2-0.6,7.3-4.2,7.3-8.4v-61C508.4,386.3,505.3,382.7,501.2,382.1z M491.5,444.1l-42.6,6c-3.4,0.5-6.2,3-7,6.4
			c-3.6,14.7-9.4,28.8-17.3,41.7c-1.8,3-1.6,6.7,0.5,9.5l25.8,34.4l-32.7,32.7L383.8,549c-2.8-2.1-6.5-2.3-9.5-0.5
			c-13,7.9-27,13.7-41.7,17.3c-3.4,0.8-5.9,3.6-6.4,7l-6,42.6h-46.3l-6-42.6c-0.5-3.4-3-6.2-6.4-7c-14.7-3.6-28.8-9.4-41.7-17.3
			c-3-1.8-6.7-1.6-9.5,0.5l-34.4,25.8l-32.7-32.7l25.8-34.4c2.1-2.8,2.3-6.5,0.5-9.5c-7.9-13-13.7-27-17.3-41.7
			c-0.8-3.4-3.6-5.9-7-6.4l-42.6-6v-46.3l42.6-6c3.4-0.5,6.2-3,7-6.4c3.6-14.7,9.4-28.8,17.3-41.7c1.8-3,1.6-6.7-0.5-9.5l-25.8-34.4
			l32.7-32.7l34.4,25.8c2.8,2.1,6.5,2.3,9.5,0.5c13-7.9,27-13.7,41.7-17.3c3.4-0.8,5.9-3.6,6.4-7l6-42.6h46.3l6,42.6
			c0.5,3.4,3,6.2,6.4,7c14.7,3.6,28.8,9.4,41.7,17.3c3,1.8,6.7,1.6,9.5-0.5l34.4-25.8l32.7,32.7L425,334.2c-2.1,2.8-2.3,6.5-0.5,9.5
			c7.9,13,13.7,27,17.3,41.7c0.8,3.4,3.6,5.9,7,6.4l42.6,6V444.1z"/>
	</g>
</g>
<g id="XMLID_49_">
	<g id="XMLID_50_">
		<path id="XMLID_51_" class="st0" d="M305.5,393.8l0.2-48.3c0-4.7-3.8-8.5-8.4-8.5c0,0,0,0,0,0c-4.7,0-8.5,3.8-8.5,8.4l-0.2,48.3
			c-11.6,3.6-20,14.4-20,27.2c0,5.9,1.8,11.4,4.9,15.9l-22.4,24.3c-3.2,3.4-2.9,8.8,0.5,12c1.6,1.5,3.7,2.2,5.7,2.2
			c2.3,0,4.6-0.9,6.2-2.7l23.2-25.2c3.2,1.2,6.7,1.9,10.3,1.9c15.7,0,28.5-12.8,28.5-28.5C325.5,408.3,317.1,397.4,305.5,393.8z
			 M297,432.5c-6.3,0-11.5-5.2-11.5-11.5c0-6.3,5.2-11.5,11.5-11.5c6.3,0,11.5,5.2,11.5,11.5S303.4,432.5,297,432.5z"/>
	</g>
</g>
</svg>
