<?xml version="1.0" encoding="utf-8"?>
<!-- Generator: Adobe Illustrator 19.0.0, SVG Export Plug-In . SVG Version: 6.00 Build 0)  -->
<svg version="1.1" id="Capa_1" xmlns="http://www.w3.org/2000/svg" xmlns:xlink="http://www.w3.org/1999/xlink" x="0px" y="0px"
	 viewBox="116 -116.3 532.3 532.3" style="enable-background:new 116 -116.3 532.3 532.3;" xml:space="preserve">
<style type="text/css">
	.st0{fill:#EE3C68;}
</style>
<g>
	<g>
		<path class="st0" d="M191.2,362.8l72.9-29.3c4.7-1.9,10,0.4,11.7,5.2l27.3,73.7c1.8,4.8,4.9,4.9,6.9,0.2l72.1-162.8l72.1,162.8
			c2.1,4.6,5.2,4.6,6.9-0.2l27.3-73.7c1.8-4.8,7-7.1,11.7-5.2l72.9,29.3c4.7,1.9,6.9-0.3,4.8-5l-70.4-159
			c-33.1,29.4-76.5,47.4-124,47.7c-0.5,0-0.9,0-1.4,0s-0.9,0-1.4,0c-47.5-0.4-90.9-18.3-124-47.7l-70.4,159
			C184.3,362.5,186.5,364.7,191.2,362.8z"/>
		<path class="st0" d="M263.2,184.2c29.2,27.5,67.9,44.9,110.7,46.9c2.7,0.1,5.5,0.2,8.3,0.2s5.5-0.1,8.3-0.2
			c42.8-2,81.5-19.5,110.7-46.9c33.8-31.7,54.9-76.7,54.9-126.7c0-96-77.8-173.8-173.8-173.8c-96,0-173.8,77.8-173.8,173.8
			C208.3,107.5,229.5,152.5,263.2,184.2z M382.2-84.9c78.5,0,142.3,63.9,142.3,142.3c0,36.8-14.1,70.4-37.1,95.7
			c-21.2,23.3-49.9,39.5-82.3,44.7c-7.5,1.2-15.1,1.9-22.9,1.9c-7.8,0-15.5-0.7-22.9-1.9c-32.4-5.3-61.1-21.5-82.3-44.7
			c-23-25.3-37.1-58.9-37.1-95.7C239.8-21,303.7-84.9,382.2-84.9z"/>
		<path class="st0" d="M351.6,180.8c9.8,2.4,20,3.7,30.5,3.7s20.7-1.3,30.5-3.7c27.1-6.7,50.8-22.1,67.9-43
			c17.9-21.9,28.6-49.8,28.6-80.3c0-70.2-56.9-127-127-127s-127,56.9-127,127c0,30.5,10.7,58.4,28.6,80.3
			C300.9,158.8,324.5,174.1,351.6,180.8z M344.1-15.3l40-21.4c0.4-0.2,0.9-0.4,1.4-0.4h21.1c1.7,0,3.1,1.4,3.1,3.1v145.3v24.3V149
			c0,1.7-1.4,3.1-3.1,3.1h-23.9c-1.7,0-3.1-1.4-3.1-3.1v-24.4v-2.3V-6.1L351.7,9c-0.8,0.4-1.8,0.5-2.7,0.1c-0.9-0.4-1.5-1.1-1.7-2.1
			l-4.8-18.9C342.2-13.2,342.8-14.6,344.1-15.3z"/>
	</g>
</g>
</svg>
