<?xml version="1.0" encoding="utf-8"?>
<!-- Generator: Adobe Illustrator 19.0.0, SVG Export Plug-In . SVG Version: 6.00 Build 0)  -->
<svg version="1.1" id="Capa_1" xmlns="http://www.w3.org/2000/svg" xmlns:xlink="http://www.w3.org/1999/xlink" x="0px" y="0px"
	 viewBox="3 -4 307 307" style="enable-background:new 3 -4 307 307;" xml:space="preserve">
<style type="text/css">
	.st0{fill:#EE3C68;}
</style>
<g>
	<path class="st0" d="M233.9,141c-3.4-4.8-4.9-10.8-3.8-16.8l2.1-12l-8.7-8.5c-0.1-0.1-0.3-0.3-0.4-0.4
		c-66.8,55.7-74.4,145.1-73.7,188.9c0,1.6,1.3,2.9,2.8,3.1c1.6,0.1,3-0.9,3.4-2.5C173.9,203,208.8,160.6,233.9,141z"/>
	<path class="st0" d="M102.9,81l-20.2,4.5L75,104.7c-0.1,0.3-0.3,0.7-0.5,1c31.5,44.5,47.9,135.4,54.4,181.2
		c0.2,1.1,1.1,1.8,2.2,1.8s1.9-1,1.9-2.1c0.8-98.7-14.3-164.6-29.6-205.8C103.3,80.9,103.1,81,102.9,81z"/>
	<path class="st0" d="M240.7,240.9l-2.9-3.9c-2.3-3.2-3.7-6.8-4.1-10.5c-22,5.9-55.1,20.9-65.6,58.8c-0.6,2,0.4,4.2,2.4,5.1
		c1.9,0.9,4.2,0.3,5.4-1.5c11.5-16.7,32.3-38.8,63.2-43.3c0,0,0-0.1,0-0.1L240.7,240.9z"/>
	<path class="st0" d="M83.5,202.6c-2,2.8-4.7,5.2-7.9,6.9l-4.3,2.2l-0.6,4.8c-0.2,1.5-0.5,2.9-0.9,4.2
		c18.5,20.9,32.1,49.5,40.3,70.1c0.6,1.4,2.1,2.1,3.5,1.7c1.4-0.4,2.3-1.8,2.1-3.3C108.3,246.2,95.6,219.3,83.5,202.6z"/>
	<path class="st0" d="M253.6,105.2l-3.8,22.4c-0.2,0.9,0.2,1.8,0.9,2.3c0.4,0.3,0.9,0.5,1.4,0.5c0.4,0,0.8-0.1,1.1-0.3l20.1-10.6
		l20.1,10.6c0.3,0.2,0.7,0.3,1.1,0.3c0.5,0,1-0.2,1.4-0.5c0.7-0.5,1.1-1.4,0.9-2.3l-3.8-22.4l16.3-15.9c0.6-0.6,0.9-1.6,0.6-2.4
		s-1-1.5-1.9-1.6L285.5,82l-10-20.4c-0.4-0.8-1.2-1.3-2.1-1.3c-0.9,0-1.7,0.5-2.1,1.3l-10,20.4l-22.5,3.3c-0.9,0.1-1.6,0.8-1.9,1.6
		s0,1.8,0.6,2.4L253.6,105.2z"/>
	<path class="st0" d="M98.5,61.5c0.9-0.2,1.6-0.9,1.8-1.8c0.2-0.9-0.1-1.8-0.8-2.4l-23.9-20l2.9-31c0.1-0.9-0.3-1.8-1.1-2.2
		c-0.4-0.2-0.8-0.4-1.2-0.4c-0.4,0-0.9,0.1-1.3,0.4L48.5,20.7L19.9,8.3c-0.3-0.1-0.6-0.2-0.9-0.2c-0.6,0-1.1,0.2-1.5,0.6
		c-0.7,0.6-1,1.5-0.8,2.4l7.6,30.2L3.6,64.7c-0.6,0.7-0.8,1.6-0.4,2.5c0.3,0.8,1.1,1.4,2,1.5l31.1,2.1l15.9,26.8
		c0.4,0.7,1.2,1.2,2,1.2c0.1,0,0.1,0,0.2,0c0.9-0.1,1.7-0.6,2-1.5l11.6-28.9L98.5,61.5z"/>
	<path class="st0" d="M305.3,231.5c-0.1-0.9-0.8-1.6-1.6-1.9l-14.6-4.7l-4.4-14.7c-0.3-0.9-1-1.5-1.9-1.7c-0.1,0-0.3,0-0.4,0
		c-0.8,0-1.5,0.4-1.9,1l-9,12.4l-15.4-0.4c0,0,0,0-0.1,0c-0.9,0-1.7,0.5-2.1,1.3c-0.4,0.8-0.4,1.8,0.2,2.5l9,12.4l-5.1,14.5
		c-0.3,0.9-0.1,1.8,0.5,2.4c0.5,0.5,1.1,0.7,1.7,0.7c0.2,0,0.5,0,0.7-0.1l14.6-4.8l12.2,9.3c0.4,0.3,0.9,0.5,1.4,0.5
		c0.4,0,0.7-0.1,1.1-0.2c0.8-0.4,1.3-1.2,1.3-2.1l0-15.4l12.7-8.7C305,233.3,305.4,232.4,305.3,231.5z"/>
	<path class="st0" d="M66.3,191.7c0.8-0.4,1.3-1.3,1.3-2.2c0-0.9-0.5-1.7-1.4-2.1l-13.9-6.5l-2.5-15.2c-0.1-0.9-0.8-1.6-1.7-1.9
		c-0.2-0.1-0.5-0.1-0.7-0.1c-0.6,0-1.3,0.3-1.7,0.8l-10.5,11.2L20,173.5c-0.1,0-0.2,0-0.4,0c-0.8,0-1.5,0.4-1.9,1
		c-0.5,0.7-0.6,1.7-0.1,2.5l7.4,13.5l-6.9,13.8c-0.4,0.8-0.3,1.8,0.2,2.5c0.5,0.6,1.2,0.9,1.9,0.9c0.1,0,0.3,0,0.5,0l15.1-2.9
		l11,10.8c0.5,0.4,1.1,0.7,1.7,0.7c0.3,0,0.5,0,0.8-0.1c0.9-0.3,1.5-1.1,1.6-1.9l1.9-15.3L66.3,191.7z"/>
	<path class="st0" d="M167.2,63l-1.8-4.5l-4.7-1c-3.5-0.8-6.7-2.3-9.4-4.5c-7.7,20.4-13,51.8-7.4,99.2c0.3,2.5,4,2.5,4.3,0
		c2.1-22,7.5-57.5,21.2-85.3C168.5,65.7,167.8,64.4,167.2,63z"/>
	<path class="st0" d="M174,8.6l1.6,15.3l-11.7,9.9c-0.7,0.6-1,1.5-0.8,2.4c0.2,0.9,0.9,1.6,1.8,1.7l15,3.2l5.8,14.2
		c0.3,0.8,1.1,1.4,2,1.5c0.1,0,0.1,0,0.2,0c0.8,0,1.6-0.4,2.1-1.2l7.7-13.3l15.3-1.2c0.9-0.1,1.7-0.6,2-1.5s0.2-1.8-0.4-2.5
		l-10.2-11.5L208,11c0.2-0.9-0.1-1.8-0.8-2.4c-0.4-0.4-1-0.6-1.5-0.6c-0.3,0-0.6,0.1-1,0.2l-14.1,6.2l-13.1-8.1
		c-0.4-0.2-0.8-0.4-1.2-0.4c-0.4,0-0.9,0.1-1.3,0.4C174.3,6.8,173.9,7.7,174,8.6z"/>
</g>
</svg>
