<?xml version="1.0" encoding="utf-8"?>
<!-- Generator: Adobe Illustrator 19.0.0, SVG Export Plug-In . SVG Version: 6.00 Build 0)  -->
<svg version="1.1" id="Capa_1" xmlns="http://www.w3.org/2000/svg" xmlns:xlink="http://www.w3.org/1999/xlink" x="0px" y="0px"
	 viewBox="95 -95 490 490" style="enable-background:new 95 -95 490 490;" xml:space="preserve">
<style type="text/css">
	.st0{fill:#EE3C68;}
</style>
<g>
	<path class="st0" d="M511,140.2l0,55.2h0c0.2,10,10,18.1,21.9,18.1c12,0,21.7-8.1,21.9-18.1h0l0-55.2C554.7,130.1,545,122,533,122
		C520.9,122,511.2,130.1,511,140.2z"/>
	<path class="st0" d="M321.1,288.3c-2.2-3.7-7-4.9-10.7-2.7c-3.7,2.2-4.9,7-2.7,10.7c5.5,9.2,18.2,15.1,32.2,15.1
		s26.7-5.9,32.2-15.1c2.2-3.7,1-8.5-2.7-10.7c-3.7-2.2-8.5-1-10.7,2.7c-2.2,3.6-9,7.5-18.9,7.5C330.2,295.9,323.3,291.9,321.1,288.3
		z"/>
	<circle class="st0" cx="279.8" cy="222.5" r="15.7"/>
	<circle class="st0" cx="400.2" cy="222.5" r="15.7"/>
	<path class="st0" d="M409.8,353.2c-44.1,20.8-95.5,20.8-139.6,0c-12.4,10.2-22.6,23.1-29.6,37.8h198.7
		C432.4,376.3,422.2,363.4,409.8,353.2z"/>
	<g>
		<path class="st0" d="M585-8.3c0-7.5-6.3-14.1-15.6-17.7L351.3-89.9C347.8-90.6,344-91,340-91c-4,0-7.8,0.4-11.3,1.1L110.6-26.1
			C101.3-22.4,95-15.8,95-8.3c0,7.7,6.7,14.5,16.5,18.1L327.9,73c3.7,0.8,7.8,1.3,12.1,1.3c4.3,0,8.4-0.5,12.2-1.3L568.5,9.7
			C578.3,6.2,585-0.6,585-8.3z"/>
		<path class="st0" d="M523,43.9v59.2c3.2-0.7,6.6-1.1,10-1.1c3.4,0,6.8,0.4,10,1.1V38L523,43.9z"/>
		<path class="st0" d="M483,245.3c3.7-12.9,5.6-26.6,5.6-40.7c0-19.3-3.7-37.7-10.3-54.6l6.7-2V62.9V55L357.8,92.2l-0.6,0.2
			l-0.6,0.1c-5.3,1.2-10.9,1.8-16.6,1.8c-5.7,0-11.3-0.6-16.6-1.8l-0.6-0.1l-0.6-0.2L195,55v7.9v84.9l0.8,0.2l6,1.8
			c-6.7,16.9-10.4,35.4-10.4,54.8c0,14.1,2,27.8,5.6,40.7c-8.7,28.7-25.3,54.9-48.1,75.1c38.1,20.9,81.2,25.3,120.7,15.1
			c20.9,11.3,44.9,17.7,70.4,17.7s49.4-6.4,70.4-17.7c39.5,10.1,82.7,5.7,120.7-15.1C508.3,300.1,491.7,274,483,245.3z M340,337.6
			c-73.4,0-133-59.5-133-133c0-17.8,3.5-34.8,9.9-50.4l111,32.5c3.7,0.8,7.8,1.3,12.1,1.3c4.3,0,8.4-0.5,12.2-1.3l111-32.3
			c6.3,15.5,9.8,32.4,9.8,50.2C473,278,413.4,337.6,340,337.6z"/>
	</g>
</g>
</svg>
