<?xml version="1.0" encoding="utf-8"?>
<!-- Generator: Adobe Illustrator 19.0.0, SVG Export Plug-In . SVG Version: 6.00 Build 0)  -->
<svg version="1.1" id="Capa_1" xmlns="http://www.w3.org/2000/svg" xmlns:xlink="http://www.w3.org/1999/xlink" x="0px" y="0px"
	 viewBox="4 -3 307 307" style="enable-background:new 4 -3 307 307;" xml:space="preserve">
<style type="text/css">
	.st0{fill:#E83D69;}
	.st1{fill:none;stroke:#E83D69;stroke-width:11.0535;stroke-miterlimit:10;}
</style>
<g id="XMLID_11_">
	<path id="XMLID_250_" class="st0" d="M134.6,179.8c0,4.7,0,9.4,0,14.1c-0.3,0-0.5,0-0.8,0c-11.4,0-22.8,0.1-34.2,0
		c-14.9-0.1-26.7-6.4-35.2-18.5c-4.4-6.2-6.7-13.2-7.2-20.8c-0.7-10.8,2.3-20.4,8.8-28.9c3.2-4.2,7.2-7.6,11.8-10.4
		c0.2-0.1,0.5-0.5,0.5-0.8c0.6-8,4.1-14.6,10.2-19.8c4.1-3.4,8.8-5.5,14.1-6.1c1.8-0.2,3.6-0.2,5.5-0.3c0.3,0,0.6-0.2,0.8-0.4
		c4.3-4.7,9.2-8.7,14.7-12c6.1-3.6,12.6-6.1,19.6-7.5c13.2-2.6,26-1.3,38.3,4.2c12.4,5.5,22,14.3,29,26c2,3.3,3.6,6.8,4.9,10.4
		c0.1,0.4,0.3,0.6,0.8,0.6c11.5,1.2,21,6.2,28.5,15c4.9,5.8,8.1,12.6,9.2,20.2c1.9,12.5-1,23.8-9,33.7c-6.7,8.2-15.4,13.2-25.8,14.9
		c-2.3,0.4-4.6,0.6-6.9,0.6c-11.5,0.1-23.1,0-34.6,0c-0.2,0-0.3,0-0.5,0c0-4.7,0-9.3,0-14.1c0.3,0,0.5,0,0.8,0c11.4,0,22.7,0,34.1,0
		c7.1,0,13.5-2.3,18.8-7c5.7-5,8.9-11.3,9.5-18.9c1.1-13.8-7.5-25.9-20.8-29.5c-3.3-0.9-6.6-1.2-10-0.6c-1.4,0.2-2.7,0.3-4.2,0.5
		c-0.6-2.1-1.2-4.2-1.7-6.3c-3.5-12.7-10.7-22.5-21.9-29.5c-5.7-3.6-11.9-5.8-18.5-6.8c-8.1-1.2-16.1-0.4-23.8,2.3
		c-7.4,2.7-13.9,6.9-19.2,12.6c-1.9,2.1-3.7,4.3-5.5,6.4c-0.3,0.3-0.5,0.4-0.9,0.3c-1.8-0.4-3.6-0.8-5.5-1
		c-5.7-0.6-10.2,1.6-13.5,6.3c-2.1,3.2-2.7,6.7-2,10.4c0.2,1.2,0.3,2.4,0.5,3.6c0.1,0.4-0.1,0.6-0.4,0.8c-2.3,1.1-4.6,2-6.7,3.2
		c-8.1,4.5-13,11.3-14.4,20.5c-1.8,11.5,3.5,22.6,13.5,28.5c4.5,2.7,9.4,3.9,14.6,3.9c11.4,0,22.7,0,34.1,0
		C134,179.8,134.3,179.8,134.6,179.8z"/>
	<path id="XMLID_249_" class="st0" d="M155.7,236c-9.3-9.3-18.6-18.6-28-28c6.9,0,13.9,0,20.9,0c0-18.8,0-37.6,0-56.3
		c4.7,0,9.4,0,14.1,0c0,18.7,0,37.5,0,56.3c7,0,14,0,20.9,0C174.3,217.4,165,226.7,155.7,236z"/>
</g>
<path id="XMLID_13_" class="st1" d="M280,285H35c-6.6,0-12-5.4-12-12V28c0-6.6,5.4-12,12-12h245c6.6,0,12,5.4,12,12v245
	C292,279.6,286.6,285,280,285z"/>
</svg>
