<?xml version="1.0" encoding="utf-8"?>
<!-- Generator: Adobe Illustrator 19.0.0, SVG Export Plug-In . SVG Version: 6.00 Build 0)  -->
<svg version="1.1" id="Capa_1" xmlns="http://www.w3.org/2000/svg" xmlns:xlink="http://www.w3.org/1999/xlink" x="0px" y="0px"
	 viewBox="-352 178.7 485.2 485.2" style="enable-background:new -352 178.7 485.2 485.2;" xml:space="preserve">
<style type="text/css">
	.st0{fill:#FFFFFF;}
</style>
<g>
	<path class="st0" d="M-291.3,254.5v-60.7c0-8.4,6.8-15.2,15.2-15.2c8.4,0,15.2,6.8,15.2,15.2v60.7c0,8.4-6.8,15.2-15.2,15.2
		C-284.6,269.7-291.3,262.9-291.3,254.5z M-33.6,269.7c8.4,0,15.2-6.8,15.2-15.2v-60.7c0-8.4-6.8-15.2-15.2-15.2
		c-8.4,0-15.2,6.8-15.2,15.2v60.7C-48.7,262.9-42,269.7-33.6,269.7z M133.2,542.6c0,67-54.3,121.3-121.3,121.3
		c-67,0-121.3-54.3-121.3-121.3c0-67,54.3-121.3,121.3-121.3C78.9,421.3,133.2,475.6,133.2,542.6z M102.9,542.6
		c0-50.2-40.8-91-91-91c-50.2,0-91,40.8-91,91c0,50.2,40.8,91,91,91C62.1,633.6,102.9,592.8,102.9,542.6z M-230.7,360.6h-60.7v60.7
		h60.7V360.6z M-291.3,512.3h60.7v-60.7h-60.7V512.3z M-200.4,421.3h60.7v-60.7h-60.7V421.3z M-200.4,512.3h60.7v-60.7h-60.7V512.3z
		 M-321.7,539.6V330.3H11.9V391h30.3V272.7c0-18.4-14.7-33.3-32.8-33.3H-3.3v15.2c0,16.7-13.6,30.3-30.3,30.3
		c-16.7,0-30.3-13.6-30.3-30.3v-15.2h-182v15.2c0,16.7-13.6,30.3-30.3,30.3c-16.7,0-30.3-13.6-30.3-30.3v-15.2h-12.6
		c-18.2,0-32.9,14.9-32.9,33.3v266.9c0,18.4,14.7,33.3,32.9,33.3h179.4v-30.3h-179.4C-320.5,542.6-321.7,541.2-321.7,539.6z
		 M-48.7,421.3v-60.7h-60.6v60.7H-48.7z M57.4,542.6H11.9v-45.5c0-8.4-6.8-15.2-15.2-15.2s-15.2,6.8-15.2,15.2v60.7
		c0,8.4,6.8,15.2,15.2,15.2h60.7c8.4,0,15.2-6.8,15.2-15.2C72.6,549.4,65.8,542.6,57.4,542.6z"/>
</g>
</svg>
