<?xml version="1.0" encoding="utf-8"?>
<!-- Generator: Adobe Illustrator 19.0.0, SVG Export Plug-In . SVG Version: 6.00 Build 0)  -->
<svg version="1.1" id="Capa_1" xmlns="http://www.w3.org/2000/svg" xmlns:xlink="http://www.w3.org/1999/xlink" x="0px" y="0px"
	 viewBox="-170 387.6 253.9 66.3" style="enable-background:new -170 387.6 253.9 66.3;" xml:space="preserve">
<style type="text/css">
	.st0{fill:#FFFFFF;}
</style>
<g id="hBoCZF.tif">
	<g id="XMLID_5_">
		<path id="XMLID_106_" class="st0" d="M-144.3,443.6c-6.5-5-10.9-11.3-12.7-19.4c-0.1-0.6-0.1-1.3-0.5-1.8c0-2.5,0-5,0-7.5
			c0.5-0.8,0.4-1.7,0.6-2.6c0.9-4.4,2.1-8.6,4.5-12.4c0.7-0.5,1.2-0.2,1.6,0.5c0.2,0.4,0.4,0.8,0.5,1.2c2.2,6.5,4.5,13,6.6,19.5
			c0.2,0.8,0.5,0.8,1.1,0.5c0.2,0,0.3,0.1,0.4,0.2c0.6,1.5,0.4,3,0.2,4.6c-0.1,1-0.4,2.1-0.2,3.1c0.2,2.8-0.4,5.6-0.4,8.3
			c-0.5,1.4-0.6,2.9-0.8,4.3C-143.3,442.8-143.4,443.5-144.3,443.6z"/>
		<path id="XMLID_103_" class="st0" d="M-100.8,432.7c0,1.7,0.1,3.3,0,4.8c-0.1,1.3,0.4,2,1.7,2.2c0.6,0.1,1.4,0.1,1.3,1.1
			c-0.1,1-0.9,0.7-1.5,0.7c-2.4,0-4.8,0-7.2,0c-0.5,0-1,0.1-1.1-0.7c0-0.7,0.3-1,0.9-1.1c1.7-0.1,2.2-1,2.1-2.6
			c-0.1-2.6,0-5.2,0-7.8c-0.1-1.8-0.7-3.3-2.5-4c-1.6-0.6-4.6,0.1-5.7,1.4c-0.4,0.4-0.4,0.9-0.4,1.4c0,3.1,0.1,6.3,0,9.4
			c0,1.3,0.5,2.1,1.9,2.2c0.6,0,1,0.2,1,1c0,0.8-0.6,0.8-1.1,0.8c-2.5,0-5.1,0-7.6,0c-0.5,0-1,0-1.1-0.7c0-0.6,0.3-0.9,0.9-1
			c2.2-0.6,2.3-0.6,2.3-2.9c0.1-2.9,0-5.9,0.1-8.8c0-1.3-0.5-2.1-1.7-2.5c-0.4-0.1-0.7-0.3-1.1-0.4c-0.3-0.1-0.7-0.2-0.7-0.7
			c0.1-0.4,0.4-0.5,0.8-0.6c1.9-0.3,3.7-0.7,5.5-1.4c0.7-0.3,0.9,0,0.9,0.7c0,0.2-0.1,0.5-0.1,0.7c0,0.4-0.3,0.8,0.2,1.1
			c0.4,0.2,0.6-0.2,0.9-0.4c1-0.7,2-1.3,3.1-1.7c2.9-1.2,5-0.7,6.9,1.8c0.6,0.7,0.9,0.6,1.5,0.2c1-0.8,2.2-1.4,3.4-1.9
			c4-1.6,7.6,0.3,8.4,4.5c0.6,3,0.2,6,0.3,9c0,2.6,0,2.7,2.5,3.5c0.6,0.2,0.7,0.5,0.6,1c0,0.6-0.3,0.8-0.9,0.8c-2.6,0-5.3,0-7.9,0
			c-0.4,0-0.8-0.1-0.8-0.6c0-0.5,0-1,0.6-1c2.1-0.2,2.2-1.6,2.1-3.2c-0.1-2.2,0-4.4,0-6.6c0-1.9-0.6-3.6-2.5-4.4
			c-2-0.8-3.9-0.2-5.7,1c-0.4,0.2-0.5,0.6-0.4,1C-100.7,429.4-100.9,431.1-100.8,432.7z"/>
		<path id="XMLID_101_" class="st0" d="M-51.4,425.1c1-0.6,1.9-1.3,2.9-1.8c4.8-2.6,9.2-0.1,9.5,5.3c0.1,2.9,0.2,5.9,0.1,8.8
			c0,1.5,0.6,2.1,1.9,2.3c0.7,0.1,1.3,0.2,1.2,1.1c-0.1,1-0.7,1-1.5,0.9c-2.4-0.2-4.9-0.2-7.3,0c-0.7,0.1-1.2-0.1-1.2-0.9
			c0-0.7,0.2-1.1,1-1.1c1.4,0,1.9-0.9,1.8-2.2c-0.1-2.8,0.1-5.7-0.2-8.5c-0.2-1.7-1-2.9-2.7-3.4c-2-0.6-3.8,0-5.3,1.3
			c-0.4,0.4-0.5,1-0.5,1.5c0,3.1,0.1,6.3,0.1,9.4c0,1.2,0.6,1.8,1.8,1.9c0.8,0,1.2,0.2,1.2,1.1c-0.1,0.9-0.7,0.9-1.4,0.9
			c-2.5-0.2-5-0.2-7.5,0c-0.6,0-1.1,0.1-1.2-0.7c0-0.7,0.1-1.3,1-1.3c1.3-0.1,1.8-0.8,1.9-2.2c0.1-3.1,0.1-6.2,0.1-9.3
			c0-1.3-0.4-2.1-1.6-2.5c-0.4-0.1-0.7-0.3-1.1-0.4c-0.4-0.1-0.8-0.3-0.7-0.8c0.1-0.4,0.4-0.6,0.7-0.7c2-0.4,4-0.8,5.9-1.5
			c0.7-0.2,0.8,0.2,0.8,0.7C-51.5,423.7-51.8,424.4-51.4,425.1z"/>
		<path id="XMLID_100_" class="st0" d="M-142.8,421.7c0,0.8,0,1.7,0,2.7c-0.9-0.5-0.9-1.2-1.1-1.8c-2.4-7-4.7-14-7.1-21
			c-0.3-0.7-0.4-1.6-1.3-1.8c1.6-3,3.7-5.6,6.3-7.9c1.1-1,2.2-2,2.6-3.5c0.6,0.3,0.6,0.8,0.7,1.2c0.4,2.1,0.6,4.3,0.6,6.4
			c0.2,3.6,0.1,7.1,0.1,10.7c0,3.7,0.2,7.3-0.1,11c0,0.5,0,1,0.1,1.5C-141.9,420.3-142,421.1-142.8,421.7z"/>
		<path id="XMLID_97_" class="st0" d="M-142.8,421.7c0-5,0-10,0-15c0.5-0.7,1.2-0.8,2-0.9c2.2-0.4,4.4-0.7,6.6-1.1
			c0.8-0.1,1.5,0,2.2,0.5c1.4,3.4,2.7,6.8,2.8,10.5c-3.8,1-7.8,1.2-10.9,1.9c2.7-0.5,6.3-1,9.9-1.6c0.3-0.1,0.7-0.3,1,0
			c0.4,2,0.4,4.1,0,6.1c-0.9-0.3-0.7-1.1-0.8-1.7c-0.3-1.8-0.6-2.1-2.4-1.8c-2.3,0.4-4.6,0.7-6.9,1.1c-1.2,0.2-2.2,0.5-2.6,1.8
			c-0.1,0.2-0.3,0.3-0.5,0.3C-142.6,421.7-142.7,421.7-142.8,421.7z"/>
		<path id="XMLID_96_" class="st0" d="M-142.5,421.7c0-2.4,0-2.4,2.3-2.7c3.1-0.5,6.2-1,9.3-1.5c1-0.2,1.6-0.2,1.4,1.2
			c-0.1,1.1,0.1,2.3,0.2,3.4c0,1.8-0.3,3.6-1,5.3c-1.4,1.1-3.1,1.1-4.7,1.3c-2.1,0.4-4.2,0.7-6.3,1c-0.5,0.1-1.1,0.2-1.5-0.3
			C-142.9,426.9-142.3,424.4-142.5,421.7z"/>
		<path id="XMLID_95_" class="st0" d="M-142.7,429.5c4.1-1.1,8.3-1.7,12.6-2.1c-1.5,5.9-4.9,10.7-9.4,14.7c-0.4,0.4-0.9,0.6-1.3,0.9
			c-0.7,0.1-1.1-0.2-1.3-0.8c-1.1-1.3-0.7-2.8-0.8-4.3C-143,435.2-142.9,432.4-142.7,429.5z"/>
		<path id="XMLID_94_" class="st0" d="M-132.1,405.3c-3,0.2-5.9,0.9-8.8,1.3c-0.6,0.1-1.3,0.1-1.9,0.2c0-3.6,0-7.2,0-10.8
			c1.2-1.4,2.6-1.4,4.2-0.9C-135.7,398-133.6,401.5-132.1,405.3z"/>
		<path id="XMLID_93_" class="st0" d="M-138.6,395.1c-1.4,0.3-2.8,0.6-4.2,0.9c-0.3-2.1-0.6-4.2,0-6.3
			C-141.8,391.8-140,393.3-138.6,395.1z"/>
		<path id="XMLID_92_" class="st0" d="M-141.9,442.1c0.3,0.3,0.6,0.6,0.9,0.9c-0.6,1.1-1,2.3-0.9,3.6c-0.3,0.4-0.3,0.8-0.4,1.2
			c-0.1,0.4-0.3,0.6-0.7,0.6c-0.5,0.1-0.4-0.5-0.6-0.7c-0.1-0.8-0.2-1.6-0.3-2.4c0.5-0.8,0.2-1.7,0.6-2.5
			C-143.1,442.2-142.8,441.6-141.9,442.1z"/>
		<path id="XMLID_91_" class="st0" d="M-141.9,442.1c-0.8,0.3-0.9,1-1.1,1.7c-0.2,0.6-0.4,1.2-1,1.6c-0.1-0.6-0.2-1.2-0.3-1.8
			c0.4-1.9,0.8-3.7,1.2-5.6C-142.7,439.4-142.3,440.8-141.9,442.1z"/>
		<path id="XMLID_90_" class="st0" d="M-143.7,447.8c0.3,0.3,0.7,0.4,0.9-0.1c0.2-0.4,0.5-0.8,0.9-1.1c0,1.1,0,2.2,0,3.3
			c0,0.4,0,1-0.6,1.1c-0.7,0.1-0.8-0.4-0.9-0.9C-143.6,449.3-143.7,448.6-143.7,447.8z"/>
		<path id="XMLID_89_" class="st0" d="M-129.2,416c-4,0.7-8.1,1.4-12.1,2c0-0.1,0-0.3-0.1-0.4c4-0.8,8.1-1.5,12.2-1.9
			C-129.2,415.8-129.2,415.9-129.2,416z"/>
		<path id="XMLID_11_" class="st0" d="M39.1,415.9c-3-2.5-6.5-3.3-10.3-3.5c-4.4-0.2-8.9,0.6-13.3,0c-0.9-0.1-1.7,0.2-1.8,1.2
			c-0.1,1.1,0.9,0.8,1.5,0.9c2.3,0.4,2.8,1,2.8,3.3c0,3,0,6,0,9c0,0,0,0,0,0c0,3.1,0,6.2,0,9.3c0,2.3-0.3,2.6-2.5,3.4
			c-0.7,0.2-1.2,0.7-1.1,1.4c0.1,0.8,0.8,0.6,1.3,0.6c3.9,0,7.8,0.1,11.7,0c2.2,0,4.4-0.4,6.5-1.2C46,435.9,45.5,421.2,39.1,415.9z
			 M35.8,436c-3,3.5-7.7,3.9-11.4,2.6c-1-0.4-1.6-1.2-1.6-2.3c0-0.5-0.2-1-0.2-1.5c0-2.9,0-5.9,0-8.8c0,0,0,0,0,0c0-2.8,0-5.6,0-8.4
			c0-2.7,0.4-3.1,3.1-3c3.6,0.1,6.9,0.8,9.6,3.5c2.7,2.6,3.4,6,3.4,9.5C38.5,430.6,37.9,433.6,35.8,436z"/>
		<path id="XMLID_15_" class="st0" d="M66.1,425.6c-1.3-0.5-0.7-0.8,0-1.3c2.1-1.5,3.4-3.5,3-6.2c-0.5-2.9-2.5-4.4-5.2-5.1
			c-1.5-0.3-3-0.6-4.5-0.5c-3.6,0.2-7.3,0.3-10.9,0c-0.8-0.1-1.4,0.2-1.5,1c-0.1,0.9,0.7,0.8,1.2,1c2.5,0.5,2.8,0.8,2.8,3.3
			c0,5.6,0,11.3,0,16.9c0,1.2,0.1,2.6-0.5,3.7c-0.5,1-1.7,0.8-2.7,1.1c-0.6,0.2-0.9,0.7-0.9,1.3c0,0.7,0.6,0.7,1.1,0.7c2,0,4,0,6,0
			c0,0,0,0,0,0.1c1.6,0,3.3,0,4.9,0c2.4,0,4.8-0.5,7-1.5c3.2-1.5,5.4-3.8,5.5-7.6C71.4,428.8,69.3,426.8,66.1,425.6z M55.4,419.9
			C55.5,419.9,55.5,419.9,55.4,419.9c0-1.2,0.1-2.4,0-3.6c0-1.2,0.6-1.7,1.7-1.6c1,0,2.1,0.1,3.1,0.3c3.3,0.7,5,3.5,4.1,6.8
			c-0.5,1.8-1.7,2.8-3.5,2.9c-1.3,0.1-2.6,0-3.9,0c-1,0-1.5-0.4-1.4-1.4C55.5,422.2,55.4,421.1,55.4,419.9z M66.4,434.4
			c-0.6,3.4-3.1,5.3-6.7,5c-0.5,0-1.1-0.1-1.6-0.2c-1.6-0.2-2.5-1.2-2.6-2.8c-0.1-1.4,0-2.8,0-4.2c0,0,0,0,0,0c0-1.3,0-2.6,0-3.9
			c0-1,0.4-1.4,1.4-1.4c1.7,0,3.3,0.1,4.9,0.5C65.1,428.3,67,431.1,66.4,434.4z"/>
		<path id="XMLID_22_" class="st0" d="M-17.5,439.3c-2.3-0.2-4.6-0.4-6.8-0.7c-0.8-0.1-1.6-0.4-1.6-1.3c0-1,0.8-1.2,1.7-1.3
			c5.5-0.6,9-4,8-9.3c-0.1-0.6,0.1-0.7,0.7-0.7c2.3,0.1,3.2-0.9,2.8-3.3c-2.2,1.3-4.4,0.9-6.6,0.1c-2.4-0.9-4.8-0.8-7.2,0.1
			c-2.6,1-4.6,2.6-4.9,5.6c-0.3,3.1,0.6,5.6,3.7,7c0.7,0.3,0.6,0.7,0.1,1c-0.6,0.4-1.2,0.8-1.9,1.2c-1.1,0.5-1,1.2-0.5,2.1
			c0.5,1,1.5,1.4,2.5,2c-1.1,0.8-2.1,1.6-3,2.4c-2.1,1.8-2.3,3.7-0.6,5.9c0.8,1,1.8,1.7,3,2.2c1.8,0.8,3.8,0.7,5.6,0.5
			c3.9-0.4,7.1-2.2,9-5.7C-11.6,443.1-14.1,439.6-17.5,439.3z M-27.6,430.4c-0.2-1-0.4-2-0.2-3.1c0.4-1.8,1.4-3,2.9-3.2
			c1.9-0.3,3.6,0.6,4.4,2.3c0.4,1,0.6,2,0.6,2.8c0,2.8-1.1,4.5-2.9,4.8C-25.1,434.4-27,433-27.6,430.4z M-17.9,449.3
			c-2.2,1.8-7,1.8-9.3,0c-1.2-1-1.9-2.2-1.5-3.8c0.3-1.4,2.1-2.9,3.6-3.1c0.6-0.1,1.3,0,1.9,0c1.4,0,2.8,0.1,4.1,0.5
			c1.3,0.4,2.4,1,2.6,2.5C-16.2,447-16.7,448.3-17.9,449.3z"/>
		<path id="XMLID_18_" class="st0" d="M1.2,422.3c-6.1-0.1-10.7,3.9-10.8,9.4c-0.1,6.1,3.5,10.1,9.3,10.2c4.7,0,10.2-2.9,10.3-10.1
			C10.1,426.3,6.4,422.4,1.2,422.3z M5.6,435.8c-0.3,1.8-1.1,3.3-2.9,3.8c-2,0.6-3.9,0.1-5.4-1.3c-2.6-2.5-3.5-8.4-1.8-11.6
			c1.5-2.7,5-3.2,7.6-1c2.3,2,2.8,4.6,2.8,7.9C5.8,434,5.7,434.9,5.6,435.8z"/>
		<path id="XMLID_25_" class="st0" d="M-71.9,422.3c-6.1,0-10.5,4-10.6,9.7c-0.1,6,3.7,10,9.5,10c5.8,0,10.2-4.5,10.1-10.4
			C-62.8,426.1-66.6,422.3-71.9,422.3z M-67.2,435.3c-0.3,2-1,3.8-3,4.4c-2.2,0.6-4.2,0-5.7-1.7c-2.1-2.5-2.6-5.4-2.3-8.6
			c0.3-3,1.7-4.7,3.8-5c2.5-0.4,4.9,0.9,6.2,3.5c0.9,1.7,1.1,3.5,1.1,5.5C-67,433.9-67.1,434.6-67.2,435.3z"/>
	</g>
</g>
</svg>
