<?xml version="1.0" encoding="utf-8"?>
<!-- Generator: Adobe Illustrator 19.0.0, SVG Export Plug-In . SVG Version: 6.00 Build 0)  -->
<svg version="1.1" id="Capa_1" xmlns="http://www.w3.org/2000/svg" xmlns:xlink="http://www.w3.org/1999/xlink" x="0px" y="0px"
	 viewBox="-170 387.6 253.9 66.3" style="enable-background:new -170 387.6 253.9 66.3;" xml:space="preserve">
<style type="text/css">
	.st0{fill:#FFFFFF;}
</style>
<g id="cFcoPx.tif">
	<g id="XMLID_36_">
		<path id="XMLID_125_" class="st0" d="M-164.1,396.1c0.2,0,0.5,0,0.7,0c8.1,0,16.1,0,24.2,0c8.3,0,16.5,0,24.8,0c0.2,0,0.3,0,0.5,0
			c0,0.1-0.1,0.2-0.2,0.3c-5,5-10,10-15,15c-0.4,0.4-0.8,0.7-1.1,1.1c-0.3,0.3-0.6,0.7-0.9,0.9c-0.5,0.4-0.8,0.8-1.3,1.3
			c-0.8,0.8-1.7,1.6-2.5,2.4c-1,1.1-2,2.1-3.1,3.1c-0.2,0.2-0.5,0.4-0.7,0.6c-0.1,0.1-0.2,0.2,0,0.4c1.1,1.1,2.1,2.2,3.3,3.2
			c0.1,0.1,0.2,0.2,0.2,0.2c7,7,14.1,14.1,21.1,21.1c0.1,0.1,0.2,0.2,0.3,0.4c0.1,0.2,0,0.4-0.2,0.4c-0.1,0-0.2,0-0.3,0
			c-16.5,0-33,0-49.5,0c-0.1,0-0.3,0-0.4,0C-164.1,429.8-164.1,413-164.1,396.1z"/>
		<path id="XMLID_122_" class="st0" d="M-38.8,447.5c-1.8-0.2-3.5-0.7-5.1-1.3c-3.9-1.6-7.1-4-9.5-7.5c-1.6-2.4-2.6-5-3.1-7.9
			c-0.7-4.5,0-8.7,2.1-12.8c1-1.9,2.3-3.5,3.8-5c2.2-2.1,4.8-3.7,7.6-4.7c1.5-0.6,3.1-0.9,4.7-1.1c1.5-0.2,3.1-0.2,4.6-0.1
			c2.8,0.3,5.4,1,7.9,2.2c3.5,1.8,6.4,4.3,8.4,7.7c1.4,2.2,2.2,4.7,2.6,7.3c0.2,1.4,0.3,2.9,0.2,4.3c-0.3,4.1-1.7,7.8-4.2,11
			c-2.9,3.8-6.7,6.1-11.3,7.3c-1,0.3-2,0.4-3.1,0.6c-0.2,0-0.4,0-0.6,0.1c-1.3,0-2.6,0-3.9,0C-38,447.6-38.4,447.5-38.8,447.5z
			 M-45.5,427.2c0,0.8,0,1.5,0.1,2.3c0,0.8,0.2,1.5,0.5,2.2c0.7,1.5,1.6,2.8,2.8,3.8c1.2,1.1,2.6,1.9,4.3,2.2c1.5,0.3,3,0.2,4.5-0.1
			c2.8-0.5,4.8-2,6.2-4.4c1.1-2,1.5-4.1,1.4-6.4c-0.1-1.8-0.6-3.5-1.5-5.1c-1.1-2-2.7-3.5-4.9-4.3c-1.7-0.6-3.4-0.7-5.1-0.6
			c-0.8,0.1-1.5,0.2-2.2,0.5c-2.2,1-3.8,2.5-5,4.5c-0.6,1-1,2.1-1,3.3C-45.5,425.9-45.5,426.6-45.5,427.2z"/>
		<path id="XMLID_121_" class="st0" d="M78,446.8c-0.2,0-0.4,0-0.5,0c-3.3,0-6.7,0-10,0c-0.1,0-0.2,0-0.3,0c-0.2,0-0.3-0.1-0.3-0.3
			c0-0.3,0-0.5,0-0.8c-0.1-5.7-0.1-11.3-0.2-17c0-1.8-0.1-3.6-0.2-5.4c0-0.6-0.1-1.2-0.2-1.8c-0.2-1.2-0.9-2-1.7-2.8
			c-1.5-1.2-3.2-1.7-5-1.5c-1.7,0.2-3.2,0.9-4.3,2.2c-0.6,0.7-1,1.5-1.5,2.3c-0.1,0.2-0.1,0.4-0.1,0.6c0,3.6-0.1,7.3-0.1,10.9
			c0,4.4-0.1,8.7-0.1,13.1c0,0.6,0.1,0.5-0.6,0.5c-3.3,0-6.7,0-10,0c-0.5,0-0.5,0.1-0.5-0.5c0-12.7,0-25.5,0-38.2c0-0.1,0-0.2,0-0.2
			c0-0.2,0.1-0.3,0.3-0.3c0.1,0,0.2,0,0.3,0c3.4,0,6.7,0,10.1,0c0.6,0,0.5,0,0.5,0.6c0,1.3,0,2.6,0,4c0,0.2,0,0.3,0,0.5
			c0.2-0.1,0.3-0.2,0.4-0.3c1-0.9,2-1.9,3-2.8c1.6-1.3,3.5-2.1,5.5-2.5c0.7-0.1,1.5-0.2,2.3-0.2c1.6,0,3.2,0.2,4.7,0.7
			c3.4,1.1,5.8,3.3,7.3,6.6c0.5,1.1,0.9,2.2,1.1,3.4c0.1,0.8,0.2,1.7,0.2,2.6c0,0.6,0,1.3,0,1.9c0,0.1,0,0.1,0.1,0.2
			C78,430.5,78,438.7,78,446.8z"/>
		<path id="XMLID_120_" class="st0" d="M22.9,393.8c0,0.2,0,0.4,0,0.6c0,17.3,0,34.6,0,51.9c0,0.7,0.1,0.6-0.6,0.6
			c-3.3,0-6.6,0-9.9,0c-0.1,0-0.2,0-0.2,0c-0.4,0-0.4,0-0.4-0.4c0-0.1,0-0.2,0-0.3c0-17.3,0-34.6,0-51.9c0-0.2,0-0.4,0-0.6
			C15.5,393.8,19.2,393.8,22.9,393.8z"/>
		<path id="XMLID_119_" class="st0" d="M38.3,393.8c0,0.2,0,0.4,0,0.6c0,3,0,5.9,0,8.9c0,0.1,0,0.2,0,0.3c0,0.2,0,0.3-0.2,0.3
			c-0.1,0-0.2,0-0.3,0c-3.5,0-7,0-10.5,0c-0.1,0-0.2,0-0.3,0c-0.1,0-0.2-0.1-0.2-0.2c0-0.1,0-0.2,0-0.3c0-3,0-6,0-9.1
			c0-0.2,0-0.3,0-0.5C30.6,393.8,34.5,393.8,38.3,393.8z"/>
		<path id="XMLID_118_" class="st0" d="M78,422.4c-0.1,0-0.1-0.1-0.1-0.2c0-0.6-0.1-1.3,0-1.9c0,0,0.1,0,0.1,0
			C78,421,78,421.7,78,422.4z"/>
		<path id="XMLID_117_" class="st0" d="M-38.8,447.5c0.4,0,0.8,0.1,1.2,0.2c-0.2,0-0.5,0-0.7,0C-38.5,447.5-38.7,447.6-38.8,447.5z"
			/>
		<path id="XMLID_116_" class="st0" d="M-33.8,447.7c0.2-0.1,0.4-0.1,0.6-0.1c0,0,0,0.1,0,0.1C-33.4,447.7-33.6,447.7-33.8,447.7z"
			/>
		<path id="XMLID_115_" class="st0" d="M-85.7,417.8c0.2,0,0.2-0.2,0.3-0.3c3.8-4.1,7.7-8.3,11.5-12.4c2.7-3,5.5-5.9,8.2-8.9
			c0.2-0.2,0.3-0.3,0.6-0.3c4.3,0,8.7,0,13,0c0.1,0,0.1,0,0.2,0c0,0,0,0.1,0,0.1c0,0,0,0,0,0c-6.8,7.1-13.7,14.3-20.5,21.4
			c0,0.1,0.1,0.2,0.2,0.3c6.5,8.8,13,17.7,19.5,26.5c0.5,0.7,1,1.4,1.5,2c0.2,0.3,0.2,0.4-0.2,0.4c-0.4,0.1-0.9,0.1-1.3,0.1
			c-3.8,0.1-7.6,0.1-11.3,0.1c-0.3,0-0.5-0.2-0.6-0.4c-3.7-5.1-7.4-10.3-11.2-15.4c-1.4-1.9-2.8-3.9-4.2-5.8c-0.2,0-0.2,0.2-0.3,0.2
			c-1.8,1.8-3.6,3.6-5.4,5.3c-0.2,0.2-0.3,0.5-0.3,0.8c0,4.8,0,9.7,0,14.5c0,0.6,0,0.6-0.7,0.6c-3.3,0-6.7,0-10,0
			c-0.6,0-0.5,0-0.5-0.5c0-16.7,0-33.3,0-50c0,0,0-0.1,0-0.1c0-0.4,0-0.4,0.4-0.4c3.4,0,6.9,0,10.3,0c0.4,0,0.4,0,0.4,0.5
			c0,4,0,7.9,0.1,11.9c0,3.1,0.1,6.1,0.1,9.2C-85.7,417.6-85.8,417.7-85.7,417.8z"/>
		<path id="XMLID_114_" class="st0" d="M8.5,436.1c0,0.6,0,1.1,0,1.6c0,2.4,0,4.8,0,7.3c0,0.6,0.1,0.4-0.5,0.6
			c-1.4,0.5-2.7,1-4.1,1.4c-2.1,0.5-4.1,0.7-6.2,0.4c-1.3-0.2-2.6-0.4-3.8-0.9c-2.8-1.1-4.4-3.3-5.1-6.2c-0.3-1.3-0.3-2.5-0.4-3.8
			c-0.1-2.9-0.1-5.7-0.1-8.6c0-3.3,0-6.6,0-9.8c0-0.1,0-0.1,0-0.2c0-0.3,0-0.3-0.3-0.3c-1.3,0-2.5,0-3.8,0c-0.6,0-0.5,0.1-0.5-0.5
			c0-2.9,0-5.8,0-8.7c0-0.1,0-0.2,0-0.2c0-0.2,0.1-0.3,0.3-0.3c0.1,0,0.2,0,0.3,0c1.2,0,2.5,0,3.7,0c0.5,0,0.4,0,0.4-0.4
			c0-3,0-6,0-9.1c0-0.6,0-0.6,0.6-0.6c2.4,0,4.7,0.1,7.1,0.1c1,0,2,0,3,0.1c0.2,0,0.3,0.1,0.3,0.3c0,0.5,0,1,0,1.5
			c0,2.4,0.1,4.8,0.1,7.2c0,0.8,0,0.8,0.8,0.8c2.5,0,5,0,7.6,0c0.1,0,0.2,0,0.3,0c0.2,0,0.3,0.1,0.3,0.3c0,0.1,0,0.2,0,0.3
			c0,2.9,0,5.8,0,8.6c0,0,0,0.1,0,0.1c0,0.4,0,0.4-0.4,0.4c-2.7,0-5.3,0-8,0c-0.1,0-0.2,0-0.3,0c-0.2,0-0.3,0-0.3,0.3
			c0,0.3,0,0.6,0,0.9c0.1,5.7,0.1,11.5,0.2,17.2c0,0.2,0.1,0.4,0.3,0.6c0.1,0.1,0.2,0.2,0.3,0.3c0.7,0.7,1.6,0.9,2.6,0.9
			c1.3-0.1,2.5-0.2,3.7-0.6c0.3-0.1,0.6-0.2,0.9-0.4C7.9,436.5,8.2,436.3,8.5,436.1z"/>
		<path id="XMLID_113_" class="st0" d="M26.9,427.3c0-6.3-0.1-12.6-0.1-18.9c0-0.6-0.1-0.6,0.6-0.6c3.4,0,6.9,0,10.3,0
			c0.1,0,0.2,0,0.3,0c0.2,0,0.3,0.1,0.3,0.3c0,0.1,0,0.1,0,0.2c0,12.6-0.1,25.3-0.2,37.9c0,0.7,0.1,0.6-0.6,0.6c-3.3,0-6.7,0-10,0
			c0,0-0.1,0-0.1,0c-0.5,0-0.5,0-0.5-0.5C27,440,26.9,433.6,26.9,427.3C26.9,427.3,26.9,427.3,26.9,427.3z"/>
	</g>
</g>
</svg>
