<?xml version="1.0" encoding="utf-8"?>
<!-- Generator: Adobe Illustrator 19.0.0, SVG Export Plug-In . SVG Version: 6.00 Build 0)  -->
<svg version="1.1" id="Capa_1" xmlns="http://www.w3.org/2000/svg" xmlns:xlink="http://www.w3.org/1999/xlink" x="0px" y="0px"
	 viewBox="-170 387.6 253.9 66.3" style="enable-background:new -170 387.6 253.9 66.3;" xml:space="preserve">
<style type="text/css">
	.st0{fill:#FFFFFF;}
</style>
<g id="_x39_dznbl.tif">
	<g id="XMLID_6_">
		<path id="XMLID_70_" class="st0" d="M-112.7,392.6c4.8,0,9.5,0,14.3,0c1.9,0,3.9,0.1,5.7,0.7c4.3,1.4,6.9,4.4,8,8.7
			c0.4,1.5,0.5,3,0.5,4.6c0,9.2,0,18.4,0,27.7c0,2-0.1,4-0.8,5.9c-1.5,4.3-4.6,6.8-9,7.8c-1.1,0.2-2.2,0.4-3.4,0.4
			c-9.6,0-19.2,0-28.9,0c-2.2,0-4.4-0.2-6.4-1.1c-4-1.8-6.2-4.9-7-9.1c-0.2-1.3-0.3-2.6-0.4-4c0-9.2,0-18.4,0-27.6
			c0-2.1,0.1-4.3,0.9-6.3c1.5-3.9,4.3-6.4,8.3-7.4c1.3-0.3,2.7-0.4,4.1-0.4C-122,392.6-117.3,392.6-112.7,392.6z M-134.5,424.9
			c0.1,0.1,0.1,0.2,0.1,0.2c5.1,7.5,12,12,21.1,12.9c2.9,0.3,5.8-0.1,8.5-1.2c1-0.4,2-0.9,3-1.4c1.4-0.6,2.9-0.8,4.4-0.6
			c1.9,0.3,3.2,1.4,4.2,3c0.1,0.2,0.2,0.4,0.4,0.5c0.1,0,0.1,0,0.2,0c0.1-0.3,0.3-0.5,0.3-0.8c0-1,0.1-2,0-3
			c-0.4-2.7-1.5-5.1-3.1-7.2c-0.1-0.2-0.2-0.5-0.2-0.7c0.9-3.3,0.8-6.7-0.1-10c-2-7-6.4-12.2-12.5-16.1c-0.1,0-0.1,0-0.3-0.1
			c0.3,0.4,0.4,0.6,0.6,0.9c3.1,4.7,4.8,9.7,4.2,15.4c-0.1,1.3-0.5,2.6-1,3.9c-7.5-4.8-14.2-10.5-20.6-16.6
			c3.5,5.2,7.4,10.1,11.6,14.7c-5.9-3.8-11.4-8-16.7-12.6c5.8,7.9,12.1,15.3,19.9,21.4c-0.2,0.1-0.4,0.3-0.6,0.4
			c-2.6,1.4-5.4,2-8.3,2c-4.2,0-8.1-1.2-11.8-3.2C-132.3,426.3-133.4,425.6-134.5,424.9z"/>
		<path id="XMLID_69_" class="st0" d="M25.3,448.1c0-9.6,0-19.1,0-28.7c-1.5,0-3,0-4.5,0c0-0.8,0-1.6,0-2.4c1.5,0,3,0,4.5,0
			c0-0.2,0-0.4,0-0.7c0-2.1,0-4.3,0.4-6.3c0.4-1.8,0.9-3.6,2-5.1c1.8-2.4,4.2-3.5,7.1-3.6c1.8-0.1,3.4,0.3,5,1.1
			c-0.3,0.8-0.6,1.6-0.9,2.3c-0.8-0.2-1.5-0.5-2.3-0.6c-1.1-0.2-2.3-0.2-3.4,0.1c-2.3,0.6-3.6,2.1-4.2,4.2c-0.3,1-0.5,2.1-0.5,3.1
			c-0.1,1.7-0.2,3.5-0.2,5.3c4.6,0,9.2,0,13.8,0c0-1.9,0-3.8,0-5.8c1-0.3,2-0.6,3.1-1c0,2.3,0,4.6,0,6.9c2.9,0,5.8,0,8.7,0
			c0,0.8,0,1.6,0,2.4c-2.9,0-5.7,0-8.6,0c0,0.2,0,0.3,0,0.4c0,6.8,0,13.6,0,20.4c0,1.3,0.2,2.5,0.7,3.7c0.5,1.3,1.6,2,2.9,2.1
			c1.4,0.2,2.8,0,4.2-0.4c0.1,0.8,0.3,1.5,0.3,2.2c0,0.1-0.2,0.3-0.3,0.3c-1.4,0.5-2.9,0.7-4.5,0.5c-0.9-0.1-1.7-0.2-2.5-0.5
			c-2-0.8-2.9-2.4-3.4-4.4c-0.4-1.7-0.5-3.4-0.5-5.1c0-6.3,0-12.5,0-18.8c0-0.2,0-0.4,0-0.6c-4.6,0-9.1,0-13.8,0c0,0.2,0,0.4,0,0.6
			c0,9.2,0,18.4,0,27.6c0,0.7,0,0.7-0.7,0.7C26.9,448.1,26.2,448.1,25.3,448.1z"/>
		<path id="XMLID_68_" class="st0" d="M-18.5,420.2c-0.2,0.7-0.3,1.3-0.5,2c-1.3,4-2.6,8-4,12c-1.5,4.5-3.1,8.9-4.7,13.4
			c-0.1,0.4-0.3,0.5-0.7,0.5c-0.5,0-1.1,0-1.7,0c-0.4,0-0.5-0.1-0.6-0.4c-0.9-3.1-1.9-6.2-2.8-9.3c-2.1-6.9-4.2-13.9-6.4-20.8
			c-0.1-0.2-0.1-0.3-0.2-0.5c1,0,2,0,3.1,0c2.6,9.1,5.2,18.2,7.8,27.4c0.1-0.1,0.1-0.2,0.2-0.3c2.2-8.3,5.3-16.3,8-24.4
			c0.3-0.8,0.5-1.6,0.8-2.3c0.1-0.3,0.2-0.4,0.5-0.4c0.7,0,1.4,0,2.1,0c0.4,0,0.5,0.1,0.6,0.4c1.2,3.6,2.4,7.1,3.6,10.7
			c1.7,5.3,3.3,10.7,5,16c0,0.1,0.1,0.2,0.2,0.4c0.1-0.2,0.2-0.3,0.2-0.4c1.3-5.4,3-10.6,4.6-15.9c1.1-3.6,2.2-7.2,3.3-10.8
			c0.1-0.3,0.2-0.4,0.6-0.4c0.9,0,1.7,0,2.7,0c-0.5,1.5-0.9,2.9-1.4,4.3c-2.9,8.8-5.8,17.5-8.6,26.3c-0.1,0.4-0.3,0.6-0.8,0.6
			c-0.5,0-0.9,0-1.4,0c-0.4,0-0.6-0.1-0.7-0.5c-1.8-5.5-3.7-11-5.5-16.5c-1.1-3.2-2.3-6.4-3-9.7c-0.1-0.4-0.2-0.8-0.3-1.2
			C-18.5,420.2-18.5,420.2-18.5,420.2z"/>
		<path id="XMLID_67_" class="st0" d="M-65.5,443.3c2.3,1.6,4.8,2.4,7.5,2.7c2.9,0.4,5.8,0.1,8.3-1.5c2.5-1.6,3.7-3.9,3.9-6.8
			c0.1-2.2-0.3-4.3-1.6-6.1c-1-1.5-2.5-2.5-4-3.3c-1.7-0.8-3.4-1.6-5.1-2.3c-2-0.9-4-2-5.6-3.5c-2.1-1.8-3.2-4.2-3.3-6.9
			c-0.2-5.1,2.6-9.1,7.4-10.8c2.6-0.9,5.2-1,7.9-0.7c1.6,0.2,3.1,0.6,4.6,1.2c0.3,0.1,0.7,0.3,1,0.5c-0.4,0.9-0.8,1.7-1.2,2.6
			c-1.6-0.9-3.3-1.6-5.1-1.8c-2.6-0.3-5.2-0.3-7.6,0.9c-2.6,1.4-3.9,3.6-4.1,6.5c-0.1,2.9,0.8,5.4,3.3,7.1c1,0.7,1.9,1.3,3,1.8
			c1.8,0.9,3.7,1.6,5.4,2.6c1.4,0.8,2.8,1.7,4,2.7c2.2,1.6,3.3,3.8,3.8,6.5c0.4,2.6,0.2,5.1-0.9,7.5c-1.6,3.3-4.3,5.2-7.7,6.1
			c-2.4,0.7-4.8,0.7-7.3,0.4c-2.6-0.3-5.1-1.1-7.4-2.3c-0.2-0.1-0.3-0.2-0.5-0.3C-66.3,445.1-65.9,444.2-65.5,443.3z"/>
		<path id="XMLID_66_" class="st0" d="M9.8,416.9c1,0,2,0,3,0c0,10.4,0,20.7,0,31.1c-1,0-2,0-3,0C9.8,437.7,9.8,427.3,9.8,416.9z"/>
		<path id="XMLID_65_" class="st0" d="M8.5,407.4c0-1.5,1.1-2.7,2.6-2.7c1.5,0,2.8,1.3,2.8,2.8c0,1.4-1.2,2.6-2.7,2.6
			C9.6,410.1,8.5,409,8.5,407.4z"/>
	</g>
</g>
</svg>
