<?xml version="1.0" encoding="utf-8"?>
<!-- Generator: Adobe Illustrator 19.0.0, SVG Export Plug-In . SVG Version: 6.00 Build 0)  -->
<svg version="1.1" id="Capa_1" xmlns="http://www.w3.org/2000/svg" xmlns:xlink="http://www.w3.org/1999/xlink" x="0px" y="0px"
	 viewBox="-253 387.6 88.1 66.3" style="enable-background:new -253 387.6 88.1 66.3;" xml:space="preserve">
<style type="text/css">
	.st0{fill:#FFFFFF;}
</style>
<g id="XMLID_43_">
	<g id="XMLID_44_">
		<path id="XMLID_104_" class="st0" d="M-179.3,392.1c1.8-1.5,3.4-3,5.2-4.5c1.4,2.6,2.7,5.1,3.9,7.6c0.1,0.3-0.1,1-0.4,1.3
			c-1.8,1.6-3.6,3.2-5.6,4.9c-0.1-3.5-0.7-6.5-3.2-9.1c-6,5.2-11.9,10.4-18.1,15.8c-2.7-2.9-5.3-5.9-8.1-9c-1.5,2.1-3.1,4.2-4.6,6.3
			c3.9,5,7.8,9.9,11.8,15.1c7.2-6.3,14.4-12.5,21.8-18.9c0.1,0.8,0.1,1.3,0.1,1.8c0,12.1,0,24.2,0,36.4c0,6.4-6.2,11.1-10.9,11
			c-14-0.3-27.9-0.2-41.9-0.1c-5,0-9.8-5.4-9.8-9.7c0-13.9,0-27.7,0-41.6c0-6.2,6.1-11,11-10.9c12.6,0.2,25.2,0.1,37.8,0
			C-186.2,388.6-182.3,388.6-179.3,392.1z M-234.1,434.9c0.5,3.3,1.3,6.4,4.4,7.9c3.7,1.8,7.7,1.9,11.6,0.5c3.7-1.3,5.8-5,5.7-8.7
			c-0.2-3.8-2.1-6.3-6.1-7.7c-2.1-0.7-4.3-1.2-6.4-2c-0.7-0.2-1.6-1.3-1.4-1.8c0.2-0.8,1-1.6,1.8-1.9c0.8-0.3,2-0.2,2.6,0.3
			c0.9,0.6,1.5,1.8,2.4,2.9c1.9-0.1,4-0.3,6.2-0.5c0-3.7-1.8-6.1-5.2-7.2c-3.1-1-6.3-0.8-9.3,0.1c-1.2,0.4-2.4,1.2-3.3,2.1
			c-3.7,4-2.3,9.9,2.9,12c2.3,0.9,4.7,1.6,7,2.4c1.3,0.5,2,1.6,1.7,3c-0.3,1.4-1.2,2.2-2.6,2.4c-2,0.3-3.8-0.7-4.5-2.7
			c-0.2-0.6-0.4-1.2-0.6-1.8C-229.5,434.5-231.7,434.7-234.1,434.9z M-189.7,435.6c-0.1-1.3-0.3-2.4-0.4-3.4
			c-0.8-7.2-5.3-8.8-11.1-8.5c-2.2,0.1-4.3,0.8-5.9,2.4c-3.6,3.7-3.8,11.1-0.3,15c3.1,3.5,11,4.1,14.5,0.9c1-0.9,1.7-2,2.8-3.3
			c-2.3-0.2-4.1-0.4-5.8-0.5c-0.4,0-0.9,0.2-1.2,0.5c-1.2,1.2-2.5,1.7-4,0.9c-1.5-0.8-1.9-2.2-1.9-3.9
			C-198.7,435.6-194.4,435.6-189.7,435.6z"/>
		<path id="XMLID_88_" class="st0" d="M-196.7,431.9c-0.1-2.7-1.2-4.1-3.2-4c-2,0-3.2,1.6-3.1,4
			C-200.9,431.9-198.8,431.9-196.7,431.9z"/>
	</g>
</g>
</svg>
