<?xml version="1.0" encoding="utf-8"?>
<!-- Generator: Adobe Illustrator 19.0.0, SVG Export Plug-In . SVG Version: 6.00 Build 0)  -->
<svg version="1.1" id="Capa_1" xmlns="http://www.w3.org/2000/svg" xmlns:xlink="http://www.w3.org/1999/xlink" x="0px" y="0px"
	 viewBox="-170 387.6 253.9 66.3" style="enable-background:new -170 387.6 253.9 66.3;" xml:space="preserve">
<style type="text/css">
	.st0{fill:#FFFFFF;}
</style>
<g id="ng9rXg.tif">
	<g id="XMLID_2_">
		<path id="XMLID_990_" class="st0" d="M-119.4,394.2c1.6,0.2,2.5,1.4,3.2,2.7c4.2,7.2,8.3,14.5,12.5,21.8c1.2,2.1,1.1,4.1,0,6.1
			c-4.2,7.2-8.4,14.5-12.5,21.7c-1.2,2-2.8,2.9-5.1,2.9c-8.2-0.1-16.4-0.1-24.6,0c-2.9,0-4.6-1.1-6-3.5c-4.4-7.8-8.9-15.4-13.3-23.2
			c0-0.8,0-1.6,0-2.4c0.2-0.2,0.4-0.4,0.6-0.7c4.3-7.5,8.7-15.1,13-22.6c0.8-1.4,1.6-2.6,3.3-2.8
			C-138.7,394.2-129.1,394.2-119.4,394.2z M-133.7,421.3c-0.4-0.3-0.5-0.3-0.6-0.5c-2.1-3.6-4.3-7.2-6.1-11
			c-1.1-2.2-2.5-2.8-4.8-2.6c-1.8,0.1-2.2,0.5-1.3,2.1c2,3.6,3.9,7.2,6,10.7c0.7,1.1,0.6,1.9,0,3.1c-2.1,3.5-4,7.2-6,10.8
			c-0.3,0.6-1,1.3,0,1.8c1.5,0.8,4.7-0.2,5.6-1.7c2-3.6,4-7.2,6-10.8c0.7-1.3,1.2-1.3,1.9,0c1.8,3.3,3.8,6.4,5.4,9.7
			c1.1,2.4,2.6,3.1,5,2.9c1.9-0.1,2.1-0.6,1.2-2.1c-2-3.5-3.9-7-5.9-10.5c-0.7-1.2-0.7-2.1,0-3.3c2.1-3.5,4-7.2,6-10.8
			c0.3-0.6,1-1.3,0-1.8c-1.5-0.8-4.7,0.2-5.6,1.7C-129.2,413.1-131.4,417.1-133.7,421.3z"/>
		<path id="XMLID_988_" class="st0" d="M-148.4,394.2c0.1-0.2,0.1-0.3,0-0.5c9.7,0,19.3,0,29,0c0,0.2,0,0.3,0,0.5
			C-129.1,394.2-138.7,394.2-148.4,394.2z"/>
		<path id="XMLID_987_" class="st0" d="M-30.3,416.3c6.5-5.7,11.2-5.5,15.3,0.1c2.1-2.5,4.5-4.4,7.9-4.4c4.8,0,7.9,2.6,8.1,7.4
			c0.3,5.5,0.1,11,0.2,16.4c0,1.2-0.5,1.6-1.6,1.5c-0.2,0-0.5,0-0.7,0c-4,0-3.4,0.4-3.5-3.5c0-4,0-8.1-0.1-12.1
			c-0.1-2.9-1.3-4.5-3.4-4.8c-2.6-0.4-4.6,0.8-5.6,3.5c-0.5,1.3-0.7,2.6-0.7,4c0,3.7,0,7.4,0,11.1c0,1.4-0.4,1.9-1.8,1.8
			c-0.6-0.1-1.1-0.1-1.7,0c-1.8,0.2-2.4-0.4-2.3-2.3c0.1-4.4,0.1-8.9,0-13.3c-0.1-3.4-1.9-5.1-4.9-4.9c-1.6,0.1-2.7,0.9-3.5,2.2
			c-0.9,1.5-1.3,3.1-1.3,4.8c0,3.4,0.1,6.8,0,10.2c0,1,0.7,2.7-0.5,3.1c-1.4,0.5-3,0.2-4.5,0.1c-0.9-0.1-0.6-1-0.6-1.6
			c0-7.1,0-14.2,0-21.3c0-1.4,0.5-1.9,1.9-1.7c0.2,0,0.5,0,0.7,0C-30.9,412.5-28.9,412.4-30.3,416.3z"/>
		<path id="XMLID_986_" class="st0" d="M-73.5,417.8c1.8-3.4,3.5-6.2,4.8-9.2c0.9-1.9,2.1-2.6,4.1-2.3c1.1,0.2,2.2,0,3.8,0
			c-2.2,3.8-4.1,7.5-6.4,10.8c-2.3,3.2-2.5,5.9,0,9.2c2.5,3.3,4.3,7.1,6.6,11.1c-2.4,0-4.4,0-6.3,0c-1,0-1.2-0.9-1.6-1.6
			c-1.7-3.2-3.3-6.4-5.2-9.9c-1.8,2.2-2.7,4.6-3.9,6.8c-2.9,5.4-2.9,5.4-9.1,4.6c-0.3-0.9,0.5-1.5,0.9-2.1c2.3-3.8,4.7-7.5,7.1-11.2
			c1-1.4,1.1-2.6,0.1-4.1c-2.6-4.2-4.9-8.6-7.7-13.4c2.5,0,4.5,0,6.5,0c1,0,1.1,0.9,1.4,1.5C-76.8,410.9-75.3,414.1-73.5,417.8z"/>
		<path id="XMLID_983_" class="st0" d="M-45.3,434.5c-2.9,2.9-5.6,4-9,3.3c-3.6-0.8-5.7-2.9-6-6.2c-0.4-4.2,1.3-7.1,4.9-8.4
			c2.6-0.9,5.3-1.1,8-1.4c2.1-0.2,2.6-1.1,1.6-3c-1-1.9-2.8-2.3-4.8-2.1c-2,0.2-4,0.6-5.7,1.7c-1.1,0.7-1.6,0.7-1.7-0.9
			c-0.1-3.4,0-3.6,3.2-4.5c2.1-0.6,4.2-1,6.4-0.9c5.2,0.2,8.5,3.2,8.7,8.4c0.2,5.1,0,10.1,0.1,15.2c0,1.3-0.4,1.8-1.7,1.7
			c-0.5,0-1-0.1-1.4,0C-44.4,437.6-45.7,437.3-45.3,434.5z M-45.3,427.5c0.5-1.9-0.7-2.1-2.4-1.7c-1.5,0.3-3,0.5-4.5,0.8
			c-2,0.5-2.6,1.9-2.4,3.8c0.2,2,1.5,2.7,3.2,2.9C-48,433.7-45.4,431.4-45.3,427.5z"/>
		<path id="XMLID_980_" class="st0" d="M19.8,434c-3,3.4-5.9,4.6-9.6,3.8c-3.4-0.7-5.5-2.9-5.7-5.9c-0.4-4.5,1.1-7.3,4.5-8.6
			c2.7-1,5.5-1.2,8.3-1.5c2.3-0.3,2.7-0.9,1.7-2.9c-1-2-2.8-2.3-4.7-2.2c-2.1,0.2-4.1,0.6-6,1.8c-1.2,0.7-1.5,0.3-1.5-0.9
			c-0.2-3.3-0.1-3.5,3.2-4.5c2.4-0.7,4.9-1.1,7.4-0.8c4.8,0.5,7.6,3.6,7.8,9.1c0.2,4.8,0,9.7,0.1,14.5c0,1.3-0.5,1.7-1.7,1.6
			c-0.4,0-0.8,0-1.2,0C20.5,437.4,18.6,437.6,19.8,434z M13.9,433.4c2.8,0,5.1-1.9,5.5-4.8c0.4-2.9,0.1-3.3-2.8-2.7
			c-1.2,0.2-2.4,0.4-3.6,0.6c-2.2,0.4-3.2,1.8-3.1,3.9C10.1,432.2,11.7,433.4,13.9,433.4z"/>
		<path id="XMLID_979_" class="st0" d="M62.2,415.9c2.3-2.5,4.7-3.8,7.9-3.8c4.5,0.1,7.4,2.5,8,7.1c0.7,5.5,0.2,11.1,0.4,16.6
			c0,1.1-0.4,1.7-1.5,1.6c-0.6,0-1.1-0.1-1.7,0c-2,0.3-2.6-0.4-2.6-2.5c0-4.5,0.4-9-0.3-13.5c-0.5-3-1.7-4.3-3.9-4.5
			c-2.6-0.2-4.8,1.1-5.8,3.5c-0.4,1-0.6,2.1-0.6,3.3c0,3.8-0.1,7.6,0.1,11.4c0.1,2-0.6,2.6-2.5,2.3c-0.6-0.1-1.3,0-1.9,0
			c-1,0.1-1.4-0.4-1.4-1.4c0-7.3,0-14.7,0-22c0-0.9,0.3-1.4,1.3-1.3c0.3,0,0.6,0,1,0C60.6,412.5,62.9,412.2,62.2,415.9z"/>
		<path id="XMLID_978_" class="st0" d="M35,416.9c1.6-3.1,3.5-4.8,6.6-4.7c0.8,0,1.8,0,1.9,1c0.1,1.5,0.4,3.1-0.2,4.5
			c-0.1,0.1-0.9,0-1.3-0.1c-3.5-0.6-5.7,0.7-6.6,4.3c-1,4-0.2,8.2-0.5,12.2c-0.1,1,0.7,2.6-0.6,3c-1.4,0.4-3,0.2-4.5,0
			c-0.8-0.1-0.6-1-0.6-1.6c0-7.1,0-14.1,0-21.2c0-1.2,0.3-1.7,1.6-1.7C34.9,412.4,34.9,412.3,35,416.9z"/>
		<path id="XMLID_977_" class="st0" d="M51.9,425c0,3.5-0.1,6.9,0,10.4c0,1.5-0.4,2.1-1.9,1.9c-0.8-0.1-1.6-0.1-2.4,0
			c-1.2,0.1-1.5-0.5-1.5-1.6c0-7.2,0-14.3,0-21.5c0-1.2,0.4-1.8,1.6-1.7c0.8,0.1,1.6,0.1,2.4,0c1.4-0.1,1.8,0.5,1.8,1.8
			C51.8,418,51.9,421.5,51.9,425z"/>
		<path id="XMLID_976_" class="st0" d="M52.4,404.1c0,2-1.4,3.2-3.4,3.1c-2,0-3.4-1.3-3.4-3.2c0-1.9,1.6-3.4,3.6-3.3
			C51.1,400.8,52.5,402.3,52.4,404.1z"/>
	</g>
</g>
</svg>
