<?xml version="1.0" encoding="utf-8"?>
<!-- Generator: Adobe Illustrator 19.0.0, SVG Export Plug-In . SVG Version: 6.00 Build 0)  -->
<svg version="1.1" id="Capa_1" xmlns="http://www.w3.org/2000/svg" xmlns:xlink="http://www.w3.org/1999/xlink" x="0px" y="0px"
	 viewBox="-170 387.6 253.9 66.3" style="enable-background:new -170 387.6 253.9 66.3;" xml:space="preserve">
<style type="text/css">
	.st0{fill:#FFFFFF;}
</style>
<g id="XMLID_45_">
	<path id="XMLID_190_" class="st0" d="M-95.9,416c0,5.5,0,11,0,16.5c0,0.5,0.2,1.2-0.7,1.2c-0.6,0.6-1.3,0.3-2,0.3
		c-0.5-0.1-0.6-0.4-0.7-1c-0.1-1.6-0.1-3.1-0.1-4.7c0-5.5,0-11.1,0-16.6c0-0.5,0-1,0.3-1.3c0.1-0.2,0-0.6,0.3-0.7
		c0.8-0.4,3,0,3.6,0.8c4.5,5.9,8.9,11.7,13.4,17.6c0.1,0.2,0.2,0.3,0.4,0.5c0.3-0.4,0.1-0.8,0.1-1.2c0-5.5,0-11.1,0-16.6
		c0-0.4-0.2-1,0.3-1.1c0.8-0.1,1.7-0.3,2.5,0.1c0.1,0.1,0.1,0.5,0.1,0.8c0,7.4,0,14.8,0,22.2c0,0.7-0.2,0.9-0.9,0.9
		c-1.2,0.7-2.5,0.5-3.3-0.6c-4.2-5.5-8.4-11.1-12.6-16.6C-95.1,416.2-95.2,415.5-95.9,416z"/>
	<path id="XMLID_189_" class="st0" d="M26.9,421.4c-0.1-0.8,0.5-0.8,1.1-0.9c1.7-0.4,3.4-0.8,4.6-2.1c0.5-0.7,0.8-1.5,0.8-2.4
		c0-1.9-0.9-3.1-2.9-3.3c-2.2-0.2-4.4,0-6.6-0.1c-0.3,0-0.5,0.1-0.7,0.4c0,6.5,0,13,0,19.6c0,0.5,0.2,1.2-0.7,1.1
		c-0.6,0.6-1.4,0.3-2,0.3c-0.6-0.1-0.6-0.6-0.6-1.1c-0.1-3.4,0-6.8,0-10.1c0-3.7,0-7.3,0-11c0-0.7,0.2-1.4,0.3-2
		c4.1-0.2,8.2-0.3,12.3,0.1c2,0.2,3.7,1.2,4.4,3.2c0.7,2.2,0.6,4.3-1,6.2c-1.2,1.3-2.6,2.2-4.3,2.8c-0.8,0.3-0.8,0.6-0.3,1.2
		c2.3,3.1,4.6,6.3,6.9,9.5c0.7,0.9,0.3,1-0.5,1.1c-1.2,0.7-3.2,0.5-4-0.6c-2.2-3.1-4.4-6.1-6.5-9.2
		C26.6,423.1,26.4,422.3,26.9,421.4z"/>
	<path id="XMLID_188_" class="st0" d="M-32.6,410.4c0-0.6,0.2-0.8,0.8-0.8c2.4-0.1,2.4-0.1,2.4,2.2c0,4.5,0,9.1-0.1,13.6
		c0,3-1.2,5.4-3.8,7.1c-1.6,1-3.3,1.5-5.2,1.5c-1.6,0-3.3,0.2-4.9-0.2c-3.6-1-6-2.9-6.4-7.6c-0.4-4.9-0.1-9.9-0.2-14.9
		c0-0.3,0.1-0.7,0.4-0.9c0-0.5,0.2-0.8,0.8-0.8c2.4-0.1,2.4-0.2,2.4,2.3c0,4.2,0,8.5,0,12.7c0,4.4,2.2,6.6,6.6,6.6
		c2.2,0,4.2-0.2,5.7-2.1c0.7-1.3,1-2.7,1-4.2c0-4.4,0-8.7,0-13.1C-32.9,411.2-33,410.7-32.6,410.4z"/>
	<path id="XMLID_187_" class="st0" d="M55.7,413c1.7-2.5,4.3-3.3,7.1-3.5c2.9-0.2,5.9,0,8.8,0.7c0.4,0.1,1,0.1,0.9,0.7
		c-0.2,0.7,0.6,1.7-0.5,2.2c-0.9,0.3-1.8-0.1-2.7-0.3c-2.7-0.5-5.4-0.8-8.1-0.2c-0.6,0.1-1.2,0.4-1.7,0.7c-1.5,1.2-1.5,2.8-1,4.4
		c0.4,1.6,1.7,2.2,3.2,2.3c1.7,0.1,3.4,0.1,5.2,0.2c3.5,0.2,5.6,1.7,6.3,4.3c0.9,3.4-0.2,6.2-3.1,8.2c-1.2,0.9-2.7,1.3-4.1,1.3
		c-2.9,0.1-5.9,0.2-8.8-0.5c-1.7-0.5-2-0.8-1.4-2.5c0.1-0.3,0-0.7,0.3-1c3.1,1,6.3,1.5,9.6,1.2c1.2-0.1,2.4-0.4,3.3-1.3
		c0.9-1,1-2.2,0.9-3.3c-0.1-1.8-1.3-3-3.3-3.2c-1.7-0.2-3.4-0.1-5.2-0.1c-1.7,0-3.3-0.5-4.7-1.6C54.5,419.9,53.9,415.6,55.7,413z"/>
	<path id="XMLID_186_" class="st0" d="M2.9,424.2c0.1-0.2,0.2-0.5,0.3-0.7c1.4-0.3,2.8-0.1,4.2-0.1c1.1,0,1.2-0.2,0.8-1.2
		c-1-2.5-2-4.9-3-7.3c-0.2-0.4-0.2-1-0.9-0.7c-2.5,6.1-5,12.3-7.6,18.4c-0.4,0.9-2.7,1.5-3.4,1c-0.4-0.3,0-0.7,0.1-0.9
		c1.2-2.8,2.4-5.6,3.7-8.4c2.4-5.5,4.9-11.1,7.3-16.6c0.2-0.3,0.2-0.7,0.7-1.1c0.9,2.1,1.8,4.2,2.7,6.2c2.9,6.6,5.8,13.2,8.7,19.8
		c0.3,0.7,0.3,1.1-0.6,1c-1.5,0.9-2.9,0.4-3.5-1.1c-0.6-1.6-1.4-3.2-2-4.8c-0.3-0.9-0.8-1.2-1.8-1.2c-1.6,0.1-3.1,0.1-4.7,0
		c-0.6,0-1.3,0.3-1.6-0.4C2.1,425.4,2.4,424.8,2.9,424.2z"/>
	<path id="XMLID_185_" class="st0" d="M-67.5,413.9c-1.6,1-2.3,2.6-2.7,4.4c-0.5,2.2-0.5,4.4,0.1,6.6c1,3.8,3.5,6,7.4,6.2
		c1.5,0.1,3,0.3,4.4-0.2c0.5-0.4,0.3-1,0.4-1.5c0.1-1.6,0-3.2,0.1-4.8c0-0.4,0-0.7,0.3-1c0-0.6,0.2-0.9,0.9-0.9
		c2.3,0,2.3-0.1,2.3,2.2c0,2.3,0,4.5,0,6.8c0,0.8-0.2,1.2-0.9,1.4c-0.8,0.6-1.9,0.8-2.9,0.9c-3.4,0.3-6.9,0.4-10.1-1.1
		c-2.7-1.3-4.5-3.4-5.2-6.3c-1-3.8-1-7.5,0.6-11.1c0.1-0.3,0.2-0.5,0.4-0.7c1.8-3,4.6-4.5,8.1-5c3.1-0.4,6.2-0.3,9.2,0.6
		c1.4,0.4,0.6,1.5,0.7,2.3c0.1,0.8-0.5,0.5-0.9,0.5c-1,0.4-2-0.3-2.9-0.4C-61.4,412.2-64.5,412.2-67.5,413.9z"/>
	<path id="XMLID_184_" class="st0" d="M-23.9,409.7c3.1-0.4,3.1-0.4,3.1,2.5c0,5.9,0,11.8,0,17.8c0,0.9,0.3,1.1,1.1,1.1
		c3.5,0,7,0,10.5,0c0.4,0,1.1-0.2,1,0.6c-0.1,0.7,0.7,1.8-0.8,2c-0.7,0.7-1.6,0.4-2.4,0.4c-3.7,0-7.5,0-11.2,0
		c-1.2,0-1.6,0.1-1.6-1.5c0-7-0.1-14,0-21C-24.2,410.9-24,410.3-23.9,409.7z"/>
	<path id="XMLID_183_" class="st0" d="M42.3,431.1c1.4-0.2,2.8-0.2,3.8-1.4c0.7-1.2,0.8-2.4,0.8-3.8c0-4.8,0-9.5,0-14.3
		c0-0.5-0.1-1,0.3-1.3c0-0.5,0.2-0.7,0.8-0.8c2.4-0.2,2.4-0.2,2.4,2.2c0,5,0,9.9,0,14.9c0,2.6-0.9,4.6-3.1,6
		c-1.3,0.9-2.8,1.1-4.4,1.2c-0.9,0.1-1-0.5-1-1.2C41.8,432.2,42.1,431.6,42.3,431.1z"/>
	<path id="XMLID_182_" class="st0" d="M37.4,447.3c-2.2,0-4.2-1.3-4.9-3.4c-0.7-2-0.1-4.3,1.5-5.6c1.6-1.4,4.1-1.6,5.8-0.6
		c0.3,0.2,1.2,0.2,0.8,1c-0.3,0.6-0.8,0.7-1.5,0.3c-1.5-0.9-3.3-0.6-4.4,0.6c-1.2,1.3-1.3,3.2-0.3,4.7c1,1.4,2.7,1.9,4.3,1.3
		c0.4-0.1,0.7-0.4,1-0.6c0.5-0.4,1-1,0.8-1.6c-0.2-0.4-0.9-0.1-1.4-0.2c-0.4,0-0.8,0-1.2,0c-0.6,0-0.6-0.3-0.6-0.8
		c0-0.4,0.1-0.8,0.6-0.7c1,0,2,0.1,2.9,0c1-0.1,1.3,0.3,1.2,1.3C41.9,445.7,40.1,447.3,37.4,447.3z"/>
	<path id="XMLID_168_" class="st0" d="M65.3,442.3c0,1.4,0,2.7,0,4.1c0,0.6-0.2,0.7-0.7,0.7c-0.6,0-0.7-0.3-0.7-0.8
		c0-2.7,0-5.4,0-8.1c0-0.5,0.1-0.8,0.7-0.8c0.7,0,0.8,0.3,0.8,0.9C65.3,439.6,65.3,441,65.3,442.3z"/>
	<path id="XMLID_159_" class="st0" d="M27.3,445.8c0.3-0.8,0.6-1.6,0.8-2.4c0.1-0.3,0.3-0.6,0.7-0.5c0.5,0.1,0.2,0.5,0.1,0.7
		c-0.5,1.4-1,2.8-1.5,4.2c-0.1,0.4-0.3,0.8-0.6,0.9c-0.3,0.2-0.8,0.4-1,0c-0.3-0.5,0.3-0.4,0.5-0.5c0.5-0.3,0.6-0.8,0.4-1.4
		c-0.4-1.1-0.8-2.1-1.1-3.2c-0.1-0.2-0.4-0.5,0.1-0.7c0.3-0.1,0.6,0,0.7,0.4c0.3,0.8,0.6,1.7,0.8,2.5
		C27.2,445.8,27.2,445.8,27.3,445.8z"/>
	<g id="XMLID_19_">
		<path id="XMLID_51_" class="st0" d="M-105,400.2c-4.2-1.4-8.4-2.9-12.6-4.3c-4.6-1.6-9.3-3.2-13.9-4.8c-0.1,0-0.2,0-0.2,0
			c-2.4,1.2-5,1.9-7.5,2.8c-6.4,2.3-12.8,4.5-19.2,6.8c-0.9,0.3-1.2,0.7-1,1.6c0.3,1.9,0.5,3.8,0.7,5.7c1.1,9.5,2.3,18.9,3.4,28.4
			c0.1,0.9,0.4,1.5,1.2,1.9c7.3,4,14.5,8,21.8,12c0.6,0.3,1.1,0.3,1.6,0c7.3-4.1,14.6-8.1,21.9-12.1c0.7-0.4,1-0.8,1.1-1.6
			c0.7-5.7,1.4-11.4,2.1-17.2c0.7-5.5,1.3-11,2-16.6C-103.3,400.9-103.3,400.8-105,400.2z M-106.2,404.2c-1.1,8.5-2.2,17-3.2,25.4
			c-0.2,1.7-0.4,3.3-0.6,5c-0.1,0.6-0.2,1.2-0.9,1.5c-6.7,3.7-13.4,7.4-20.1,11.1c-0.1,0.1-0.3,0.1-0.4,0.1l0,0
			c-0.5,0.1-0.9-0.3-1.3-0.5c-6.3-3.5-12.5-7-18.8-10.4c-0.7-0.4-1.1-0.9-1.2-1.7c-0.8-7.3-1.7-14.6-2.5-21.8c-0.3-3-0.7-5.9-1-8.9
			c-0.1-0.6,0-1,0.7-1.3c7.9-2.8,15.8-5.6,23.7-8.4c0.1,0,0.3,0,0.5,0c2.8,0.7,5.6,1.8,8.4,2.8c5.2,1.8,10.5,3.6,15.7,5.3
			C-106.5,402.7-106.1,403-106.2,404.2z"/>
	</g>
	<path id="XMLID_35_" class="st0" d="M63.1,441.6c0-0.8-0.6-0.7-1-0.6c-0.5,0.1-1,0.1-1.5-0.1c-0.4-0.2-0.9-0.2-1.4,0
		c-1.8,0.5-2.9,2.4-2.3,4.2c0.6,1.9,2.5,2.7,4.7,1.8c0,0.9-0.1,1.6-0.9,1.9c-0.9,0.4-1.6,0.1-2.1-0.6c-0.5-0.7-0.9-0.2-1.3,0
		c-0.5,0.3,0,0.6,0.2,0.8c0.8,1,1.9,1.4,3.2,1.1c1.3-0.3,2-1.1,2.2-2.4C63.3,445.7,63.1,443.6,63.1,441.6z M60.1,446
		c-1,0-1.8-0.8-1.8-1.9c0-1.1,0.8-1.9,1.8-1.9c1,0,1.7,0.8,1.7,1.8C61.8,445.1,61.1,445.9,60.1,446z"/>
	<path id="XMLID_29_" class="st0" d="M45.9,440.8c-1.8,0-3.3,1.4-3.3,3.3c0,1.9,1.4,3.3,3.2,3.3c1.8,0,3.3-1.4,3.4-3.2
		C49.3,442.3,47.8,440.7,45.9,440.8z M45.9,446c-1,0-1.8-0.8-1.8-1.9c0-1.1,0.8-2,1.9-1.9c1,0,1.7,0.8,1.7,1.9
		C47.7,445.2,47,446,45.9,446z"/>
	<path id="XMLID_32_" class="st0" d="M53,440.8c-1.9,0-3.3,1.4-3.3,3.4c0,1.9,1.4,3.2,3.3,3.2c1.8,0,3.3-1.5,3.3-3.3
		C56.3,442.3,54.9,440.8,53,440.8z M53,446c-1,0-1.8-0.8-1.8-1.9c0-1.1,0.8-2,1.9-1.9c1,0,1.7,0.9,1.7,2C54.8,445.2,54,446,53,446z"
		/>
	<path id="XMLID_38_" class="st0" d="M70.3,445.6c-0.9,0.7-1.7,0.5-2.6-0.5c0.2-0.1,0.3-0.1,0.4-0.2c0.9-0.4,1.7-0.7,2.6-1.1
		c1.5-0.6,1.6-1,0.4-2.2c-0.3-0.3-0.6-0.5-1-0.7c-1.3-0.6-2.8-0.1-3.6,1.1c-0.9,1.3-0.7,3.2,0.4,4.3c1.1,1.1,3,1.2,4.2,0.3
		c0.3-0.2,1-0.5,0.6-1C71.4,445.3,70.9,445,70.3,445.6z M67.5,443.3c0.3-1.2,1.7-1.5,2.7-0.5c-0.8,0.3-1.5,0.7-2.2,1
		C67.5,443.9,67.4,443.7,67.5,443.3z"/>
	<path id="XMLID_41_" class="st0" d="M24.5,443.5c-0.7-0.9-1.6-0.8-2.7-0.3c0-0.5,0-0.8,0-1.2c0-0.3,0.1-0.7-0.4-0.7
		c-0.4,0-0.3,0.4-0.3,0.6c0,1.6,0,3.1,0,4.7c0,0.3,0.1,0.7,0.4,0.5c0.5-0.3,0.8,0.1,1.2,0.2c0.7,0.2,1.3-0.1,1.7-0.7
		C25,445.8,25,444.2,24.5,443.5z M22.9,446.6c-1,0-1.1-0.8-1.1-1.6c0-0.8,0.3-1.5,1.2-1.5c1,0,1,0.8,1.1,1.5
		C24,445.8,23.9,446.6,22.9,446.6z"/>
	<path id="XMLID_48_" class="st0" d="M-114.1,433.5c-3.7-8-7.5-16-11.2-24c-2-4.3-4.1-8.6-6.1-12.8c0-0.1,0-0.2-0.1-0.4
		c-0.2,0.4-0.5,0.8-0.7,1.2c-3.2,7-6.3,14-9.4,21c-2.2,5-4.5,10-6.8,15c-0.4,0.9-0.3,1.2,0.7,1.1c1.4-0.1,2.8-0.1,4.2,0
		c0.7,0,1.1-0.3,1.4-1c0.9-2.3,1.8-4.5,2.7-6.8c0.3-0.7,0.6-1,1.4-1c2.1,0.1,4.2,0,6.2,0c0.1,0,0.2,0,0.3,0.1c2.3,0,4.6,0,6.9-0.1
		c0.9,0,1.3,0.3,1.6,1.1c0.9,2.3,2,4.5,2.9,6.8c0.3,0.6,0.6,0.9,1.3,0.9c1.3,0,2.5,0.1,3.8,0.1
		C-113.5,434.8-113.5,434.8-114.1,433.5z M-126.8,420.7c-1.6,0-3.1-0.1-4.7-0.1c0,0,0,0.1,0,0.1c-1.7,0-3.3,0-5.2,0
		c1.7-4.1,3.4-8.1,5-12c0.2,0.1,0.4,0.2,0.4,0.4c1.7,3.5,3.4,7,5.1,10.5C-125.7,420.6-126,420.8-126.8,420.7z"/>
</g>
</svg>
