<?xml version="1.0" encoding="utf-8"?>
<!-- Generator: Adobe Illustrator 19.0.0, SVG Export Plug-In . SVG Version: 6.00 Build 0)  -->
<svg version="1.1" id="Capa_1" xmlns="http://www.w3.org/2000/svg" xmlns:xlink="http://www.w3.org/1999/xlink" x="0px" y="0px"
	 viewBox="-170 387.6 253.9 66.3" style="enable-background:new -170 387.6 253.9 66.3;" xml:space="preserve">
<style type="text/css">
	.st0{fill:#FFFFFF;}
</style>
<g id="_x31_Q5HeQ.tif">
	<g id="XMLID_42_">
		<path id="XMLID_155_" class="st0" d="M37.5,443.3c-4.5-2.4-5.9-6.1-5.7-11.1c0.4-7.7,0.4-15.4,0.1-23.1c-0.2-4.9,1.3-8.5,5.6-10.8
			c11.5,0,23,0,34.6,0c4.1,2.6,5.4,6.4,5.2,11.2c-0.3,7.7-0.2,15.5,0,23.3c0.2,5-1.4,8.5-6,10.6C60,443.3,48.8,443.3,37.5,443.3z
			 M51.1,429.7c0.3-0.1,1.6-0.2,2.2-0.9c6.2-5.9,12.4-11.8,18.2-18.1c1-1.1,0.8-4.9-0.3-5.9c-1.3-1.2-5.2-1.9-6.2-1
			c-6.6,5.9-12.9,12-18.8,18.6C43.7,425.3,46.5,429.6,51.1,429.7z M46.6,433.4c-0.2-3.3-2-5-5.1-5c-3.1,0.1-4.9,1.8-4.9,5.1
			c0.1,3.2,2,5,5.1,4.9C44.8,438.4,46.4,436.4,46.6,433.4z"/>
		<path id="XMLID_153_" class="st0" d="M-143.3,398.2c3.8,1.6,8.3,2.2,10,7.1c-2.9,1.6-5.4,3.8-9.1,0.5c-1.6-1.4-5.4-1.3-7.9-0.6
			c-4.1,1.1-4.6,5.9-1.2,8.5c1.8,1.3,4,2.1,6,3.1c2.4,1.1,4.9,2.1,7.2,3.3c4.3,2.3,7.1,5.6,6.7,10.8c-0.5,5.4-3.4,9.1-8.5,10.9
			c-1.3,0.5-2.7,1-4,1.5c-2.4,0-4.8,0-7.2,0c-5.2-1.4-9.7-3.6-12.1-8.8c0-0.3,0-0.5,0-0.8c2-0.9,4-1.7,6.1-2.6
			c0.7,1,1.1,1.7,1.6,2.3c2.5,3.1,7.1,4.3,11.3,3c2.7-0.8,4.4-2.4,4.5-5.3c0.2-4.8-3.7-5.5-6.9-7.1c-3.7-1.8-7.6-3.4-10.9-5.7
			c-6.1-4.3-5.7-13.1,0.7-17.1c2-1.2,4.3-1.9,6.5-2.8C-148.1,398.2-145.7,398.2-143.3,398.2z"/>
		<path id="XMLID_152_" class="st0" d="M-107.9,443.3c-1.2-0.4-2.4-0.8-3.7-1.2c-9.8-3-16-11.9-15.6-22.5
			c0.4-10.1,7.5-18.4,17.5-20.6c0.6-0.1,1.2-0.5,1.8-0.7c2.4,0,4.8,0,7.2,0c1.3,0.4,2.5,0.7,3.8,1.1c6.6,2,7,2.7,6.4,9.9
			c-9.3-5.6-18.5-7.7-26.3,1.9c-4.6,5.6-3.9,14.6,0.7,20.1c5.2,6.3,11.5,6.5,25.3,0.8c1,7.2,0.2,8.4-6.4,10.2
			c-1.1,0.3-2.3,0.6-3.4,0.9C-103.1,443.3-105.5,443.3-107.9,443.3z"/>
		<path id="XMLID_149_" class="st0" d="M-13.1,443.3c6.8-14.6,13.7-29.1,21-44.6c7.2,15.4,14,30,20.8,44.6c-2.4,0-4.8,0-7.2,0
			c-1.3-2.9-2.5-5.9-4.1-8.6c-0.7-1.2-2.3-2.1-3.7-2.5c-1.3-0.4-3,0.1-4.4-0.1c-7.4-1.3-12.3,1.1-13.8,8.8c-0.2,0.9-0.9,1.6-1.3,2.5
			C-8.3,443.3-10.7,443.3-13.1,443.3z M13.7,426.2c-1.9-4.5-3.8-8.7-5.7-13.3c-2,4.5-3.9,8.8-5.9,13.3
			C6.1,426.2,9.7,426.2,13.7,426.2z"/>
		<path id="XMLID_146_" class="st0" d="M-86.2,443.3c0.8-2.1,1.5-4.2,2.4-6.3c5.9-12.5,11.8-25.1,18-38.2
			c4.9,10.5,9.6,20.4,14.3,30.3c2.2,4.7,4.2,9.5,6.3,14.2c-2.4,0-4.8,0-7.2,0C-56.9,432-56.9,432-68.8,432c-1.2,0-2.4-0.2-3.6,0.1
			c-0.9,0.2-2.1,0.7-2.5,1.4c-1.5,3.2-2.8,6.5-4.2,9.8C-81.4,443.3-83.8,443.3-86.2,443.3z M-65.8,412.9c-1.9,4.5-3.8,8.8-5.6,13.2
			c4.1,0,7.6,0,11.5,0C-62,421.5-63.8,417.3-65.8,412.9z"/>
		<path id="XMLID_145_" class="st0" d="M-39.6,443.3c0-14.6,0-29.3,0-44.1c2.2,0,4.2,0,6.5,0c0,12.4,0,24.8,0,37.5
			c5.4,0,10.4,0,16,0c0,2.5,0,4.5,0,6.6C-24.6,443.3-32.1,443.3-39.6,443.3z"/>
	</g>
</g>
</svg>
