<?xml version="1.0" encoding="utf-8"?>
<!-- Generator: Adobe Illustrator 19.0.0, SVG Export Plug-In . SVG Version: 6.00 Build 0)  -->
<svg version="1.1" id="Capa_1" xmlns="http://www.w3.org/2000/svg" xmlns:xlink="http://www.w3.org/1999/xlink" x="0px" y="0px"
	 viewBox="-536 361.8 118.1 118.1" style="enable-background:new -536 361.8 118.1 118.1;" xml:space="preserve">
<style type="text/css">
	.st0{fill:#FFFFFF;}
</style>
<g>
	<path class="st0" d="M-477,361.8c-24.6,0-44.5,19.9-44.5,44.5c0,12.8,6.4,24.4,12.7,35.1c7.7,13.3,16.9,25.7,27.6,36.7
		c2.3,2.4,6.1,2.4,8.5,0c9.4-9.3,17.7-19.8,24.7-31c7.5-12.1,15.6-26.1,15.6-40.8C-432.5,381.8-452.4,361.8-477,361.8z M-477,432.1
		c-14.9,0-27-12.1-27-27s12.1-27,27-27s27,12,27,27S-462.1,432.1-477,432.1z"/>
</g>
</svg>
