<?xml version="1.0" encoding="utf-8"?>
<!-- Generator: Adobe Illustrator 19.0.0, SVG Export Plug-In . SVG Version: 6.00 Build 0)  -->
<svg version="1.1" id="Capa_1" xmlns="http://www.w3.org/2000/svg" xmlns:xlink="http://www.w3.org/1999/xlink" x="0px" y="0px"
	 viewBox="-352 178.7 485.2 485.2" style="enable-background:new -352 178.7 485.2 485.2;" xml:space="preserve">
<style type="text/css">
	.st0{fill:#FFFFFF;}
</style>
<path id="XMLID_333_" class="st0" d="M50.7,312.5H35.3c-31.7,0-59.9-20.4-69.7-50.6l-4.7-14.6c-21.9-67.5-117.4-67.5-139.4,0
	l-4.7,14.6c-9.8,30.2-37.9,50.6-69.7,50.6h-15.4c-71,0-100.5,90.8-43.1,132.6l12.4,9c25.7,18.7,36.4,51.7,26.6,81.9l-4.7,14.6
	c-21.9,67.5,55.3,123.7,112.8,81.9l12.4-9c25.7-18.7,60.5-18.7,86.1,0l12.4,9c57.4,41.7,134.7-14.4,112.8-81.9L54.7,536
	c-9.8-30.2,0.9-63.3,26.6-81.9l12.4-9C151.2,403.3,121.7,312.5,50.7,312.5z M-58.5,530.5c-12.3,4.8-26.2,7.2-41.8,7.2
	c-26,0-48.3-6.1-66.8-18.3c-18.5-12.2-30.6-29.8-36.3-52.8h-26.7v-16.8l24.2-1.2c-0.3-1.6-0.4-3.1-0.4-4.6c0-1.5,0-3,0-4.7
	c0-1.6,0-3.1,0-4.5c0-1.4,0.1-2.8,0.4-4.2h-24.2v-16.8l26.7-1.2c2.8-11.6,7.4-21.9,13.8-30.9c6.4-9,14.2-16.6,23.6-22.8
	c9.3-6.2,19.9-10.9,31.8-14.2c11.9-3.3,24.9-4.9,39-4.9c12.7,0,24.9,2.1,36.5,6.3c11.6,4.2,21.5,9.9,29.7,17.1L-56.5,382
	c-5.7-4.6-11.7-8.3-18-11.1c-6.4-2.8-13.7-4.2-21.9-4.2c-15.3,0-27.9,4-37.8,12c-9.9,8-16.6,19.2-19.9,33.6h99.3v18.3h-101.8
	c-0.3,1.2-0.4,2.4-0.4,3.6c0,1.2,0,2.5,0,3.9c0,1.8,0,3.6,0,5.2c0,1.7,0.1,3.4,0.4,4.9h84.9v18.3h-81.9c4,14,10.8,24.8,20.4,32.5
	c9.6,7.7,21.6,11.5,36.1,11.5c9.1,0,17.1-1.6,24.2-4.8c7.1-3.2,13.9-7.9,20.4-14.1l27.6,18C-35.1,518.8-46.2,525.7-58.5,530.5z"/>
</svg>
