<?xml version="1.0" encoding="utf-8"?>
<!-- Generator: Adobe Illustrator 19.0.0, SVG Export Plug-In . SVG Version: 6.00 Build 0)  -->
<svg version="1.1" id="Capa_1" xmlns="http://www.w3.org/2000/svg" xmlns:xlink="http://www.w3.org/1999/xlink" x="0px" y="0px"
	 viewBox="0 0 140 140" style="enable-background:new 0 0 140 140;" xml:space="preserve">
<style type="text/css">
	.st0{fill:#E62557;}
	.st1{fill:none;stroke:#E62557;stroke-width:6.631;stroke-miterlimit:10;}
</style>
<g id="XMLID_190_">
	<path id="XMLID_201_" class="st0" d="M75.8,38.4c-2.3,0-3.8,1.7-4.4,3.4L55.3,84c2.4,0,6.3,0,9.5,0c2.1,0,3.3-1.6,3.9-3l16.1-42.6
		C82.4,38.4,78.9,38.4,75.8,38.4z"/>
	<path id="XMLID_197_" class="st0" d="M55.3,84l3.6-9.4L47.2,62.1l0,0c-0.2-0.3-0.4-0.6-0.4-0.9c0-0.4,0.1-0.7,0.4-0.9l0,0
		l20.6-21.9H57.3c-1.2,0-2.4,0.5-3.2,1.3L36.6,58.1l0,0c-0.7,0.8-1.2,1.9-1.2,3.1c0,1.2,0.5,2.3,1.2,3.1l0,0L55.3,84L55.3,84
		C55.4,84,55.3,84,55.3,84z"/>
	<path id="XMLID_191_" class="st0" d="M104.6,61.2c0-1.2-0.5-2.3-1.2-3.1l0,0L84.8,38.4l0,0c0,0,0,0,0,0l-3.6,9.5l11.7,12.4l0,0
		c0.2,0.3,0.4,0.6,0.4,0.9c0,0.4-0.1,0.7-0.4,0.9l0,0L72.2,84h10.5c1.2,0,2.4-0.5,3.2-1.3h0l17.4-18.5l0,0
		C104.1,63.4,104.6,62.4,104.6,61.2z"/>
</g>
<polygon id="XMLID_2_" class="st1" points="35.3,30.5 105.2,30.5 124.6,53.2 69.9,117.8 15.5,53.2 "/>
</svg>
