<?xml version="1.0" encoding="utf-8"?>
<!-- Generator: Adobe Illustrator 19.0.0, SVG Export Plug-In . SVG Version: 6.00 Build 0)  -->
<svg version="1.1" id="Capa_1" xmlns="http://www.w3.org/2000/svg" xmlns:xlink="http://www.w3.org/1999/xlink" x="0px" y="0px"
	 viewBox="0 0 140 140" style="enable-background:new 0 0 140 140;" xml:space="preserve">
<style type="text/css">
	.st0{fill:#E62557;}
	.st1{fill:#FFFFFF;}
</style>
<g id="XMLID_256_">
	<path id="XMLID_310_" class="st0" d="M29.2,139.7c7.5-19.9,15-39.8,22.6-60c-10.1,0-19.7,0-28.5,0C49.2,53.4,75.4,26.7,101.7,0
		c0.2,0.1,0.4,0.3,0.6,0.4c-6.9,19.9-13.7,39.7-20.7,59.9c10,0,19.6,0,30.1,0c-27.7,26.9-54.9,53.3-82,79.7
		C29.5,139.9,29.3,139.8,29.2,139.7z"/>
</g>
<g id="XMLID_226_">
	<path id="XMLID_194_" class="st0" d="M92.4,29.7H53c-5.1,0-9.2,4.1-9.2,5.4v73.2c0,8.9,4.1,13.1,9.2,13.1h39.4
		c5.1,0,9.2-4.1,9.2-13.1V35C101.6,33.8,97.5,29.7,92.4,29.7z M53,33.9h39.4c2.7,0,5,2.2,5,5v2.1H48v-2.1C48,36.1,50.3,33.9,53,33.9
		z M97.4,45.2v56.3H48V45.2H97.4z M92.4,117.1H53c-2.7,0-5-2.2-5-5v-6.4h49.3v6.4C97.4,114.9,95.1,117.1,92.4,117.1z"/>
</g>
<path id="XMLID_266_" class="st1" d="M53,33.9h39.4c2.7,0,5,2.2,5,5v2.1H48v-2.1C48,36.1,50.3,33.9,53,33.9z"/>
<rect id="XMLID_258_" x="48" y="45.2" class="st1" width="49.3" height="56.3"/>
<path id="XMLID_255_" class="st1" d="M92.4,117.1H53c-2.7,0-5-2.2-5-5v-6.4h49.3v6.4C97.4,114.9,95.1,117.1,92.4,117.1z"/>
<g id="XMLID_245_">
	<path id="XMLID_254_" class="st0" d="M76.4,59.2c-1.5,0-2.4,1.1-2.8,2.1L63.4,88.1c1.5,0,4,0,6,0c1.3,0,2.1-1,2.5-1.9l10.2-27
		C80.5,59.2,78.4,59.2,76.4,59.2z"/>
	<path id="XMLID_253_" class="st0" d="M63.4,88.1l2.3-6l-7.4-7.9l0,0c-0.1-0.2-0.2-0.4-0.2-0.6c0-0.2,0.1-0.4,0.2-0.6l0,0l13.1-13.9
		h-6.7c-0.8,0-1.5,0.3-2,0.8L51.5,71.7l0,0c-0.5,0.5-0.8,1.2-0.8,1.9c0,0.7,0.3,1.4,0.8,1.9l0,0L63.4,88.1L63.4,88.1
		C63.4,88.1,63.4,88.1,63.4,88.1z"/>
	<path id="XMLID_246_" class="st0" d="M94.6,73.7c0-0.7-0.3-1.4-0.8-1.9l0,0L82.1,59.2l0,0c0,0,0,0,0,0l-2.3,6l7.4,7.9l0,0
		c0.1,0.2,0.2,0.4,0.2,0.6c0,0.2-0.1,0.4-0.2,0.6l0,0L74.1,88.1h6.7c0.8,0,1.5-0.3,2-0.8h0l11.1-11.7l0,0
		C94.4,75.1,94.6,74.4,94.6,73.7z"/>
</g>
<circle id="XMLID_192_" class="st0" cx="72.7" cy="111.4" r="4.4"/>
</svg>
