<?xml version="1.0" encoding="utf-8"?>
<!-- Generator: Adobe Illustrator 19.0.0, SVG Export Plug-In . SVG Version: 6.00 Build 0)  -->
<svg version="1.1" id="Capa_1" xmlns="http://www.w3.org/2000/svg" xmlns:xlink="http://www.w3.org/1999/xlink" x="0px" y="0px"
	 viewBox="0 0 140 140" style="enable-background:new 0 0 140 140;" xml:space="preserve">
<style type="text/css">
	.st0{fill:#E62557;}
	.st1{fill:#FFFFFF;}
</style>
<g id="XMLID_267_">
	<path id="XMLID_351_" class="st0" d="M70,76.5c1.3,6.6,4.5,11.8,9.7,15.5c1.1,0.8,3.1,0.4,4.7,0.4c1.7,0,3.2,0.2,3.2,2.3
		c0,2-1.5,2.1-3.1,2.1c-17.6,0-35.1,0-52.7,0c-1.6,0-3.1-0.1-3.1-2.1c-0.1-2.2,1.6-2.6,3.2-2.3c3.9,0.7,6.4-1.2,8.7-4
		c2.8-3.5,5-7.3,5.7-12c-1.1,0-1.9,0-2.8,0c-9.4,0-18.8,0-28.1,0c-5.5,0-9.4-3.8-9.4-9.2c0-17.3,0-34.6,0-51.9C6,9.8,9.7,6.1,15.2,6
		c28.6,0,57.3,0,85.9,0c5.6,0,9.3,3.7,9.3,9.3c0,17.3,0,34.6,0,51.9c0,5.5-3.9,9.2-9.4,9.3c-9.4,0-18.8,0-28.1,0
		C72,76.5,71.1,76.5,70,76.5z"/>
	<path id="XMLID_354_" class="st1" d="M106,58.3c0-1,0-1.7,0-2.4c0-13.2,0-26.4,0-39.6c0-4.3-1.6-5.8-5.9-5.8c-28,0-56,0-84,0
		c-4.3,0-5.8,1.6-5.8,5.9c0,13.2,0,26.4,0,39.6c0,0.8,0.1,1.6,0.1,2.4C42.4,58.3,74,58.3,106,58.3z"/>
	<path id="XMLID_353_" class="st1" d="M105.9,63c-31.9,0-63.7,0-95.4,0c-0.7,6.9,0.3,9.2,8,9.1c26.6-0.2,53.2-0.1,79.8-0.1
		c6.7,0,7.9-1.2,7.7-8C106,63.8,105.9,63.5,105.9,63z"/>
	<path id="XMLID_352_" class="st1" d="M73.2,92.4c-4.4-4.8-6.8-10-7.8-15.7c-4.9,0-9.5,0-14,0c-1.1,2.9-1.8,5.7-3.1,8.3
		c-1.3,2.6-3,4.9-4.6,7.4C53.4,92.4,63,92.4,73.2,92.4z"/>
</g>
<g id="XMLID_111_">
	<path id="XMLID_119_" class="st0" d="M62.6,16c-1.7,0-2.9,1.3-3.4,2.6L46.9,51c1.8,0,4.8,0,7.2,0c1.6,0,2.5-1.2,3-2.3L69.5,16
		C67.6,16,65,16,62.6,16z"/>
	<path id="XMLID_117_" class="st0" d="M46.9,51l2.7-7.2l-9-9.5l0,0c-0.2-0.2-0.3-0.4-0.3-0.7c0-0.3,0.1-0.5,0.3-0.7l0,0L56.5,16
		h-8.1c-1,0-1.8,0.4-2.5,1L32.6,31.2l0,0c-0.6,0.6-0.9,1.4-0.9,2.3c0,0.9,0.3,1.7,0.9,2.3l0,0L46.9,51L46.9,51C47,51,47,51,46.9,51z
		"/>
	<path id="XMLID_116_" class="st0" d="M84.7,33.5c0-0.9-0.3-1.7-0.9-2.3l0,0L69.5,16l0,0c0,0,0,0,0,0l-2.7,7.3l8.9,9.5l0,0
		c0.2,0.2,0.3,0.4,0.3,0.7c0,0.3-0.1,0.5-0.3,0.7l0,0L59.9,51h8.1c1,0,1.8-0.4,2.5-1h0l13.3-14.1l0,0C84.3,35.2,84.7,34.4,84.7,33.5
		z"/>
</g>
<g id="XMLID_109_">
	<path id="XMLID_301_" class="st1" d="M129.6,103.1c0.7-10.7-7.7-17.2-16.3-17c-14.8,0.4-29.7,0.1-44.5,0.1
		c-9.7,0-16.1,6.5-15.9,16.3c0.1,4.1,2.8,20.2,4.2,24c0.9,2.3,3,3.2,5.6,3c4.8-0.3,7.9-2.8,9.6-7.2c1.3-3.5,2.6-7.1,3.9-10.6
		c0.5-1.5,1.5-2.2,3.2-2.2c8,0.1,15.9,0,23.9,0.1c1,0,2.4,0.9,2.8,1.8c1.1,2.1,1.7,4.4,2.6,6.6c1.1,2.6,2,5.3,3.5,7.7
		c2.1,3.3,5.7,4.1,9.4,3.7c3.2-0.3,4.5-3.8,5.2-5.6c0.1-0.3,0.4-0.9,0.5-1.3C128.1,117,129.5,104,129.6,103.1z"/>
	<path id="XMLID_336_" class="st0" d="M66.3,99.5c0-1.7-0.2-3.2,0.1-4.7c0.1-0.7,1-1.3,1.5-2c0.5,0.7,1.4,1.3,1.6,2
		c0.2,1.4,0.1,2.9,0.1,4.6c1.7,0,3.3-0.2,4.7,0.1c0.7,0.1,1.3,1,2,1.6c-0.6,0.5-1.2,1.4-2,1.6c-1.4,0.2-3,0.1-4.7,0.1
		c0,1.5,0,2.7,0,3.9c0,1.2,0,2.6-1.6,2.7c-1.7,0.1-1.7-1.3-1.6-2.5c0-1.2,0-2.5,0-4c-1.7,0-3.3,0.1-4.8-0.1
		c-0.7-0.1-1.2-0.9-1.8-1.4c0.6-0.6,1.1-1.6,1.7-1.7C63,99.4,64.5,99.5,66.3,99.5z"/>
	<path id="XMLID_335_" class="st0" d="M117.8,107.9c0,1.8-1.4,3.3-3.3,3.3c-1.8,0-3.1-1.3-3.2-3.1c-0.1-2,1.2-3.3,3.1-3.4
		C116.4,104.6,117.8,106,117.8,107.9z"/>
	<path id="XMLID_334_" class="st0" d="M114.5,97.8c-1.9,0-3.2-1.4-3.1-3.4c0.1-1.9,1.5-3.2,3.4-3.1c1.8,0.1,3.1,1.5,3.1,3.2
		C117.8,96.4,116.3,97.8,114.5,97.8z"/>
	<path id="XMLID_333_" class="st0" d="M121.2,98c1.8,0,3.3,1.5,3.3,3.3c0,1.8-1.6,3.2-3.4,3.2c-1.8-0.1-3.1-1.4-3.1-3.2
		C118,99.3,119.3,98,121.2,98z"/>
	<path id="XMLID_332_" class="st0" d="M111.2,101.2c0,1.8-1.5,3.3-3.3,3.2c-1.9-0.1-3.1-1.1-3.2-3.1c-0.1-2,1.2-3.3,3.1-3.3
		C109.7,98,111.2,99.4,111.2,101.2z"/>
	<path id="XMLID_331_" class="st0" d="M84.6,106.2c-1.1,0-2.2,0.2-3.3-0.1c-0.7-0.2-1.1-1-1.7-1.5c0.5-0.6,1.1-1.5,1.6-1.6
		c2.2-0.2,4.4-0.2,6.6,0c0.6,0.1,1.1,1,1.7,1.6c-0.6,0.5-1.2,1.4-1.9,1.6C86.7,106.4,85.6,106.2,84.6,106.2z"/>
	<path id="XMLID_330_" class="st0" d="M97.9,106.2c-1,0-2.1,0.2-3-0.1c-0.7-0.2-1.3-1-1.9-1.6c0.6-0.5,1.1-1.5,1.7-1.5
		c2.2-0.2,4.4-0.2,6.6,0c0.6,0.1,1.1,1.1,1.6,1.6c-0.6,0.5-1.1,1.4-1.7,1.5C100.1,106.4,99,106.2,97.9,106.2z"/>
	<path id="XMLID_318_" class="st0" d="M119.2,81.9c-1.8-0.3-3.6-0.4-5.5-0.5H65.8c-9.7,0.6-17.5,9.1-17.5,19.3
		c0,4.8,3,26.8,4.5,28.8c1.4,2.2,3.2,3.9,5.8,4.2c7.1,0.9,14.6-1,17.4-7.8c1.4-3.4,2.5-7,3.7-10.5c0.5-1.4,1.2-1.9,2.7-1.9
		c6.6,0.1,10.6,0.2,17.2,0c2.5-0.1,3.5,0.7,4.3,3.2c1.3,4.2,2.7,8.4,4.8,12.2c2.9,5.3,8.6,5.5,14.1,4.9c4.6-0.5,6.5-4.4,7.9-8.4
		c0.4-1,1.8-6.9,1.9-8c0.7-7.5,1.1-9,1.4-16.5C134.4,91.6,128,83.4,119.2,81.9z M129.6,103.1c-0.1,0.9-1.5,13.8-2.4,19.4
		c-0.1,0.5-0.3,1-0.5,1.3c-0.7,1.8-2,5.3-5.2,5.6c-3.7,0.3-7.3-0.4-9.4-3.7c-1.5-2.4-2.4-5.1-3.5-7.7c-0.9-2.2-1.5-4.5-2.6-6.6
		c-0.5-0.9-1.8-1.8-2.8-1.8c-8-0.1-15.9,0-23.9-0.1c-1.7,0-2.6,0.7-3.2,2.2c-1.3,3.6-2.6,7.1-3.9,10.6c-1.7,4.4-4.8,6.8-9.6,7.2
		c-2.6,0.2-4.7-0.7-5.6-3c-1.4-3.8-4.1-19.9-4.2-24c-0.2-9.8,6.2-16.3,15.9-16.3c14.8,0,29.7,0.3,44.5-0.1
		C121.9,85.9,130.3,92.4,129.6,103.1z"/>
</g>
</svg>
