<?xml version="1.0" encoding="utf-8"?>
<!-- Generator: Adobe Illustrator 19.0.0, SVG Export Plug-In . SVG Version: 6.00 Build 0)  -->
<svg version="1.1" id="Capa_1" xmlns="http://www.w3.org/2000/svg" xmlns:xlink="http://www.w3.org/1999/xlink" x="0px" y="0px"
	 viewBox="-31 154.6 532.3 532.3" style="enable-background:new -31 154.6 532.3 532.3;" xml:space="preserve">
<style type="text/css">
	.st0{fill:#E41853;}
</style>
<g>
	<g>
		<path class="st0" d="M319.4,296.4c26.5,0,48.1-21.6,48.1-48.1s-21.6-48.1-48.1-48.1s-48.1,21.6-48.1,48.1S292.8,296.4,319.4,296.4
			z M319.4,216.2c17.7,0,32.1,14.4,32.1,32.1s-14.4,32.1-32.1,32.1c-0.9,0-1.8-0.2-2.7-0.3c6.5-5.9,10.7-14.3,10.7-23.8h-16
			c0,7.9-5.8,14.5-13.3,15.8c-6.5-5.9-10.7-14.3-10.7-23.8C287.3,230.6,301.7,216.2,319.4,216.2z"/>
		<path class="st0" d="M70.8,392.7c26.5,0,48.1-21.6,48.1-48.1c0-26.5-21.6-48.1-48.1-48.1S22.6,318,22.6,344.6
			C22.6,371.1,44.2,392.7,70.8,392.7z M70.8,312.5c17.7,0,32.1,14.4,32.1,32.1c0,9.5-4.2,17.9-10.7,23.8
			c-7.5-1.3-13.3-7.9-13.3-15.8h-16c0,9.5,4.2,17.9,10.7,23.8c-0.9,0.1-1.8,0.3-2.7,0.3c-17.7,0-32.1-14.4-32.1-32.1
			C38.7,326.9,53.1,312.5,70.8,312.5z"/>
		<path class="st0" d="M458.2,208.6l-48.1-16c-2.5-0.8-5.1-0.4-7.2,1.1c-2.1,1.5-3.3,3.9-3.3,6.5v64.2v40.1H287.3
			c-1.9,0-3.7,0.7-5.1,1.9L234,346.4c-0.8,0.7-1.5,1.6-2,2.6l-22.7,45.5l-50.6,21.7l-45.2-15.1c-0.8-0.3-1.7-0.4-2.5-0.4H46.7
			c-22.1,0-40.1,18-40.1,40.1V529c0,4.4,3.6,8,8,8h24.1v96.2H6.6v16h40.1h40.1h32.1c4.4,0,8-3.6,8-8v-40.1h16H183h56.1
			c4.4,0,8-3.6,8-8v-40.1h48.1h40.1c4.4,0,8-3.6,8-8v-40.1h48.1h40.1h24.1v-16h-16v-64.2c0-22.1-18-40.1-40.1-40.1h-32.1v-32.1h40.1
			c22.1,0,40.1-18,40.1-40.1v-48.1c0-4.4-3.6-8-8-8h-24.1v-18.3l42.6-14.2c3.3-1.1,5.5-4.2,5.5-7.6S461.5,209.7,458.2,208.6z
			 M331.6,320.5l-4.2,10.5l-4.2-10.5H331.6z M118.9,585.1c-4.4,0-8,3.6-8,8v40.1h-16V537h40.1v48.1H118.9z M150.9,585.1V529
			c0-4.4-3.6-8-8-8H86.8c-4.4,0-8,3.6-8,8v104.3H54.7V448.8h-16V521h-16v-80.2c0-13.3,10.8-24.1,24.1-24.1h24.1v56.1h16v-56.1h22.8
			l46.9,15.6c1.9,0.6,3.9,0.5,5.7-0.2l50-21.4l4.9,7.3l2.4,3.6l-53.8,26.9l-53.6-7.7c-2.3-0.3-4.6,0.4-6.4,1.9
			c-1.7,1.5-2.8,3.7-2.8,6.1v40.1c0,4.4,3.6,8,8,8h40.1c13.3,0,24.1,10.8,24.1,24.1v64.2H150.9z M239.2,537c-4.4,0-8,3.6-8,8v40.1
			H191V521c0-22.1-18-40.1-40.1-40.1h-32.1v-22.8l47,6.7c1.6,0.2,3.3,0,4.7-0.8l64.2-32.1c1.2-0.6,2.1-1.5,2.8-2.5
			c0.1-0.1,0.2-0.1,0.2-0.2l31.3-47l18.1-13.6V537H239.2z M383.5,488.9h-40.1v-48.1h40.1V488.9z M431.6,312.5
			c0,13.3-10.8,24.1-24.1,24.1h-48.1c-4.4,0-8,3.6-8,8v48.1c0,4.4,3.6,8,8,8h40.1c13.3,0,24.1,10.8,24.1,24.1v64.2h-24.1v-56.1
			c0-4.4-3.6-8-8-8h-56.1c-4.4,0-8,3.6-8,8v64.2V537h-24.1V352.6c0-3-1.7-5.8-4.4-7.2c-2.7-1.3-6-1.1-8.4,0.8l-32.1,24.1
			c-0.7,0.5-1.4,1.2-1.9,2l-25.4,38.1l-6.8-10.2l21.2-42.4l44.6-37.2h15.7l14,35.1c1.2,3,4.2,5,7.5,5s6.2-2,7.5-5l14-35.1h58.7
			c4.4,0,8-3.6,8-8v-40.1h16V312.5z M415.6,221.2v-9.8l14.7,4.9L415.6,221.2z"/>
		<rect x="199.1" y="232.3" class="st0" width="16" height="16"/>
		<rect x="167" y="232.3" class="st0" width="16" height="16"/>
		<rect x="134.9" y="232.3" class="st0" width="16" height="16"/>
	</g>
</g>
</svg>
