<?xml version="1.0" encoding="utf-8"?>
<!-- Generator: Adobe Illustrator 19.0.0, SVG Export Plug-In . SVG Version: 6.00 Build 0)  -->
<svg version="1.1" id="Capa_1" xmlns="http://www.w3.org/2000/svg" xmlns:xlink="http://www.w3.org/1999/xlink" x="0px" y="0px"
	 viewBox="-31 154.6 532.3 532.3" style="enable-background:new -31 154.6 532.3 532.3;" xml:space="preserve">
<style type="text/css">
	.st0{fill:#E31E55;}
</style>
<g>
	<g>
		<g>
			<path class="st0" d="M410.6,254.2c1.6,1.5,3.6,2.3,5.6,2.3c2,0,4-0.8,5.6-2.3l27.7-26.7c3.2-3.1,3.3-8.2,0.2-11.4
				c-3.1-3.2-8.2-3.3-11.4-0.2l-22.1,21.3l-10.8-10.4c-3.2-3.1-8.3-3-11.4,0.2c-3.1,3.2-3,8.3,0.2,11.4L410.6,254.2z"/>
			<path class="st0" d="M421.8,553c-14.8,0-28.4,5-39.3,13.5l-36.1-36.1c-3.2-3.2-8.3-3.2-11.4,0c-3.2,3.2-3.2,8.3,0,11.4l36.1,36.1
				c-8.4,10.9-13.5,24.5-13.5,39.3c0,35.4,28.8,64.2,64.2,64.2c35.4,0,64.2-28.8,64.2-64.2C486,581.7,457.2,553,421.8,553z
				 M421.8,665.1c-26.5,0-48-21.5-48-48c0-26.5,21.5-48,48-48c26.5,0,48,21.5,48,48C469.8,643.6,448.3,665.1,421.8,665.1z"/>
			<path class="st0" d="M438.3,599.5l-22.1,21.3l-10.8-10.4c-3.2-3.1-8.3-3-11.4,0.2c-3.1,3.2-3,8.3,0.2,11.4l16.5,15.8
				c1.6,1.5,3.6,2.3,5.6,2.3c2,0,4-0.8,5.6-2.3l27.7-26.7c3.2-3.1,3.3-8.2,0.2-11.4C446.6,596.5,441.5,596.4,438.3,599.5z"/>
			<path class="st0" d="M38.2,297.6c14.8,0,28.4-5,39.3-13.5l58.2,58.2c1.6,1.6,3.6,2.4,5.7,2.4s4.1-0.8,5.7-2.4
				c3.2-3.2,3.2-8.3,0-11.4l-58.2-58.2c8.4-10.9,13.5-24.5,13.5-39.3c0-35.4-28.8-64.2-64.2-64.2c-35.4,0-64.2,28.8-64.2,64.2
				C-26,268.8,2.8,297.6,38.2,297.6z M38.2,185.5c26.5,0,48,21.5,48,48c0,26.5-21.5,48-48,48c-26.5,0-48-21.5-48-48
				C-9.8,207,11.7,185.5,38.2,185.5z"/>
			<path class="st0" d="M27,254.2c1.6,1.5,3.6,2.3,5.6,2.3c2,0,4-0.8,5.6-2.3l27.7-26.7c3.2-3.1,3.3-8.2,0.2-11.4
				c-3.1-3.2-8.2-3.3-11.4-0.2l-22.1,21.3l-10.8-10.4c-3.2-3.1-8.3-3-11.4,0.2c-3.1,3.2-3,8.3,0.2,11.4L27,254.2z"/>
			<path class="st0" d="M54.6,599.5l-22.1,21.3l-10.8-10.4c-3.2-3.1-8.3-3-11.4,0.2c-3.1,3.2-3,8.3,0.2,11.4L27,637.8
				c1.6,1.5,3.6,2.3,5.6,2.3c2,0,4-0.8,5.6-2.3l27.7-26.7c3.2-3.1,3.3-8.2,0.2-11.4C63,596.5,57.8,596.4,54.6,599.5z"/>
			<path class="st0" d="M315,348.4c2.1,0,4.1-0.8,5.7-2.4l61.9-61.9c10.9,8.4,24.5,13.5,39.3,13.5c35.4,0,64.2-28.8,64.2-64.2
				c0-35.4-28.8-64.2-64.2-64.2c-35.4,0-64.2,28.8-64.2,64.2c0,14.8,5,28.4,13.5,39.3l-61.9,61.9c-3.2,3.2-3.2,8.3,0,11.4
				C310.8,347.6,312.9,348.4,315,348.4z M421.8,185.5c26.5,0,48,21.5,48,48c0,26.5-21.5,48-48,48c-26.5,0-48-21.5-48-48
				C373.8,207,395.4,185.5,421.8,185.5z"/>
			<path class="st0" d="M113.6,530.3l-36.1,36.1C66.6,558,53,553,38.2,553C2.8,553-26,581.7-26,617.1s28.8,64.2,64.2,64.2
				c35.4,0,64.2-28.8,64.2-64.2c0-14.8-5-28.4-13.5-39.3l36.1-36.1c3.2-3.2,3.2-8.3,0-11.4C121.8,527.1,116.7,527.1,113.6,530.3z
				 M38.2,665.1c-26.5,0-48-21.5-48-48c0-26.5,21.5-48,48-48c26.5,0,48,21.5,48,48C86.2,643.6,64.6,665.1,38.2,665.1z"/>
			<path class="st0" d="M292.6,446.3l-35.9-14.4v-6c9.8-5.6,17.3-14.8,20.7-25.8c12.7-0.7,22.8-11.3,22.8-24.2
				c0-7.7-3.6-14.6-9.2-19v-16.1c0-32.4-26.4-58.8-58.8-58.8h-4.2c-32.4,0-58.8,26.4-58.8,58.8v16c-5.7,4.4-9.3,11.3-9.3,19.1
				c0,13,10.3,23.6,23.1,24.2c3.4,11,10.9,20.1,20.7,25.7v5.9l-36.9,14.4c-3.2,1.1-31.3,12.3-31.3,48V526c0,4.5,3.6,8.1,8.1,8.1
				h28.2c4.5,0,8.1-3.6,8.1-8.1s-3.6-8.1-8.1-8.1h-20.1v-23.6c0-25.2,19.8-32.5,20.5-32.8c0.1,0,0.2-0.1,0.4-0.1l33.8-13.2
				l18.1,17.6c1.5,1.5,3.5,2.3,5.6,2.3c0,0,0.1,0,0.1,0c2.2,0,4.2-0.9,5.7-2.5l17.1-17.7l33.7,13.5c0.1,0.1,0.3,0.1,0.4,0.2
				c0.2,0.1,20.5,7.2,20.5,32.8v23.6H257h-53.2H200c-4.5,0-8.1,3.6-8.1,8.1s3.6,8.1,8.1,8.1h3.8H257h58.8c4.5,0,8.1-3.7,8.1-8.1
				v-31.6C323.8,458.7,295.9,447.5,292.6,446.3z M279.4,369.6c0.7,0.3,1.4,0.6,2.2,0.7c1.5,1.5,2.4,3.5,2.4,5.7c0,3.2-1.9,6-4.6,7.3
				L279.4,369.6L279.4,369.6z M180.9,383.4c-2.9-1.2-4.9-4.1-4.9-7.4c0-2.1,0.8-4.1,2.2-5.5c1-0.1,1.9-0.4,2.7-0.8V383.4z
				 M189,346.9C189,346.9,189,346.9,189,346.9c-0.3,0-0.6,0-0.9,0c-0.1,0-0.2,0-0.3,0c-0.2,0-0.4,0-0.5,0.1c-0.1,0-0.2,0.1-0.4,0.1
				c-0.1,0-0.3,0.1-0.4,0.1c-0.1,0-0.3,0.1-0.4,0.2c-0.1,0-0.2,0.1-0.3,0.1c-0.2,0.1-0.3,0.2-0.5,0.2c0,0,0,0,0,0v-6.9
				c0-23.5,19.1-42.7,42.7-42.7h4.2c23.5,0,42.6,19.1,42.6,42.7v6.8c-0.1,0-0.1-0.1-0.2-0.1c-0.1-0.1-0.3-0.1-0.4-0.2
				c-0.1,0-0.2-0.1-0.3-0.1c-0.2-0.1-0.3-0.1-0.5-0.1c-0.1,0-0.1,0-0.2-0.1c-12.8-2.9-16.9-19.8-17-19.9c-0.7-3.1-3.2-5.5-6.3-6.1
				c-3.1-0.6-6.3,0.6-8.2,3.2C225.5,346.7,189.4,346.9,189,346.9z M240.5,437.5C240.5,437.5,240.5,437.5,240.5,437.5l-10.6,11
				l-10-9.8v-7.3c2.1,0.3,4.1,0.4,6.3,0.4h8.1c2.1,0,4.2-0.2,6.3-0.4L240.5,437.5L240.5,437.5z M234.2,415.8h-8.1
				c-16,0-29.1-13-29.1-29.1v-24h0c11.4-1.2,32.6-5.2,48.6-18.9c3.5,6.3,9.1,13.2,17.6,17.1v25.9
				C263.3,402.7,250.2,415.8,234.2,415.8z"/>
		</g>
	</g>
</g>
</svg>
