<?xml version="1.0" encoding="utf-8"?>
<!-- Generator: Adobe Illustrator 19.0.0, SVG Export Plug-In . SVG Version: 6.00 Build 0)  -->
<svg version="1.1" id="Capa_1" xmlns="http://www.w3.org/2000/svg" xmlns:xlink="http://www.w3.org/1999/xlink" x="0px" y="0px"
	 viewBox="-31 154.6 532.3 532.3" style="enable-background:new -31 154.6 532.3 532.3;" xml:space="preserve">
<style type="text/css">
	.st0{fill:#E42256;}
</style>
<g>
	<g id="Layer_5_58_">
		<g>
			<g>
				<path class="st0" d="M355,320.3c-14.4-5.8-18.6-9.3-18.6-15.6c0-5.1,3.8-11,14.6-11c9.5,0,16.9,3.8,16.9,3.8
					c0.8,0.4,1.6,0.6,2.5,0.6c2.1,0,3.9-1.3,4.7-3.2l2.6-6.7c0.9-2.4-0.5-4.6-2.2-5.3c-5.9-2.6-17.4-4.5-17.5-4.6
					c-0.2,0-0.8-0.2-0.8-0.9l0-9.7c0-2.9-2.4-5.3-5.4-5.3H347c-3,0-5.4,2.4-5.4,5.3l0,10.2c0,0.8-0.8,1.1-1.2,1.2
					c-14.5,3.5-23.6,14.1-23.6,27.5c0,16.7,13.8,24.3,28.7,29.9c11.9,4.7,16.8,9.4,16.8,16.4c0,7.6-6.9,12.9-16.8,12.9
					c-8.4,0-19.8-5.3-19.9-5.4c-0.7-0.3-1.5-0.5-2.3-0.5c-2.2,0-4.1,1.3-4.8,3.3l-2.5,6.8c-0.9,2.5,0.5,4.6,2.2,5.5
					c7,3.6,20.6,5.8,21.2,5.9c0.2,0,1,0.3,1,1.1v10.2c0,2.9,2.4,5.3,5.5,5.3h4.9c3,0,5.5-2.4,5.5-5.3v-10.7c0-1,0.7-1.1,0.9-1.1
					c15.5-3.5,25-14.8,25-29C382.1,337.2,374,327.8,355,320.3z"/>
				<path class="st0" d="M348.9,202.4c-70.5,0-127.7,57.2-127.7,127.7c0,70.5,57.2,127.7,127.7,127.7c70.5,0,127.7-57.2,127.7-127.7
					C476.7,259.6,419.5,202.4,348.9,202.4z M348.9,428.3c-54.2,0-98.1-43.9-98.1-98.1s43.9-98.1,98.1-98.1
					c54.2,0,98.1,43.9,98.1,98.1S403.1,428.3,348.9,428.3z"/>
			</g>
			<g>
				<path class="st0" d="M450.7,519.7c-27.2,15-64.5,28.8-101.8,34.7c-33.1,5.2-95.5-7.3-95.5-22.1c0-5.6,54.7,13.8,87.8,5
					c25.4-6.8,21.8-30.5,8-33.6c-13.7-3.1-94.1-32.6-128.4-33.6c-16.2-0.5-56.1,5.6-75.4,8.8c-6.6,1.1-10.8,1-11.2,7.3
					c-1.9,29.4-5.7,89.6-7.8,121.1c0,0.7,0.9,9.6,8.3,3.3c8.1-6.9,19.4-14.5,29.9-12.1c16.4,3.7,158.5,29.8,178.1,25.2
					c28-6.5,107.4-53.5,122.6-68.2C488.8,532.8,470.5,508.8,450.7,519.7z"/>
				<path class="st0" d="M95,477.7l-74.4-3.7c-5.7-0.3-11.6,4-13,9.6L-6,606.5c-1.4,5.6,2.1,10.3,7.9,10.5l82.5,0
					c5.8,0.2,10.8-4.3,11.3-10l9.1-118.4C105.1,482.9,100.7,478,95,477.7z M51.2,600.8c-11.4,0-20.6-9.2-20.6-20.6
					c0-11.4,9.2-20.6,20.6-20.6s20.6,9.2,20.6,20.6C71.7,591.6,62.5,600.8,51.2,600.8z"/>
			</g>
		</g>
	</g>
</g>
<rect x="230" y="321.5" transform="matrix(0.8939 -0.4483 0.4483 0.8939 -111.0555 189.5304)" class="st0" width="229.5" height="15.7"/>
</svg>
