<?xml version="1.0" encoding="utf-8"?>
<!-- Generator: Adobe Illustrator 19.0.0, SVG Export Plug-In . SVG Version: 6.00 Build 0)  -->
<svg version="1.1" id="Capa_1" xmlns="http://www.w3.org/2000/svg" xmlns:xlink="http://www.w3.org/1999/xlink" x="0px" y="0px"
	 viewBox="0 7 300 188" style="enable-background:new 0 7 300 188;" xml:space="preserve">
<style type="text/css">
	.st0{fill:#FFFFFF;}
	.st1{fill:url(#XMLID_2_);}
	.st2{fill:url(#XMLID_3_);}
</style>
<g id="XMLID_1305_">
	<path id="XMLID_1308_" class="st0" d="M157.7,10.2c-3.3,0-5.5,2.5-6.3,4.8l-23,60.4c3.4,0,9,0,13.5,0c3,0,4.7-2.3,5.6-4.3l23-60.9
		C167.1,10.2,162.2,10.2,157.7,10.2z"/>
	<linearGradient id="XMLID_2_" gradientUnits="userSpaceOnUse" x1="152.0031" y1="55.5412" x2="128.0744" y2="34.8488">
		<stop  offset="0" style="stop-color:#1D1E17"/>
		<stop  offset="2.189708e-02" style="stop-color:#30312B"/>
		<stop  offset="7.759911e-02" style="stop-color:#5B5C57"/>
		<stop  offset="0.139" style="stop-color:#82837F"/>
		<stop  offset="0.2049" style="stop-color:#A4A5A2"/>
		<stop  offset="0.2764" style="stop-color:#C0C1BF"/>
		<stop  offset="0.3554" style="stop-color:#D8D8D6"/>
		<stop  offset="0.4453" style="stop-color:#E9E9E9"/>
		<stop  offset="0.5522" style="stop-color:#F6F6F5"/>
		<stop  offset="0.693" style="stop-color:#FDFDFD"/>
		<stop  offset="1" style="stop-color:#FFFFFF"/>
	</linearGradient>
	<path id="XMLID_1307_" class="st1" d="M128.4,75.4l5.1-13.5l-16.7-17.8l0,0c-0.3-0.4-0.5-0.8-0.5-1.3c0-0.5,0.2-1,0.5-1.3l0,0
		l29.5-31.3h-15c-1.8,0-3.4,0.7-4.6,1.8l-24.9,26.4l0,0c-1.1,1.2-1.7,2.7-1.7,4.4c0,1.7,0.6,3.2,1.7,4.4l0,0L128.4,75.4h0.1
		C128.5,75.4,128.4,75.4,128.4,75.4z"/>
	<linearGradient id="XMLID_3_" gradientUnits="userSpaceOnUse" x1="146.8832" y1="32.6166" x2="175.4051" y2="52.4762">
		<stop  offset="0" style="stop-color:#1D1E17"/>
		<stop  offset="2.189708e-02" style="stop-color:#30312B"/>
		<stop  offset="7.759911e-02" style="stop-color:#5B5C57"/>
		<stop  offset="0.139" style="stop-color:#82837F"/>
		<stop  offset="0.2049" style="stop-color:#A4A5A2"/>
		<stop  offset="0.2764" style="stop-color:#C0C1BF"/>
		<stop  offset="0.3554" style="stop-color:#D8D8D6"/>
		<stop  offset="0.4453" style="stop-color:#E9E9E9"/>
		<stop  offset="0.5522" style="stop-color:#F6F6F5"/>
		<stop  offset="0.693" style="stop-color:#FDFDFD"/>
		<stop  offset="1" style="stop-color:#FFFFFF"/>
	</linearGradient>
	<path id="XMLID_1306_" class="st2" d="M198.8,42.8c0-1.7-0.6-3.2-1.7-4.4l0,0l-26.6-28.2l0,0c0,0,0,0,0,0l-5.1,13.6l16.7,17.7l0,0
		c0.3,0.4,0.5,0.8,0.5,1.3c0,0.5-0.2,1-0.5,1.3l0,0l-29.5,31.3h15c1.8,0,3.4-0.7,4.6-1.8h0l24.9-26.4l0,0
		C198.2,46,198.8,44.5,198.8,42.8z"/>
</g>
<g id="XMLID_1141_">
	<g>
		<path id="XMLID_392_" class="st0" d="M15.3,173.1h9.4v2.3h-7.2v4.8h6.1v2.2h-6.1v6.9h-2.2V173.1z"/>
		<path id="XMLID_389_" class="st0" d="M27.4,181.2c0-1.9,0.1-3.1,0.2-3.8c0.1-0.6,0.3-1.2,0.5-1.5c0.4-0.7,0.9-1.4,1.7-2
			c0.8-0.6,1.7-0.9,2.9-0.9c1.2,0,2.2,0.3,2.9,0.9c0.8,0.6,1.3,1.2,1.7,2c0.2,0.4,0.4,0.9,0.5,1.5c0.1,0.6,0.1,1.9,0.1,3.8
			c0,1.8,0,3.1-0.1,3.7c-0.1,0.6-0.3,1.2-0.5,1.6c-0.3,0.7-0.9,1.4-1.7,2c-0.8,0.6-1.8,0.9-2.9,0.9c-1.2,0-2.1-0.3-2.9-0.9
			c-0.8-0.6-1.4-1.2-1.7-2c-0.1-0.2-0.2-0.5-0.3-0.7c-0.1-0.2-0.1-0.5-0.2-0.9C27.4,184.2,27.4,183,27.4,181.2z M29.6,181.2
			c0,1.6,0.1,2.7,0.2,3.2c0.1,0.6,0.3,1,0.6,1.4c0.2,0.3,0.5,0.6,0.9,0.8c0.4,0.2,0.8,0.4,1.4,0.4c0.5,0,1-0.1,1.4-0.4
			c0.4-0.2,0.7-0.5,0.9-0.8c0.3-0.3,0.5-0.8,0.6-1.4c0.1-0.6,0.2-1.6,0.2-3.2s-0.1-2.7-0.2-3.3c-0.1-0.5-0.3-1-0.6-1.3
			c-0.2-0.3-0.5-0.6-0.9-0.8c-0.4-0.2-0.9-0.3-1.4-0.3c-0.5,0-1,0.1-1.4,0.3c-0.4,0.2-0.7,0.5-0.9,0.8c-0.3,0.3-0.5,0.8-0.6,1.3
			C29.7,178.5,29.6,179.6,29.6,181.2z"/>
		<path id="XMLID_386_" class="st0" d="M42,173.1h5.8c1.2,0,2.2,0.4,3,1.1c0.9,0.8,1.4,2,1.5,3.4c0,2.2-1,3.7-2.8,4.5l3.4,7.2h-2.7
			l-3.1-6.9h-2.9v6.9H42V173.1z M44.2,180.2h3.4c0.8,0,1.5-0.3,1.9-0.8c0.4-0.5,0.6-1.1,0.6-1.8c0-0.8-0.3-1.5-0.7-1.8
			c-0.4-0.3-0.9-0.5-1.6-0.5h-3.5V180.2z"/>
		<path id="XMLID_384_" class="st0" d="M56.1,173.1h2.1l4.2,10.5l4.1-10.5h2.1v16.1h-2.2v-10.1h-0.1l-3.1,7.8h-1.9l-3.1-7.8h0v10.1
			h-2.2V173.1z"/>
		<path id="XMLID_381_" class="st0" d="M81,185.6h-5.6l-1.1,3.6h-2.4l5.4-16.1h1.9l5.4,16.1h-2.4L81,185.6z M80.3,183.4l-2.1-7.1h0
			l-2.1,7.1H80.3z"/>
		<path id="XMLID_379_" class="st0" d="M97.1,184.7c-0.3,1.5-0.9,2.6-1.9,3.4c-0.9,0.8-2,1.2-3.3,1.2c-1.2,0-2.1-0.3-2.9-0.9
			c-0.8-0.6-1.4-1.2-1.7-2c-0.1-0.2-0.2-0.5-0.3-0.7c-0.1-0.2-0.1-0.5-0.2-0.9c-0.1-0.6-0.2-1.9-0.2-3.7c0-1.9,0.1-3.1,0.2-3.8
			c0.1-0.6,0.3-1.1,0.5-1.5c0.4-0.7,0.9-1.4,1.7-2c0.8-0.6,1.7-0.9,2.9-0.9c1.4,0,2.6,0.5,3.5,1.4c0.9,0.9,1.5,2,1.7,3.4h-2.4
			c-0.2-0.7-0.5-1.2-1-1.7c-0.5-0.4-1.1-0.7-1.8-0.7c-0.5,0-1,0.1-1.4,0.3c-0.4,0.2-0.7,0.5-0.9,0.8c-0.3,0.3-0.5,0.8-0.6,1.3
			c-0.1,0.6-0.2,1.7-0.2,3.3s0.1,2.7,0.2,3.2c0.1,0.6,0.3,1,0.6,1.4c0.2,0.3,0.5,0.6,0.9,0.8c0.4,0.2,0.8,0.4,1.4,0.4
			c1.3,0,2.2-0.7,2.8-2.2H97.1z"/>
		<path id="XMLID_377_" class="st0" d="M100.1,173.1h2.2v16.1h-2.2V173.1z"/>
		<path id="XMLID_373_" class="st0" d="M106.2,181.2c0-1.9,0.1-3.1,0.2-3.8c0.1-0.6,0.3-1.2,0.5-1.5c0.4-0.7,0.9-1.4,1.7-2
			c0.8-0.6,1.7-0.9,2.9-0.9c1.2,0,2.2,0.3,2.9,0.9c0.8,0.6,1.3,1.2,1.7,2c0.2,0.4,0.4,0.9,0.5,1.5c0.1,0.6,0.1,1.9,0.1,3.8
			c0,1.8,0,3.1-0.1,3.7c-0.1,0.6-0.3,1.2-0.5,1.6c-0.3,0.7-0.9,1.4-1.7,2c-0.8,0.6-1.8,0.9-2.9,0.9c-1.2,0-2.1-0.3-2.9-0.9
			c-0.8-0.6-1.4-1.2-1.7-2c-0.1-0.2-0.2-0.5-0.3-0.7c-0.1-0.2-0.1-0.5-0.2-0.9C106.2,184.2,106.2,183,106.2,181.2z M108.4,181.2
			c0,1.6,0.1,2.7,0.2,3.2c0.1,0.6,0.3,1,0.6,1.4c0.2,0.3,0.5,0.6,0.9,0.8c0.4,0.2,0.8,0.4,1.4,0.4c0.5,0,1-0.1,1.4-0.4
			c0.4-0.2,0.7-0.5,0.9-0.8c0.3-0.3,0.5-0.8,0.6-1.4c0.1-0.6,0.2-1.6,0.2-3.2s-0.1-2.7-0.2-3.3c-0.1-0.5-0.3-1-0.6-1.3
			c-0.2-0.3-0.5-0.6-0.9-0.8c-0.4-0.2-0.9-0.3-1.4-0.3c-0.5,0-1,0.1-1.4,0.3c-0.4,0.2-0.7,0.5-0.9,0.8c-0.3,0.3-0.5,0.8-0.6,1.3
			C108.5,178.5,108.4,179.6,108.4,181.2z M112,169h2.8l-2.9,3.3h-1.7L112,169z"/>
		<path id="XMLID_371_" class="st0" d="M120.8,173.1h2.1l6.7,11.5h0v-11.5h2.2v16.1h-2.1l-6.7-11.5h0v11.5h-2.2V173.1z"/>
		<path id="XMLID_369_" class="st0" d="M145.2,175.3h-4v-2.2h10.3v2.2h-4v14h-2.2V175.3z"/>
		<path id="XMLID_367_" class="st0" d="M154.5,173.1h9.4v2.3h-7.2v4.6h6.1v2.2h-6.1v4.8h7.2v2.3h-9.4V173.1z"/>
		<path id="XMLID_365_" class="st0" d="M177.4,184.7c-0.3,1.5-0.9,2.6-1.9,3.4c-0.9,0.8-2,1.2-3.3,1.2c-1.2,0-2.1-0.3-2.9-0.9
			c-0.8-0.6-1.4-1.2-1.7-2c-0.1-0.2-0.2-0.5-0.3-0.7c-0.1-0.2-0.1-0.5-0.2-0.9c-0.1-0.6-0.2-1.9-0.2-3.7c0-1.9,0.1-3.1,0.2-3.8
			c0.1-0.6,0.3-1.1,0.5-1.5c0.4-0.7,0.9-1.4,1.7-2c0.8-0.6,1.7-0.9,2.9-0.9c1.4,0,2.6,0.5,3.5,1.4c0.9,0.9,1.5,2,1.7,3.4H175
			c-0.2-0.7-0.5-1.2-1-1.7c-0.5-0.4-1.1-0.7-1.8-0.7c-0.5,0-1,0.1-1.4,0.3c-0.4,0.2-0.7,0.5-0.9,0.8c-0.3,0.3-0.5,0.8-0.6,1.3
			c-0.1,0.6-0.2,1.7-0.2,3.3s0.1,2.7,0.2,3.2c0.1,0.6,0.3,1,0.6,1.4c0.2,0.3,0.5,0.6,0.9,0.8c0.4,0.2,0.8,0.4,1.4,0.4
			c1.3,0,2.2-0.7,2.8-2.2H177.4z"/>
		<path id="XMLID_363_" class="st0" d="M180.4,173.1h2.1l6.7,11.5h0v-11.5h2.2v16.1h-2.1l-6.7-11.5h0v11.5h-2.2V173.1z"/>
		<path id="XMLID_360_" class="st0" d="M195.6,181.2c0-1.9,0.1-3.1,0.2-3.8c0.1-0.6,0.3-1.2,0.5-1.5c0.4-0.7,0.9-1.4,1.7-2
			c0.8-0.6,1.7-0.9,2.9-0.9c1.2,0,2.2,0.3,2.9,0.9c0.8,0.6,1.3,1.2,1.7,2c0.2,0.4,0.4,0.9,0.5,1.5c0.1,0.6,0.1,1.9,0.1,3.8
			c0,1.8,0,3.1-0.1,3.7c-0.1,0.6-0.3,1.2-0.5,1.6c-0.3,0.7-0.9,1.4-1.7,2c-0.8,0.6-1.8,0.9-2.9,0.9c-1.2,0-2.1-0.3-2.9-0.9
			c-0.8-0.6-1.4-1.2-1.7-2c-0.1-0.2-0.2-0.5-0.3-0.7c-0.1-0.2-0.1-0.5-0.2-0.9C195.7,184.2,195.6,183,195.6,181.2z M197.9,181.2
			c0,1.6,0.1,2.7,0.2,3.2c0.1,0.6,0.3,1,0.6,1.4c0.2,0.3,0.5,0.6,0.9,0.8c0.4,0.2,0.8,0.4,1.4,0.4c0.5,0,1-0.1,1.4-0.4
			c0.4-0.2,0.7-0.5,0.9-0.8c0.3-0.3,0.5-0.8,0.6-1.4c0.1-0.6,0.2-1.6,0.2-3.2s-0.1-2.7-0.2-3.3c-0.1-0.5-0.3-1-0.6-1.3
			c-0.2-0.3-0.5-0.6-0.9-0.8c-0.4-0.2-0.9-0.3-1.4-0.3c-0.5,0-1,0.1-1.4,0.3c-0.4,0.2-0.7,0.5-0.9,0.8c-0.3,0.3-0.5,0.8-0.6,1.3
			C197.9,178.5,197.9,179.6,197.9,181.2z"/>
		<path id="XMLID_358_" class="st0" d="M210.2,173.1h2.2v13.8h7.2v2.3h-9.4V173.1z"/>
		<path id="XMLID_354_" class="st0" d="M222.7,181.2c0-1.9,0.1-3.1,0.2-3.8c0.1-0.6,0.3-1.2,0.5-1.5c0.4-0.7,0.9-1.4,1.7-2
			c0.8-0.6,1.7-0.9,2.9-0.9c1.2,0,2.2,0.3,2.9,0.9c0.8,0.6,1.3,1.2,1.7,2c0.2,0.4,0.4,0.9,0.5,1.5c0.1,0.6,0.1,1.9,0.1,3.8
			c0,1.8,0,3.1-0.1,3.7c-0.1,0.6-0.3,1.2-0.5,1.6c-0.3,0.7-0.9,1.4-1.7,2c-0.8,0.6-1.8,0.9-2.9,0.9c-1.2,0-2.1-0.3-2.9-0.9
			c-0.8-0.6-1.4-1.2-1.7-2c-0.1-0.2-0.2-0.5-0.3-0.7c-0.1-0.2-0.1-0.5-0.2-0.9C222.8,184.2,222.7,183,222.7,181.2z M225,181.2
			c0,1.6,0.1,2.7,0.2,3.2c0.1,0.6,0.3,1,0.6,1.4c0.2,0.3,0.5,0.6,0.9,0.8c0.4,0.2,0.8,0.4,1.4,0.4c0.5,0,1-0.1,1.4-0.4
			c0.4-0.2,0.7-0.5,0.9-0.8c0.3-0.3,0.5-0.8,0.6-1.4c0.1-0.6,0.2-1.6,0.2-3.2s-0.1-2.7-0.2-3.3c-0.1-0.5-0.3-1-0.6-1.3
			c-0.2-0.3-0.5-0.6-0.9-0.8c-0.4-0.2-0.9-0.3-1.4-0.3c-0.5,0-1,0.1-1.4,0.3c-0.4,0.2-0.7,0.5-0.9,0.8c-0.3,0.3-0.5,0.8-0.6,1.3
			C225,178.5,225,179.6,225,181.2z M228.5,169h2.8l-2.9,3.3h-1.7L228.5,169z"/>
		<path id="XMLID_352_" class="st0" d="M242.1,180.3h5.2v3.3c0,1.6-0.5,3-1.5,4.1c-1,1.1-2.2,1.6-3.7,1.7c-1.2,0-2.1-0.3-2.9-0.9
			c-0.8-0.6-1.4-1.2-1.7-2c-0.1-0.2-0.2-0.5-0.3-0.7c-0.1-0.2-0.1-0.5-0.2-0.9c-0.1-0.6-0.2-1.9-0.2-3.7c0-1.9,0.1-3.1,0.2-3.8
			c0.1-0.6,0.3-1.1,0.5-1.5c0.4-0.7,0.9-1.4,1.7-2c0.8-0.6,1.7-0.9,2.9-0.9c1.4,0,2.6,0.5,3.5,1.4c0.9,0.9,1.5,2,1.7,3.4h-2.4
			c-0.2-0.7-0.5-1.2-1-1.7c-0.5-0.4-1.1-0.7-1.8-0.7c-0.5,0-1,0.1-1.4,0.3c-0.4,0.2-0.7,0.5-0.9,0.8c-0.3,0.3-0.5,0.8-0.6,1.3
			c-0.1,0.6-0.2,1.7-0.2,3.3s0.1,2.7,0.2,3.2c0.1,0.6,0.3,1,0.6,1.4c0.2,0.3,0.5,0.6,0.9,0.8c0.4,0.2,0.8,0.4,1.4,0.4
			c0.9,0,1.6-0.3,2.2-1c0.6-0.6,0.9-1.4,0.9-2.5v-0.8h-3V180.3z"/>
		<path id="XMLID_350_" class="st0" d="M251.5,173.1h2.2v16.1h-2.2V173.1z"/>
		<path id="XMLID_348_" class="st0" d="M268,184.7c-0.3,1.5-0.9,2.6-1.9,3.4c-0.9,0.8-2,1.2-3.3,1.2c-1.2,0-2.1-0.3-2.9-0.9
			c-0.8-0.6-1.4-1.2-1.7-2c-0.1-0.2-0.2-0.5-0.3-0.7c-0.1-0.2-0.1-0.5-0.2-0.9c-0.1-0.6-0.2-1.9-0.2-3.7c0-1.9,0.1-3.1,0.2-3.8
			c0.1-0.6,0.3-1.1,0.5-1.5c0.4-0.7,0.9-1.4,1.7-2c0.8-0.6,1.7-0.9,2.9-0.9c1.4,0,2.6,0.5,3.5,1.4c0.9,0.9,1.5,2,1.7,3.4h-2.4
			c-0.2-0.7-0.5-1.2-1-1.7c-0.5-0.4-1.1-0.7-1.8-0.7c-0.5,0-1,0.1-1.4,0.3c-0.4,0.2-0.7,0.5-0.9,0.8c-0.3,0.3-0.5,0.8-0.6,1.3
			c-0.1,0.6-0.2,1.7-0.2,3.3s0.1,2.7,0.2,3.2c0.1,0.6,0.3,1,0.6,1.4c0.2,0.3,0.5,0.6,0.9,0.8c0.4,0.2,0.8,0.4,1.4,0.4
			c1.3,0,2.2-0.7,2.8-2.2H268z"/>
		<path id="XMLID_345_" class="st0" d="M278.6,185.6H273l-1.1,3.6h-2.4l5.4-16.1h1.9l5.4,16.1h-2.4L278.6,185.6z M277.9,183.4
			l-2.1-7.1h0l-2.1,7.1H277.9z"/>
	</g>
</g>
<path id="XMLID_732_" class="st0" d="M141.2,139.5v-4.9c3.8,1.2,7.7,1.9,11.6,1.9c5.2,0,7.8-1.5,7.8-4.6c0-2.9-1.8-4.3-5.4-4.3h-4.6
	c-7,0-10.5-3.2-10.5-9.6c0-6.2,4.5-9.3,13.5-9.3c3.9,0,7.7,0.5,11.5,1.5v4.9c-3.8-1.2-7.7-1.9-11.5-1.9c-5.4,0-8.1,1.5-8.1,4.6
	c0,2.9,1.7,4.3,5.1,4.3h4.6c7.4,0,11.1,3.2,11.1,9.6c0,6.2-4.5,9.3-13.5,9.3C148.8,141,145,140.5,141.2,139.5z"/>
<path id="XMLID_729_" class="st0" d="M171.1,109.9c4.3-0.9,8.8-1.3,13.3-1.3c10.4,0,15.6,5.1,15.6,15.4c0,11.3-5.2,17-15.7,17
	c-2.6,0-5.1-0.5-7.5-1.5v13.3h-5.7V109.9z M176.9,134.4c2.2,1.1,4.7,1.7,7.5,1.7c6.7,0,10.1-4,10.1-12.1c0-7.1-3.3-10.6-10-10.6
	c-2.9,0-5.4,0.2-7.6,0.7V134.4z"/>
<path id="XMLID_726_" class="st0" d="M205.1,131.2c0-6.7,4.4-10,13.2-10c2.8,0,5.6,0.2,8.5,0.6v-3.1c0-3.7-2.9-5.6-8.7-5.6
	c-3.3,0-6.8,0.5-10.3,1.5v-4.6c3.5-1,6.9-1.5,10.3-1.5c9.6,0,14.5,3.4,14.5,10.1V141h-3.2l-2-3.2c-3.2,2.1-6.8,3.2-10.6,3.2
	C208.9,141,205.1,137.7,205.1,131.2z M218.2,125.9c-5,0-7.4,1.8-7.4,5.3c0,3.5,2,5.3,5.9,5.3c4,0,7.3-1.1,10-3.2v-6.7
	C223.9,126.1,221,125.9,218.2,125.9z"/>
<path id="XMLID_724_" class="st0" d="M263.3,140.1c-2.7,0.6-5.6,0.9-8.6,0.9c-11.5,0-17.3-5.6-17.3-16.8c0-10.4,5.8-15.6,17.3-15.6
	c3.1,0,6,0.3,8.6,0.9v4.6c-2.7-0.6-5.7-0.9-9-0.9c-7.5,0-11.3,3.7-11.3,11c0,8.1,3.8,12.2,11.3,12.2c3.3,0,6.3-0.3,9-0.9V140.1z"/>
<path id="XMLID_721_" class="st0" d="M283.4,108.6c9.2,0,13.8,4.6,13.8,13.7c0,1.3-0.1,2.7-0.3,4.2h-22.8c0,6.6,3.9,9.9,11.6,9.9
	c3.7,0,7-0.4,9.8-1.2v4.6c-2.9,0.8-6.3,1.2-10.4,1.2c-11.1,0-16.7-5.5-16.7-16.6C268.5,113.9,273.4,108.6,283.4,108.6z M274.2,121.7
	h17.5c-0.1-5.7-2.9-8.5-8.3-8.5C277.6,113.1,274.5,116,274.2,121.7z"/>
<path id="XMLID_720_" class="st0" d="M20.3,115.5c2.4,0,5,0.3,7.6,0.9l0.5,0.1v-7.3l-0.3-0.1c-2.7-0.6-5.5-0.9-8.4-0.9
	C7.9,108.3,2,113.7,2,124.2c0,11.4,5.9,17.2,17.6,17.2c2.9,0,5.7-0.3,8.4-0.9l0.3-0.1v-7.3l-0.5,0.1c-2.6,0.6-5.2,0.9-7.6,0.9
	c-6.3,0-9.3-3.2-9.3-9.9C10.9,118.4,14,115.5,20.3,115.5z"/>
<path id="XMLID_717_" class="st0" d="M49,108.2c-10.9,0-16.4,5.6-16.4,16.6v0c0,11,5.6,16.6,16.4,16.6c10.9,0,16.4-5.6,16.4-16.6
	C65.4,113.8,59.9,108.2,49,108.2z M56.5,124.7c0,6.5-2.4,9.7-7.5,9.7s-7.5-3.2-7.5-9.7c0-6.4,2.4-9.5,7.5-9.5S56.5,118.3,56.5,124.7
	z"/>
<path id="XMLID_714_" class="st0" d="M91.6,96.6v13c-2.1-0.9-4.2-1.3-6.3-1.3c-10.4,0-15.7,5.4-15.7,15.9c0,11.4,5.4,17.2,16.1,17.2
	c4.7,0,9.6-0.7,14.6-2l0.3-0.1V96.6H91.6z M91.6,117.3v15.6c-1.8,0.5-3.7,0.8-5.6,0.8c-5.1,0-7.5-3.2-7.5-9.7c0-5.5,2.4-8.1,7.2-8.1
	C88.1,115.9,90,116.3,91.6,117.3z"/>
<path id="XMLID_711_" class="st0" d="M120.3,108.3c-10.3,0-15.6,5.4-15.6,16.2c0,11.2,6,16.9,18,16.9c4.1,0,7.6-0.3,10.5-0.9
	l0.3-0.1v-7.3l-0.5,0.1c-3.2,0.6-6.5,0.9-9.7,0.9c-6.3,0-9.4-2-9.6-6h21.4l0-0.3c0.2-1.3,0.3-2.7,0.3-4.1
	C135.4,113.5,130.4,108.3,120.3,108.3z M126.7,121.6h-13c0.5-4.1,2.6-6.2,6.6-6.2C124.6,115.5,126.7,117.5,126.7,121.6z"/>
</svg>
