<?xml version="1.0" encoding="utf-8"?>
<!-- Generator: Adobe Illustrator 19.0.0, SVG Export Plug-In . SVG Version: 6.00 Build 0)  -->
<svg version="1.1" id="Capa_1" xmlns="http://www.w3.org/2000/svg" xmlns:xlink="http://www.w3.org/1999/xlink" x="0px" y="0px"
	 viewBox="0 7 300 188" style="enable-background:new 0 7 300 188;" xml:space="preserve">
<style type="text/css">
	.st0{fill:#E61753;}
	.st1{fill:url(#XMLID_2_);}
	.st2{fill:url(#XMLID_3_);}
</style>
<g id="XMLID_783_">
	<path id="XMLID_786_" class="st0" d="M158.1,12c-3.2,0-5.4,2.4-6.3,4.8l-22.8,59.8c3.4,0,8.9,0,13.4,0c2.9,0,4.6-2.3,5.5-4.3
		L170.8,12C167.4,12,162.5,12,158.1,12z"/>
	<linearGradient id="XMLID_2_" gradientUnits="userSpaceOnUse" x1="152.4439" y1="56.9144" x2="128.7376" y2="36.4143">
		<stop  offset="0" style="stop-color:#1D1E17"/>
		<stop  offset="4.538476e-02" style="stop-color:#3F1D21"/>
		<stop  offset="0.1072" style="stop-color:#661B2D"/>
		<stop  offset="0.1755" style="stop-color:#891A37"/>
		<stop  offset="0.2497" style="stop-color:#A61940"/>
		<stop  offset="0.3317" style="stop-color:#BD1847"/>
		<stop  offset="0.4248" style="stop-color:#D0184C"/>
		<stop  offset="0.5357" style="stop-color:#DC1750"/>
		<stop  offset="0.6817" style="stop-color:#E41752"/>
		<stop  offset="1" style="stop-color:#E61753"/>
	</linearGradient>
	<path id="XMLID_785_" class="st1" d="M129.1,76.6l5.1-13.3l-16.6-17.6l0,0c-0.3-0.4-0.5-0.8-0.5-1.3c0-0.5,0.2-1,0.5-1.3l0,0
		l29.2-31h-14.9c-1.8,0-3.4,0.7-4.5,1.8L102.6,40l0,0c-1,1.2-1.7,2.7-1.7,4.3c0,1.7,0.6,3.2,1.7,4.3l0,0L129.1,76.6h0.1
		C129.1,76.6,129.1,76.6,129.1,76.6z"/>
	<linearGradient id="XMLID_3_" gradientUnits="userSpaceOnUse" x1="147.3715" y1="34.2029" x2="175.6284" y2="53.8778">
		<stop  offset="0" style="stop-color:#1D1E17"/>
		<stop  offset="4.538476e-02" style="stop-color:#3F1D21"/>
		<stop  offset="0.1072" style="stop-color:#661B2D"/>
		<stop  offset="0.1755" style="stop-color:#891A37"/>
		<stop  offset="0.2497" style="stop-color:#A61940"/>
		<stop  offset="0.3317" style="stop-color:#BD1847"/>
		<stop  offset="0.4248" style="stop-color:#D0184C"/>
		<stop  offset="0.5357" style="stop-color:#DC1750"/>
		<stop  offset="0.6817" style="stop-color:#E41752"/>
		<stop  offset="1" style="stop-color:#E61753"/>
	</linearGradient>
	<path id="XMLID_784_" class="st2" d="M198.8,44.3c0-1.7-0.6-3.2-1.7-4.3l0,0l-26.4-28l0,0c0,0,0,0,0,0l-5.1,13.4L182.2,43l0,0
		c0.3,0.4,0.5,0.8,0.5,1.3c0,0.5-0.2,1-0.5,1.3l0,0l-29.2,31h14.9c1.8,0,3.4-0.7,4.5-1.8h0l24.7-26.2l0,0
		C198.2,47.5,198.8,46,198.8,44.3z"/>
</g>
<g id="XMLID_490_">
	<g>
		<path id="XMLID_392_" class="st0" d="M17,173.4h9.3v2.3h-7.1v4.7h6.1v2.1h-6.1v6.8H17V173.4z"/>
		<path id="XMLID_389_" class="st0" d="M29,181.4c0-1.9,0.1-3.1,0.2-3.7c0.1-0.6,0.3-1.1,0.5-1.5c0.4-0.7,0.9-1.4,1.7-2
			c0.8-0.6,1.7-0.9,2.9-0.9c1.2,0,2.1,0.3,2.9,0.9c0.8,0.6,1.3,1.2,1.7,2c0.2,0.4,0.4,0.9,0.5,1.5c0.1,0.6,0.1,1.9,0.1,3.7
			c0,1.8,0,3.1-0.1,3.7c-0.1,0.6-0.3,1.2-0.5,1.5c-0.3,0.7-0.9,1.4-1.7,2c-0.8,0.6-1.7,0.9-2.9,0.9c-1.1,0-2.1-0.3-2.9-0.9
			c-0.8-0.6-1.3-1.2-1.7-2c-0.1-0.2-0.2-0.5-0.3-0.7c-0.1-0.2-0.1-0.5-0.2-0.9C29,184.4,29,183.2,29,181.4z M31.2,181.4
			c0,1.6,0.1,2.6,0.2,3.2c0.1,0.6,0.3,1,0.6,1.4c0.2,0.3,0.5,0.6,0.9,0.8c0.4,0.2,0.8,0.4,1.3,0.4c0.5,0,1-0.1,1.4-0.4
			c0.4-0.2,0.7-0.5,0.9-0.8c0.3-0.3,0.5-0.8,0.6-1.4c0.1-0.6,0.2-1.6,0.2-3.2c0-1.6-0.1-2.6-0.2-3.2c-0.1-0.5-0.3-1-0.6-1.3
			c-0.2-0.3-0.5-0.6-0.9-0.8c-0.4-0.2-0.8-0.3-1.4-0.3c-0.5,0-1,0.1-1.3,0.3c-0.4,0.2-0.7,0.5-0.9,0.8c-0.3,0.3-0.5,0.8-0.6,1.3
			C31.3,178.7,31.2,179.8,31.2,181.4z"/>
		<path id="XMLID_386_" class="st0" d="M43.5,173.4h5.7c1.2,0,2.2,0.4,3,1.1c0.9,0.8,1.4,1.9,1.4,3.4c0,2.2-1,3.6-2.8,4.4l3.4,7.1
			h-2.6l-3-6.8h-2.8v6.8h-2.2V173.4z M45.7,180.4H49c0.8,0,1.5-0.3,1.9-0.8c0.4-0.5,0.6-1.1,0.6-1.8c0-0.8-0.3-1.4-0.7-1.8
			c-0.4-0.3-0.9-0.5-1.6-0.5h-3.5V180.4z"/>
		<path id="XMLID_384_" class="st0" d="M57.5,173.4h2.1l4.2,10.4l4.1-10.4h2.1v16h-2.2v-10h-0.1l-3.1,7.7h-1.8l-3.1-7.7h0v10h-2.2
			V173.4z"/>
		<path id="XMLID_381_" class="st0" d="M82.1,185.8h-5.5l-1.1,3.6h-2.3l5.3-16h1.9l5.3,16h-2.3L82.1,185.8z M81.4,183.6l-2.1-7h0
			l-2.1,7H81.4z"/>
		<path id="XMLID_379_" class="st0" d="M98,184.9c-0.3,1.5-0.9,2.6-1.8,3.4c-0.9,0.8-2,1.2-3.3,1.2c-1.1,0-2.1-0.3-2.9-0.9
			c-0.8-0.6-1.3-1.2-1.7-2c-0.1-0.2-0.2-0.5-0.3-0.7c-0.1-0.2-0.1-0.5-0.2-0.9c-0.1-0.6-0.2-1.9-0.2-3.7c0-1.9,0.1-3.1,0.2-3.7
			c0.1-0.6,0.3-1.1,0.5-1.5c0.4-0.7,0.9-1.4,1.7-2c0.8-0.6,1.7-0.9,2.9-0.9c1.4,0,2.6,0.5,3.4,1.4c0.9,0.9,1.4,2,1.7,3.4h-2.3
			c-0.2-0.6-0.5-1.2-1-1.6c-0.5-0.4-1.1-0.7-1.8-0.7c-0.5,0-1,0.1-1.3,0.3c-0.4,0.2-0.7,0.5-0.9,0.8c-0.3,0.3-0.5,0.8-0.6,1.3
			c-0.1,0.6-0.2,1.6-0.2,3.2c0,1.6,0.1,2.6,0.2,3.2c0.1,0.6,0.3,1,0.6,1.4c0.2,0.3,0.5,0.6,0.9,0.8c0.4,0.2,0.8,0.4,1.3,0.4
			c1.2,0,2.2-0.7,2.8-2.2H98z"/>
		<path id="XMLID_377_" class="st0" d="M101,173.4h2.2v16H101V173.4z"/>
		<path id="XMLID_373_" class="st0" d="M107.1,181.4c0-1.9,0.1-3.1,0.2-3.7c0.1-0.6,0.3-1.1,0.5-1.5c0.4-0.7,0.9-1.4,1.7-2
			c0.8-0.6,1.7-0.9,2.9-0.9c1.2,0,2.1,0.3,2.9,0.9c0.8,0.6,1.3,1.2,1.7,2c0.2,0.4,0.4,0.9,0.5,1.5c0.1,0.6,0.1,1.9,0.1,3.7
			c0,1.8,0,3.1-0.1,3.7c-0.1,0.6-0.3,1.2-0.5,1.5c-0.3,0.7-0.9,1.4-1.7,2c-0.8,0.6-1.7,0.9-2.9,0.9c-1.1,0-2.1-0.3-2.9-0.9
			c-0.8-0.6-1.3-1.2-1.7-2c-0.1-0.2-0.2-0.5-0.3-0.7c-0.1-0.2-0.1-0.5-0.2-0.9C107.1,184.4,107.1,183.2,107.1,181.4z M109.3,181.4
			c0,1.6,0.1,2.6,0.2,3.2c0.1,0.6,0.3,1,0.6,1.4c0.2,0.3,0.5,0.6,0.9,0.8c0.4,0.2,0.8,0.4,1.3,0.4c0.5,0,1-0.1,1.4-0.4
			c0.4-0.2,0.7-0.5,0.9-0.8c0.3-0.3,0.5-0.8,0.6-1.4c0.1-0.6,0.2-1.6,0.2-3.2c0-1.6-0.1-2.6-0.2-3.2c-0.1-0.5-0.3-1-0.6-1.3
			c-0.2-0.3-0.5-0.6-0.9-0.8c-0.4-0.2-0.8-0.3-1.4-0.3c-0.5,0-1,0.1-1.3,0.3c-0.4,0.2-0.7,0.5-0.9,0.8c-0.3,0.3-0.5,0.8-0.6,1.3
			C109.3,178.7,109.3,179.8,109.3,181.4z M112.8,169.3h2.8l-2.9,3.3h-1.7L112.8,169.3z"/>
		<path id="XMLID_371_" class="st0" d="M121.5,173.4h2.1l6.6,11.4h0v-11.4h2.2v16h-2.1l-6.6-11.4h0v11.4h-2.2V173.4z"/>
		<path id="XMLID_369_" class="st0" d="M145.7,175.5h-4v-2.1H152v2.1h-4v13.8h-2.2V175.5z"/>
		<path id="XMLID_367_" class="st0" d="M154.9,173.4h9.3v2.3h-7.1v4.6h6.1v2.1h-6.1v4.7h7.1v2.3h-9.3V173.4z"/>
		<path id="XMLID_365_" class="st0" d="M177.6,184.9c-0.3,1.5-0.9,2.6-1.8,3.4c-0.9,0.8-2,1.2-3.3,1.2c-1.1,0-2.1-0.3-2.9-0.9
			c-0.8-0.6-1.3-1.2-1.7-2c-0.1-0.2-0.2-0.5-0.3-0.7c-0.1-0.2-0.1-0.5-0.2-0.9c-0.1-0.6-0.2-1.9-0.2-3.7c0-1.9,0.1-3.1,0.2-3.7
			c0.1-0.6,0.3-1.1,0.5-1.5c0.4-0.7,0.9-1.4,1.7-2c0.8-0.6,1.7-0.9,2.9-0.9c1.4,0,2.6,0.5,3.4,1.4c0.9,0.9,1.5,2,1.7,3.4h-2.3
			c-0.2-0.6-0.5-1.2-1-1.6c-0.5-0.4-1.1-0.7-1.8-0.7c-0.5,0-1,0.1-1.3,0.3c-0.4,0.2-0.7,0.5-0.9,0.8c-0.3,0.3-0.5,0.8-0.6,1.3
			c-0.1,0.6-0.2,1.6-0.2,3.2c0,1.6,0.1,2.6,0.2,3.2c0.1,0.6,0.3,1,0.6,1.4c0.2,0.3,0.5,0.6,0.9,0.8c0.4,0.2,0.8,0.4,1.3,0.4
			c1.2,0,2.2-0.7,2.8-2.2H177.6z"/>
		<path id="XMLID_363_" class="st0" d="M180.6,173.4h2.1l6.6,11.4h0v-11.4h2.2v16h-2.1l-6.6-11.4h0v11.4h-2.2V173.4z"/>
		<path id="XMLID_360_" class="st0" d="M195.7,181.4c0-1.9,0-3.1,0.2-3.7c0.1-0.6,0.3-1.1,0.5-1.5c0.4-0.7,0.9-1.4,1.7-2
			c0.8-0.6,1.7-0.9,2.9-0.9c1.2,0,2.1,0.3,2.9,0.9c0.8,0.6,1.3,1.2,1.7,2c0.2,0.4,0.4,0.9,0.5,1.5c0.1,0.6,0.1,1.9,0.1,3.7
			c0,1.8,0,3.1-0.1,3.7c-0.1,0.6-0.3,1.2-0.5,1.5c-0.3,0.7-0.9,1.4-1.7,2c-0.8,0.6-1.7,0.9-2.9,0.9c-1.1,0-2.1-0.3-2.9-0.9
			c-0.8-0.6-1.3-1.2-1.7-2c-0.1-0.2-0.2-0.5-0.3-0.7c-0.1-0.2-0.1-0.5-0.2-0.9C195.7,184.4,195.7,183.2,195.7,181.4z M197.9,181.4
			c0,1.6,0.1,2.6,0.2,3.2c0.1,0.6,0.3,1,0.6,1.4c0.2,0.3,0.5,0.6,0.9,0.8c0.4,0.2,0.8,0.4,1.3,0.4c0.5,0,1-0.1,1.4-0.4
			c0.4-0.2,0.7-0.5,0.9-0.8c0.3-0.3,0.5-0.8,0.6-1.4c0.1-0.6,0.2-1.6,0.2-3.2c0-1.6,0-2.6-0.2-3.2c-0.1-0.5-0.3-1-0.6-1.3
			c-0.2-0.3-0.5-0.6-0.9-0.8c-0.4-0.2-0.8-0.3-1.4-0.3c-0.5,0-1,0.1-1.3,0.3c-0.4,0.2-0.7,0.5-0.9,0.8c-0.3,0.3-0.5,0.8-0.6,1.3
			C197.9,178.7,197.9,179.8,197.9,181.4z"/>
		<path id="XMLID_358_" class="st0" d="M210.1,173.4h2.2v13.7h7.1v2.3h-9.3V173.4z"/>
		<path id="XMLID_354_" class="st0" d="M222.5,181.4c0-1.9,0-3.1,0.2-3.7c0.1-0.6,0.3-1.1,0.5-1.5c0.4-0.7,0.9-1.4,1.7-2
			c0.8-0.6,1.7-0.9,2.9-0.9c1.2,0,2.1,0.3,2.9,0.9c0.8,0.6,1.3,1.2,1.7,2c0.2,0.4,0.4,0.9,0.5,1.5c0.1,0.6,0.1,1.9,0.1,3.7
			c0,1.8,0,3.1-0.1,3.7c-0.1,0.6-0.3,1.2-0.5,1.5c-0.3,0.7-0.9,1.4-1.7,2c-0.8,0.6-1.7,0.9-2.9,0.9c-1.1,0-2.1-0.3-2.9-0.9
			c-0.8-0.6-1.3-1.2-1.7-2c-0.1-0.2-0.2-0.5-0.3-0.7c-0.1-0.2-0.1-0.5-0.2-0.9C222.6,184.4,222.5,183.2,222.5,181.4z M224.7,181.4
			c0,1.6,0.1,2.6,0.2,3.2c0.1,0.6,0.3,1,0.6,1.4c0.2,0.3,0.5,0.6,0.9,0.8c0.4,0.2,0.8,0.4,1.3,0.4c0.5,0,1-0.1,1.4-0.4
			c0.4-0.2,0.7-0.5,0.9-0.8c0.3-0.3,0.5-0.8,0.6-1.4c0.1-0.6,0.2-1.6,0.2-3.2c0-1.6,0-2.6-0.2-3.2c-0.1-0.5-0.3-1-0.6-1.3
			c-0.2-0.3-0.5-0.6-0.9-0.8c-0.4-0.2-0.8-0.3-1.4-0.3c-0.5,0-1,0.1-1.3,0.3c-0.4,0.2-0.7,0.5-0.9,0.8c-0.3,0.3-0.5,0.8-0.6,1.3
			C224.8,178.7,224.7,179.8,224.7,181.4z M228.2,169.3h2.8l-2.9,3.3h-1.7L228.2,169.3z"/>
		<path id="XMLID_352_" class="st0" d="M241.7,180.6h5.2v3.3c0,1.6-0.5,2.9-1.5,4c-1,1.1-2.2,1.6-3.7,1.7c-1.1,0-2.1-0.3-2.9-0.9
			c-0.8-0.6-1.3-1.2-1.7-2c-0.1-0.2-0.2-0.5-0.3-0.7c-0.1-0.2-0.1-0.5-0.2-0.9c-0.1-0.6-0.2-1.9-0.2-3.7c0-1.9,0-3.1,0.2-3.7
			c0.1-0.6,0.3-1.1,0.5-1.5c0.4-0.7,0.9-1.4,1.7-2c0.8-0.6,1.7-0.9,2.9-0.9c1.4,0,2.6,0.5,3.4,1.4c0.9,0.9,1.4,2,1.7,3.4h-2.3
			c-0.2-0.6-0.5-1.2-1-1.7c-0.5-0.4-1.1-0.7-1.8-0.7c-0.5,0-1,0.1-1.3,0.3c-0.4,0.2-0.7,0.5-0.9,0.8c-0.3,0.3-0.5,0.8-0.6,1.3
			c-0.1,0.6-0.2,1.6-0.2,3.2c0,1.6,0.1,2.6,0.2,3.2c0.1,0.6,0.3,1,0.6,1.4c0.2,0.3,0.5,0.6,0.9,0.8c0.4,0.2,0.8,0.4,1.3,0.4
			c0.9,0,1.6-0.3,2.1-1c0.6-0.6,0.9-1.4,0.9-2.4v-0.8h-3V180.6z"/>
		<path id="XMLID_350_" class="st0" d="M251,173.4h2.2v16H251V173.4z"/>
		<path id="XMLID_348_" class="st0" d="M267.4,184.9c-0.3,1.5-0.9,2.6-1.8,3.4c-0.9,0.8-2,1.2-3.3,1.2c-1.1,0-2.1-0.3-2.9-0.9
			c-0.8-0.6-1.3-1.2-1.7-2c-0.1-0.2-0.2-0.5-0.3-0.7c-0.1-0.2-0.1-0.5-0.2-0.9c-0.1-0.6-0.2-1.9-0.2-3.7c0-1.9,0.1-3.1,0.2-3.7
			c0.1-0.6,0.3-1.1,0.5-1.5c0.4-0.7,0.9-1.4,1.7-2c0.8-0.6,1.7-0.9,2.9-0.9c1.4,0,2.6,0.5,3.4,1.4c0.9,0.9,1.5,2,1.7,3.4H265
			c-0.2-0.6-0.5-1.2-1-1.6c-0.5-0.4-1.1-0.7-1.8-0.7c-0.5,0-1,0.1-1.3,0.3c-0.4,0.2-0.7,0.5-0.9,0.8c-0.3,0.3-0.5,0.8-0.6,1.3
			c-0.1,0.6-0.2,1.6-0.2,3.2c0,1.6,0.1,2.6,0.2,3.2c0.1,0.6,0.3,1,0.6,1.4c0.2,0.3,0.5,0.6,0.9,0.8c0.4,0.2,0.8,0.4,1.3,0.4
			c1.2,0,2.2-0.7,2.8-2.2H267.4z"/>
		<path id="XMLID_345_" class="st0" d="M277.8,185.8h-5.5l-1.1,3.6h-2.3l5.3-16h1.9l5.3,16H279L277.8,185.8z M277.2,183.6l-2.1-7h0
			l-2.1,7H277.2z"/>
	</g>
</g>
<path id="XMLID_1287_" class="st0" d="M141.7,139.9V135c3.8,1.2,7.6,1.8,11.4,1.8c5.1,0,7.7-1.5,7.7-4.6c0-2.9-1.8-4.3-5.4-4.3h-4.6
	c-6.9,0-10.4-3.2-10.4-9.5c0-6.1,4.5-9.2,13.4-9.2c3.8,0,7.6,0.5,11.4,1.5v4.9c-3.8-1.2-7.6-1.8-11.4-1.8c-5.3,0-8,1.5-8,4.6
	c0,2.9,1.7,4.3,5,4.3h4.6c7.3,0,11,3.2,11,9.5c0,6.1-4.4,9.2-13.3,9.2C149.3,141.5,145.5,141,141.7,139.9z"/>
<path id="XMLID_1284_" class="st0" d="M171.4,110.7c4.3-0.9,8.7-1.3,13.2-1.3c10.3,0,15.5,5.1,15.5,15.3c0,11.2-5.2,16.9-15.5,16.9
	c-2.6,0-5.1-0.5-7.5-1.5v13.2h-5.7V110.7z M177.1,134.9c2.2,1.1,4.7,1.7,7.4,1.7c6.7,0,10-4,10-12c0-7-3.3-10.5-9.9-10.5
	c-2.9,0-5.4,0.2-7.5,0.7V134.9z"/>
<path id="XMLID_1281_" class="st0" d="M205,131.8c0-6.6,4.3-9.9,13-9.9c2.8,0,5.6,0.2,8.4,0.6v-3c0-3.7-2.9-5.5-8.7-5.5
	c-3.3,0-6.7,0.5-10.2,1.5v-4.6c3.5-1,6.9-1.5,10.2-1.5c9.5,0,14.3,3.3,14.3,10v22.2h-3.2l-2-3.2c-3.2,2.1-6.7,3.2-10.5,3.2
	C208.8,141.5,205,138.2,205,131.8z M218,126.5c-4.9,0-7.4,1.7-7.4,5.2c0,3.5,1.9,5.2,5.8,5.2c3.9,0,7.2-1,9.9-3.1v-6.7
	C223.6,126.7,220.8,126.5,218,126.5z"/>
<path id="XMLID_1024_" class="st0" d="M262.7,140.6c-2.7,0.6-5.5,0.9-8.6,0.9c-11.4,0-17.1-5.6-17.1-16.7c0-10.3,5.7-15.5,17.1-15.5
	c3.1,0,5.9,0.3,8.6,0.9v4.6c-2.7-0.6-5.6-0.9-8.9-0.9c-7.4,0-11.2,3.6-11.2,10.9c0,8.1,3.7,12.1,11.2,12.1c3.3,0,6.2-0.3,8.9-0.9
	V140.6z"/>
<path id="XMLID_782_" class="st0" d="M282.6,109.3c9.1,0,13.7,4.5,13.7,13.6c0,1.3-0.1,2.7-0.3,4.1h-22.6c0,6.6,3.8,9.9,11.5,9.9
	c3.7,0,6.9-0.4,9.7-1.2v4.6c-2.8,0.8-6.3,1.2-10.3,1.2c-11,0-16.6-5.5-16.6-16.4C267.8,114.6,272.7,109.3,282.6,109.3z M273.5,122.3
	h17.4c-0.1-5.6-2.9-8.4-8.3-8.4C276.9,113.9,273.9,116.7,273.5,122.3z"/>
<path id="XMLID_781_" class="st0" d="M21.9,116.2c2.4,0,4.9,0.3,7.5,0.9l0.5,0.1v-7.2l-0.3-0.1c-2.7-0.6-5.5-0.9-8.3-0.9
	c-11.6,0-17.5,5.3-17.5,15.8c0,11.3,5.9,17,17.5,17c2.9,0,5.7-0.3,8.3-0.9l0.3-0.1v-7.2l-0.5,0.1c-2.6,0.6-5.1,0.9-7.5,0.9
	c-6.2,0-9.2-3.2-9.2-9.8C12.7,119.1,15.7,116.2,21.9,116.2z"/>
<path id="XMLID_778_" class="st0" d="M50.4,109c-10.8,0-16.2,5.5-16.2,16.5v0c0,10.9,5.5,16.5,16.2,16.5c10.8,0,16.2-5.5,16.2-16.5
	C66.7,114.5,61.2,109,50.4,109z M57.8,125.3c0,6.5-2.4,9.6-7.4,9.6s-7.4-3.2-7.4-9.6c0-6.3,2.4-9.4,7.4-9.4S57.8,119,57.8,125.3z"/>
<path id="XMLID_775_" class="st0" d="M92.6,97.5v12.9c-2.1-0.9-4.2-1.3-6.2-1.3c-10.3,0-15.6,5.3-15.6,15.8c0,11.3,5.4,17,15.9,17
	c4.7,0,9.6-0.7,14.5-1.9l0.3-0.1V97.5H92.6z M92.6,118v15.4c-1.7,0.5-3.6,0.8-5.6,0.8c-5,0-7.4-3.2-7.4-9.6c0-5.4,2.3-8.1,7.1-8.1
	C89.1,116.6,91.1,117,92.6,118z"/>
<path id="XMLID_606_" class="st0" d="M121.1,109.1c-10.2,0-15.4,5.4-15.4,16c0,11.1,6,16.8,17.8,16.8c4.1,0,7.6-0.3,10.4-0.9
	l0.3-0.1v-7.2l-0.5,0.1c-3.2,0.6-6.4,0.9-9.6,0.9c-6.2,0-9.4-2-9.5-6h21.2l0-0.3c0.2-1.3,0.3-2.7,0.3-4
	C136,114.2,131,109.1,121.1,109.1z M114.5,122.3c0.5-4.1,2.6-6.1,6.5-6.1c4.2,0,6.3,2,6.3,6.1H114.5z"/>
</svg>
