<?xml version="1.0" encoding="utf-8"?>
<!-- Generator: Adobe Illustrator 19.0.0, SVG Export Plug-In . SVG Version: 6.00 Build 0)  -->
<svg version="1.1" baseProfile="tiny" id="Capa_1" xmlns="http://www.w3.org/2000/svg" xmlns:xlink="http://www.w3.org/1999/xlink"
	 x="0px" y="0px" viewBox="-31 154.6 532.3 532.3" xml:space="preserve">
<g>
	<rect x="80.5" y="460" fill="none" width="309.3" height="40"/>
	<polygon fill="none" points="80.5,528.5 82.4,528.5 387.9,528.5 389.8,528.5 389.8,515.5 80.5,515.5 	"/>
	<polygon fill="none" points="395.7,544.1 395.7,553.5 418.6,553.5 418.6,544.1 397.6,544.1 	"/>
	<path fill="none" d="M405.4,431.9v96.7h21.1h1.7c5.8,0,10.6-4.8,10.6-10.6v-56.2c0-0.2,0-0.4,0-0.6c0.1-2.8,1.7-5.3,4.1-6.7
		c8.4-4.4,13.6-13.1,13.6-22.6c0-14.1-11.5-25.5-25.5-25.5C416.8,406.3,405.4,417.8,405.4,431.9z"/>
	<polygon fill="none" points="51.7,544.1 51.7,553.5 74.6,553.5 74.6,544.1 72.7,544.1 	"/>
	<path fill="none" d="M80.5,431.9v12.6h309.3v-12.6c0-18.6,12.4-34.3,29.3-39.4v-60c0-24.6-20-44.6-44.6-44.6H95.8
		c-24.6,0-44.6,20-44.6,44.6v60C68.1,397.6,80.5,413.3,80.5,431.9z M347.3,330.5c1.4-1.4,3.5-2.3,5.5-2.3c2.1,0,4.1,0.8,5.5,2.3
		c1.4,1.4,2.3,3.5,2.3,5.5c0,2-0.8,4-2.3,5.5c-1.4,1.4-3.5,2.3-5.5,2.3c-2,0-4-0.8-5.5-2.3c-1.4-1.4-2.3-3.5-2.3-5.5
		C345,333.9,345.9,331.9,347.3,330.5z M347.3,391.6c1.4-1.4,3.5-2.3,5.5-2.3c2.1,0,4.1,0.8,5.5,2.3c1.4,1.4,2.3,3.5,2.3,5.5
		c0,2-0.8,4-2.3,5.5c-1.4,1.4-3.5,2.3-5.5,2.3c-2,0-4-0.8-5.5-2.3c-1.4-1.4-2.3-3.5-2.3-5.5C345,395.1,345.9,393.1,347.3,391.6z
		 M268.9,330.5c1.4-1.4,3.5-2.3,5.5-2.3c2,0,4,0.8,5.5,2.3c1.4,1.4,2.3,3.5,2.3,5.5c0,2-0.8,4-2.3,5.5c-1.4,1.4-3.5,2.3-5.5,2.3
		c-2.1,0-4.1-0.8-5.5-2.3c-1.4-1.4-2.3-3.5-2.3-5.5C266.6,333.9,267.4,331.9,268.9,330.5z M268.9,391.6c1.4-1.4,3.5-2.3,5.5-2.3
		c2,0,4,0.8,5.5,2.3c1.4,1.4,2.3,3.5,2.3,5.5c0,2-0.8,4-2.3,5.5c-1.4,1.4-3.5,2.3-5.5,2.3c-2.1,0-4.1-0.8-5.5-2.3
		c-1.4-1.4-2.3-3.5-2.3-5.5C266.6,395.1,267.4,393.1,268.9,391.6z M190.4,330.5c1.4-1.4,3.5-2.3,5.5-2.3s4.1,0.8,5.5,2.3
		c1.4,1.4,2.3,3.5,2.3,5.5c0,2-0.8,4-2.3,5.5c-1.4,1.4-3.5,2.3-5.5,2.3s-4.1-0.8-5.5-2.3c-1.4-1.4-2.3-3.5-2.3-5.5
		C188.2,333.9,189,331.9,190.4,330.5z M190.4,391.6c1.4-1.4,3.5-2.3,5.5-2.3s4.1,0.8,5.5,2.3c1.4,1.4,2.3,3.5,2.3,5.5
		c0,2-0.8,4-2.3,5.5c-1.4,1.4-3.5,2.3-5.5,2.3s-4.1-0.8-5.5-2.3c-1.4-1.4-2.3-3.5-2.3-5.5C188.2,395.1,189,393.1,190.4,391.6z
		 M112,330.5c1.4-1.4,3.5-2.3,5.5-2.3c2.1,0,4.1,0.8,5.5,2.3c1.4,1.4,2.3,3.5,2.3,5.5c0,2-0.8,4-2.3,5.5c-1.4,1.4-3.5,2.3-5.5,2.3
		c-2,0-4-0.8-5.5-2.3c-1.4-1.4-2.3-3.5-2.3-5.5C109.7,333.9,110.5,331.9,112,330.5z M112,391.6c1.4-1.4,3.5-2.3,5.5-2.3
		c2.1,0,4.1,0.8,5.5,2.3c1.4,1.4,2.3,3.5,2.3,5.5c0,2-0.8,4-2.3,5.5c-1.4,1.4-3.5,2.3-5.5,2.3c-2,0-4-0.8-5.5-2.3
		c-1.4-1.4-2.3-3.5-2.3-5.5C109.7,395.1,110.5,393.1,112,391.6z"/>
	<path fill="none" d="M27.5,454.5c2.5,1.3,4.1,3.9,4.1,6.7c0,0.1,0,0.3,0,0.4v56.3c0,5.8,4.8,10.6,10.6,10.6h1.7h21.1v-96.7
		c0-14.1-11.5-25.5-25.5-25.5c-14.1,0-25.5,11.5-25.5,25.5C13.9,441.4,19.1,450,27.5,454.5z"/>
	<path fill="#E51552" d="M352.8,343.8c2.1,0,4.1-0.8,5.5-2.3c1.4-1.4,2.3-3.5,2.3-5.5c0-2.1-0.8-4.1-2.3-5.5
		c-1.4-1.4-3.5-2.3-5.5-2.3c-2,0-4,0.8-5.5,2.3c-1.4,1.4-2.3,3.5-2.3,5.5c0,2,0.8,4,2.3,5.5C348.8,342.9,350.8,343.8,352.8,343.8z"
		/>
	<path fill="#E51552" d="M274.4,343.8c2,0,4-0.8,5.5-2.3c1.4-1.4,2.3-3.5,2.3-5.5c0-2.1-0.8-4.1-2.3-5.5c-1.4-1.4-3.5-2.3-5.5-2.3
		c-2.1,0-4.1,0.8-5.5,2.3c-1.4,1.4-2.3,3.5-2.3,5.5c0,2,0.8,4,2.3,5.5C270.3,342.9,272.3,343.8,274.4,343.8z"/>
	<path fill="#E51552" d="M117.5,343.8c2.1,0,4.1-0.8,5.5-2.3c1.4-1.4,2.3-3.5,2.3-5.5c0-2.1-0.8-4.1-2.3-5.5
		c-1.4-1.4-3.5-2.3-5.5-2.3c-2,0-4,0.8-5.5,2.3c-1.4,1.4-2.3,3.5-2.3,5.5c0,2,0.8,4,2.3,5.5C113.4,342.9,115.4,343.8,117.5,343.8z"
		/>
	<path fill="#E51552" d="M195.9,343.8c2,0,4.1-0.8,5.5-2.3c1.4-1.4,2.3-3.5,2.3-5.5c0-2.1-0.8-4.1-2.3-5.5c-1.4-1.4-3.5-2.3-5.5-2.3
		s-4.1,0.8-5.5,2.3c-1.4,1.4-2.3,3.5-2.3,5.5c0,2,0.8,4,2.3,5.5C191.9,342.9,193.9,343.8,195.9,343.8z"/>
	<path fill="#E51552" d="M352.8,404.9c2.1,0,4.1-0.8,5.5-2.3c1.4-1.4,2.3-3.5,2.3-5.5c0-2.1-0.8-4.1-2.3-5.5
		c-1.4-1.4-3.5-2.3-5.5-2.3c-2,0-4,0.8-5.5,2.3c-1.4,1.4-2.3,3.5-2.3,5.5c0,2,0.8,4,2.3,5.5C348.8,404.1,350.8,404.9,352.8,404.9z"
		/>
	<path fill="#E51552" d="M274.4,404.9c2,0,4-0.8,5.5-2.3c1.4-1.4,2.3-3.5,2.3-5.5c0-2.1-0.8-4.1-2.3-5.5c-1.4-1.4-3.5-2.3-5.5-2.3
		c-2.1,0-4.1,0.8-5.5,2.3c-1.4,1.4-2.3,3.5-2.3,5.5c0,2,0.8,4,2.3,5.5C270.3,404.1,272.3,404.9,274.4,404.9z"/>
	<path fill="#E51552" d="M117.5,404.9c2.1,0,4.1-0.8,5.5-2.3c1.4-1.4,2.3-3.5,2.3-5.5c0-2.1-0.8-4.1-2.3-5.5
		c-1.4-1.4-3.5-2.3-5.5-2.3c-2,0-4,0.8-5.5,2.3c-1.4,1.4-2.3,3.5-2.3,5.5c0,2,0.8,4,2.3,5.5C113.4,404.1,115.4,404.9,117.5,404.9z"
		/>
	<path fill="#E51552" d="M195.9,404.9c2,0,4.1-0.8,5.5-2.3c1.4-1.4,2.3-3.5,2.3-5.5c0-2.1-0.8-4.1-2.3-5.5c-1.4-1.4-3.5-2.3-5.5-2.3
		s-4.1,0.8-5.5,2.3c-1.4,1.4-2.3,3.5-2.3,5.5c0,2,0.8,4,2.3,5.5C191.9,404.1,193.9,404.9,195.9,404.9z"/>
	<path fill="#E51552" d="M16.1,465.7v52.2c0,12.3,8.6,22.7,20,25.4v17.9c0,4.3,3.4,7.7,7.7,7.8h38.7c4.3-0.1,7.7-3.5,7.7-7.8v-17.2
		h290v17.2c0,4.3,3.4,7.7,7.7,7.8h38.7c4.3-0.1,7.7-3.5,7.7-7.8v-17.9c11.5-2.8,20-13.1,20-25.4v-52.2c11.1-7.6,17.8-20.2,17.8-33.8
		c0-21.4-16.4-39-37.4-40.9v-58.4c0-33.1-27-60.1-60.1-60.1H95.8c-33.1,0-60.1,27-60.1,60.1V391c-20.9,1.9-37.4,19.5-37.4,40.9
		C-1.7,445.5,5,458.1,16.1,465.7z M74.6,553.5h-23v-9.4h21.1h1.9V553.5z M389.8,528.5h-1.9H82.4h-1.9v-13h309.3V528.5z M389.8,500
		H80.5v-40h309.3V500z M418.6,553.5h-23v-9.4h1.9h21.1V553.5z M456.4,431.9c0,9.5-5.2,18.2-13.6,22.6c-2.5,1.3-4.1,3.9-4.1,6.7
		c0,0.2,0,0.4,0,0.6v56.2c0,5.8-4.8,10.6-10.6,10.6h-1.7h-21.1v-96.7c0-14.1,11.5-25.5,25.5-25.5C445,406.3,456.4,417.8,456.4,431.9
		z M51.2,332.5c0-24.6,20-44.6,44.6-44.6h278.8c24.6,0,44.6,20,44.6,44.6v60c-16.9,5.1-29.3,20.8-29.3,39.4v12.6H80.5v-12.6
		c0-18.6-12.4-34.3-29.3-39.4V332.5z M39.4,406.3c14.1,0,25.5,11.5,25.5,25.5v96.7H43.9h-1.7c-5.8,0-10.6-4.8-10.6-10.6v-56.3
		c0-0.1,0-0.3,0-0.4c-0.1-2.8-1.7-5.4-4.1-6.7c-8.4-4.5-13.6-13.1-13.6-22.6C13.9,417.8,25.3,406.3,39.4,406.3z"/>
</g>
</svg>
