<?xml version="1.0" encoding="utf-8"?>
<!-- Generator: Adobe Illustrator 19.0.0, SVG Export Plug-In . SVG Version: 6.00 Build 0)  -->
<svg version="1.1" id="Layer_1" xmlns="http://www.w3.org/2000/svg" xmlns:xlink="http://www.w3.org/1999/xlink" x="0px" y="0px"
	 viewBox="-349 175.8 491.1 491.1" style="enable-background:new -349 175.8 491.1 491.1;" xml:space="preserve">
<style type="text/css">
	.st0{fill:#FFFFFF;}
</style>
<g>
	<g>
		<path class="st0" d="M-287.6,309.4c-13.2,0-24,10.8-24,24s10.8,24,24,24c13.2,0,24-10.8,24-24S-274.4,309.4-287.6,309.4z
			 M-287.6,341.4c-4.4,0-8-3.6-8-8c0-4.4,3.6-8,8-8c4.4,0,8,3.6,8,8C-279.6,337.8-283.2,341.4-287.6,341.4z"/>
	</g>
</g>
<g>
	<g>
		<path class="st0" d="M142.1,379l-11.3-11.3L16.3,482.2c-0.4-0.5-0.8-1-1.2-1.5l-67.3-67.3l10.3-10.3l-11.3-11.3L-77,415.5
			c-12.7,12.7-32.4,14.5-47.1,5.3L-66,363c0,0,0,0,0,0l152-152l-11.3-11.3L-71.6,346l-10.3-10.3c-1.5-1.5-3.5-2.3-5.7-2.3h-28.7
			l-13.7-13.7l-112-112l-11.3,11.3l74.3,74.3l-102.3,102.3l-57-52.2l-10.8,11.8l93.4,85.6v20.5c0,2.1,0.8,4.2,2.3,5.7l34.6,34.6
			c-3.2,4.3-4.9,9.4-4.9,14.8c0,13.5,10.7,24.4,24.1,24.9c0.5,13.1,10.9,23.5,24,24c0.5,13.1,10.9,23.5,24,24
			c0.5,13.4,11.4,24.1,24.9,24.1c3.4,0,6.7-0.7,9.7-2l0.6,0.6c6,6,14.1,9.4,22.6,9.4c8.6,0,16.6-3.3,22.6-9.4L15,525.9
			c6-6,9.4-14.1,9.4-22.6c0-2-0.2-4.1-0.6-6L142.1,379z M-269.4,406.5l101.8-101.8l20.7,20.7l-100.9,100.9L-269.4,406.5z
			 M-192.3,522.7c-1.7,1.7-3.9,2.6-6.3,2.6c-4.9,0-9-4-9-9c0-2.4,0.9-4.6,2.6-6.3l38.1-38.1c1.7-1.7,3.9-2.6,6.3-2.6c4.9,0,9,4,9,9
			c0,2.4-0.9,4.6-2.6,6.3L-192.3,522.7z M-168.3,546.7c-1.7,1.7-3.9,2.6-6.3,2.6c-4.9,0-9-4-9-9c0-2.4,0.9-4.6,2.6-6.3l38.1-38.1
			c1.7-1.7,3.9-2.6,6.3-2.6c4.9,0,9,4,9,9c0,2.4-0.9,4.6-2.6,6.3L-168.3,546.7z M-144.3,570.7c-1.7,1.7-3.9,2.6-6.3,2.6
			c-4.9,0-9-4-9-9c0-2.4,0.9-4.6,2.6-6.3l38.1-38.1c1.7-1.7,3.9-2.6,6.3-2.6c4.9,0,9,4,9,9c0,2.4-0.9,4.6-2.6,6.3L-144.3,570.7z
			 M-120.3,594.7c-1.7,1.7-3.9,2.6-6.3,2.6c-4.9,0-9-4-9-9c0-2.4,0.9-4.6,2.6-6.3l38.1-38.1c1.7-1.7,3.9-2.6,6.3-2.6c4.9,0,9,4,9,9
			c0,2.4-0.9,4.6-2.6,6.3L-120.3,594.7z M3.7,514.6l-86.1,86.1c-5.8,5.8-15.7,6-21.9,0.6l33.3-33.3c4.7-4.7,7.3-11,7.3-17.7
			c0-13.5-10.7-24.4-24.1-24.9c-0.5-13.1-10.9-23.5-24-24c-0.5-13.1-10.9-23.5-24-24c-0.5-13.4-11.4-24.1-24.9-24.1
			c-6.7,0-12.9,2.6-17.7,7.3l-29.4,29.4l-32-32v-17.4l104-104l10.3,10.3c1.5,1.5,3.5,2.3,5.7,2.3h28.7l8,8l-58.8,58.3
			c-1.5,1.5-2.4,3.6-2.4,5.7c0,2.1,0.9,4.2,2.4,5.7c21,20.7,55.1,20.6,76-0.3l2.1-2.1L3.7,492c3,3,4.7,7,4.7,11.3
			C8.4,507.6,6.7,511.6,3.7,514.6z"/>
	</g>
</g>
<g>
	<g>
		<path class="st0" d="M-293.2,524.9l-14,7.7c2.6,4.8,5.5,9.6,8.5,14.2l13.5-8.7C-288.1,533.8-290.8,529.3-293.2,524.9z"/>
	</g>
</g>
<g>
	<g>
		<path class="st0" d="M-179.1,623.8l-5.6,15c5.1,1.9,10.4,3.7,15.7,5.2l4.5-15.4C-169.4,627.2-174.3,625.6-179.1,623.8z"/>
	</g>
</g>
<g>
	<g>
		<path class="st0" d="M-233,594.3l-9.6,12.8c4.4,3.3,9,6.5,13.6,9.5l8.7-13.5C-224.7,600.3-229,597.3-233,594.3z"/>
	</g>
</g>
<g>
	<g>
		<path class="st0" d="M-207.1,611l-7.7,14c4.8,2.6,9.8,5.1,14.8,7.4l6.7-14.5C-198,615.8-202.6,613.4-207.1,611z"/>
	</g>
</g>
<g>
	<g>
		<path class="st0" d="M-256.4,574.1l-11.3,11.3c3.9,3.9,8,7.7,12.1,11.3l10.5-12.1C-248.9,581.2-252.7,577.7-256.4,574.1z"/>
	</g>
</g>
<g>
	<g>
		<path class="st0" d="M-276.6,550.8l-12.8,9.6c3.3,4.4,6.8,8.8,10.4,12.9l12.1-10.5C-270.2,558.9-273.5,554.9-276.6,550.8z"/>
	</g>
</g>
<g>
	<g>
		<path class="st0" d="M-319,436.8l-16,1.1c0.4,5.5,1,11,1.8,16.5l15.8-2.3C-318.1,447.1-318.7,441.9-319,436.8z"/>
	</g>
</g>
<g>
	<g>
		<path class="st0" d="M-335,404.8c-0.4,5.4-0.6,11-0.6,16.5v0l16,0c0-5.2,0.2-10.3,0.5-15.4L-335,404.8z"/>
	</g>
</g>
<g>
	<g>
		<path class="st0" d="M-314.7,467.3l-15.6,3.4c1.2,5.4,2.5,10.8,4.1,16l15.4-4.5C-312.3,477.4-313.6,472.3-314.7,467.3z"/>
	</g>
</g>
<g>
	<g>
		<path class="st0" d="M-306,496.9l-15,5.6c1.9,5.1,4,10.3,6.3,15.3l14.6-6.6C-302.3,506.4-304.2,501.7-306,496.9z"/>
	</g>
</g>
<g>
	<g>
		<path class="st0" d="M92.9,511.1c-2.1,4.7-4.5,9.3-6.9,13.8l14,7.7c2.6-4.8,5.1-9.8,7.4-14.8L92.9,511.1z"/>
	</g>
</g>
<g>
	<g>
		<path class="st0" d="M78.1,538.2c-2.8,4.3-5.8,8.6-8.8,12.7l12.8,9.6c3.3-4.4,6.5-9,9.5-13.6L78.1,538.2z"/>
	</g>
</g>
<g>
	<g>
		<path class="st0" d="M59.6,562.8c-3.4,3.9-6.9,7.7-10.5,11.3l11.3,11.3c3.9-3.9,7.7-8,11.3-12.1L59.6,562.8z"/>
	</g>
</g>
<g>
	<g>
		<path class="st0" d="M103.7,482.2c-1.4,4.9-3.1,9.8-4.9,14.6l15,5.6c1.9-5.1,3.7-10.4,5.2-15.7L103.7,482.2z"/>
	</g>
</g>
<g>
	<g>
		<path class="st0" d="M110.2,452.1c-0.7,5.1-1.6,10.2-2.7,15.2l15.6,3.4c1.2-5.4,2.1-10.8,2.9-16.3L110.2,452.1z"/>
	</g>
</g>
<g>
	<g>
		<path class="st0" d="M37.8,584.6c-3.9,3.3-7.9,6.6-12,9.7l9.6,12.8c4.4-3.3,8.7-6.8,12.9-10.4L37.8,584.6z"/>
	</g>
</g>
<g>
	<g>
		<path class="st0" d="M-149.5,632.5l-3.4,15.6c5.4,1.2,10.8,2.1,16.3,2.9l2.3-15.8C-139.4,634.5-144.5,633.5-149.5,632.5z"/>
	</g>
</g>
<g>
	<g>
		<path class="st0" d="M112.4,421.4c0,5.1-0.2,10.3-0.5,15.4l16,1.1c0.4-5.5,0.6-11,0.6-16.5H112.4L112.4,421.4z"/>
	</g>
</g>
<g>
	<g>
		<path class="st0" d="M-72.8,635.2c-5.1,0.7-10.2,1.3-15.3,1.6l1.1,16c5.5-0.4,11-1,16.5-1.8L-72.8,635.2z"/>
	</g>
</g>
<g>
	<g>
		<path class="st0" d="M-103.6,637.4c-5.1,0-10.3-0.2-15.4-0.5l-1.1,16c5.5,0.4,11,0.6,16.5,0.6L-103.6,637.4z"/>
	</g>
</g>
<g>
	<g>
		<path class="st0" d="M13.2,603.1c-4.3,2.8-8.7,5.4-13.2,7.9l7.7,14c4.8-2.6,9.6-5.5,14.2-8.5L13.2,603.1z"/>
	</g>
</g>
<g>
	<g>
		<path class="st0" d="M-13.9,617.9c-4.7,2.1-9.4,4.1-14.2,5.9l5.6,15c5.1-1.9,10.3-4,15.3-6.3L-13.9,617.9z"/>
	</g>
</g>
<g>
	<g>
		<path class="st0" d="M-42.7,628.7c-4.9,1.4-9.9,2.7-15,3.8l3.4,15.6c5.4-1.2,10.8-2.5,16-4.1L-42.7,628.7z"/>
	</g>
</g>
<g>
	<g>
		<path class="st0" d="M-10.3,209.6l-7,14.4c4.4,2.2,9,4.6,13.6,7.3l8.1-13.8C-0.6,214.6-5.5,212-10.3,209.6z"/>
	</g>
</g>
<g>
	<g>
		<path class="st0" d="M-103.6,189.4l-3.3,0l0.2,16l3.1,0c4.2,0,8.4,0.1,12.4,0.3l0.8-16C-94.7,189.5-99.1,189.4-103.6,189.4z"/>
	</g>
</g>
<g>
	<g>
		<path class="st0" d="M-41.3,197.5l-4.5,15.4c4.8,1.4,9.7,3.1,14.5,4.9l5.8-14.9C-30.7,200.9-36,199.1-41.3,197.5z"/>
	</g>
</g>
<g>
	<g>
		<path class="st0" d="M-74,191l-1.9,15.9c5.2,0.6,10.3,1.4,15.2,2.4l3.1-15.7C-62.8,192.5-68.4,191.7-74,191z"/>
	</g>
</g>
<g>
	<g>
		<path class="st0" d="M-187.8,205.1c-5.1,2-10.2,4.2-15.2,6.6l6.9,14.5c4.6-2.2,9.4-4.3,14.2-6.1L-187.8,205.1z"/>
	</g>
</g>
<g>
	<g>
		<path class="st0" d="M-156.2,195.4c-5.4,1.2-10.8,2.7-16,4.3l4.7,15.3c4.9-1.5,9.9-2.9,14.9-4L-156.2,195.4z"/>
	</g>
</g>
<g>
	<g>
		<path class="st0" d="M-123.5,190.2c-5.5,0.5-11,1.1-16.4,2l2.5,15.8c5-0.8,10.2-1.4,15.3-1.9L-123.5,190.2z"/>
	</g>
</g>
</svg>
