<?xml version="1.0" encoding="utf-8"?>
<!-- Generator: Adobe Illustrator 19.0.0, SVG Export Plug-In . SVG Version: 6.00 Build 0)  -->
<svg version="1.1" id="Capa_1" xmlns="http://www.w3.org/2000/svg" xmlns:xlink="http://www.w3.org/1999/xlink" x="0px" y="0px"
	 viewBox="-31 154.6 532.3 532.3" enable-background="new -31 154.6 532.3 532.3" xml:space="preserve">
<g id="XMLID_828_">
	<defs>
		<rect id="XMLID_829_" x="73.8" y="239.3" width="322.7" height="362.9"/>
	</defs>
	<clipPath id="XMLID_2_">
		<use xlink:href="#XMLID_829_"  overflow="visible"/>
	</clipPath>
	<path id="XMLID_830_" clip-path="url(#XMLID_2_)" fill="#E51552" d="M73.9,382.3c0-6.4,5.2-11.6,11.7-11.6h13h6.4V338
		c0-10.7,8.7-19.4,19.4-19.4h6.8c-7.3-8-11.7-18.6-11.7-30.3c0-24.9,20.2-45.2,45.2-45.2s45.2,20.2,45.2,45.2
		c0,11.7-4.5,22.2-11.7,30.3h6.5c10.7,0,19.4,8.7,19.4,19.4v32.6h6.7h12.9c6.5,0,11.7,5.2,11.7,11.6s-5.2,11.7-11.7,11.7h-3.1
		l-2.5,14.9c-0.9,0-1.8-0.2-2.7-0.2c-21.9,0-40.9,12.6-50.2,31c-9.2-18.3-28.2-31-50.1-31c-16.1,0-30.6,6.9-40.9,17.8l-5.4-32.5
		h-3.1C79.2,393.9,73.9,388.7,73.9,382.3 M396.5,584.4c0,9.9-8,17.8-17.8,17.8H91.6c-9.8,0-17.8-8-17.8-17.8c0-8,5.3-14.7,12.5-16.9
		c-2.4-2.9-3.8-6.6-3.8-10.6v-48.4c0-9.4,7.6-17.1,17.1-17.1h6c-6.4-7-10.3-16.3-10.3-26.6c0-21.9,17.8-39.7,39.7-39.7
		c22,0,39.8,17.8,39.8,39.7c0,10.2-3.9,19.6-10.3,26.6h5.7c6.4,0,11.9,3.6,14.8,8.8c2.9-5.2,8.5-8.8,14.9-8.8h6
		c-6.4-7-10.3-16.3-10.3-26.6c0-21.9,17.8-39.7,39.7-39.7s39.7,17.8,39.7,39.7c0,10.2-3.9,19.6-10.3,26.6h5.7
		c6.4,0,11.9,3.6,14.9,8.8c2.9-5.2,8.5-8.8,14.9-8.8h6c-6.4-7-10.3-16.3-10.3-26.6c0-21.9,17.8-39.7,39.7-39.7
		c21.9,0,39.7,17.8,39.7,39.7c0,10.2-3.9,19.6-10.3,26.6h5.7c9.5,0,17.1,7.7,17.1,17.1v48.4c0,4-1.5,7.7-3.8,10.6
		C391.2,569.7,396.5,576.4,396.5,584.4 M290.5,317.6h63.1c4.3,0,7.8,3.5,7.8,7.8c0,4.3-3.5,7.8-7.8,7.8h-63.1
		c-4.3,0-7.8-3.5-7.8-7.8C282.7,321.1,286.2,317.6,290.5,317.6 M290.5,292.3h63.1c4.3,0,7.8,3.5,7.8,7.8c0,4.3-3.5,7.8-7.8,7.8
		h-63.1c-4.3,0-7.8-3.5-7.8-7.8C282.7,295.8,286.2,292.3,290.5,292.3 M290.5,267.1h63.1c4.3,0,7.8,3.5,7.8,7.8
		c0,4.3-3.5,7.8-7.8,7.8h-63.1c-4.3,0-7.8-3.5-7.8-7.8C282.7,270.6,286.2,267.1,290.5,267.1 M238.7,349.6l36.8-6
		c13.2,8.7,29.9,13.6,47,13.6c40.7,0,73.8-26.4,73.8-58.9s-33.1-58.9-73.8-58.9c-40.7,0-73.8,26.4-73.8,58.9
		c0,8.2,2.1,16.2,6.3,23.7l-19.8,21.2c-1.1,1.2-1.4,3-0.6,4.5C235.4,349,237,349.9,238.7,349.6"/>
</g>
</svg>
