<?xml version="1.0" encoding="utf-8"?>
<!-- Generator: Adobe Illustrator 19.0.0, SVG Export Plug-In . SVG Version: 6.00 Build 0)  -->
<svg version="1.1" id="Capa_1" xmlns="http://www.w3.org/2000/svg" xmlns:xlink="http://www.w3.org/1999/xlink" x="0px" y="0px"
	 viewBox="0 7 300 188" style="enable-background:new 0 7 300 188;" xml:space="preserve">
<style type="text/css">
	.st0{fill:#FFFFFF;}
</style>
<path id="XMLID_1040_" class="st0" d="M197.5,43.6c0-1.6-0.6-3.1-1.6-4.2l0,0L170.1,12l0,0c-3.3,0-8.1,0-12.4,0
	c-3.2,0-5.3,2.4-6.1,4.7l-17.3,45.4L118,45l0,0c-0.3-0.3-0.5-0.8-0.5-1.3c0-0.5,0.2-1,0.5-1.3l0,0L146.6,12H132
	c-1.7,0-3.3,0.7-4.4,1.8l-24.1,25.6l0,0c-1,1.1-1.6,2.6-1.6,4.2c0,1.6,0.6,3.1,1.6,4.2l0,0l25.8,27.3l0.2,0c3.3,0,8.6,0,13,0
	c2.9,0,4.5-2.2,5.4-4.2l17.3-45.8l16.2,17.1l0,0c0.3,0.3,0.5,0.8,0.5,1.3c0,0.5-0.2,1-0.5,1.3l0,0l-28.6,30.3h14.6
	c1.7,0,3.3-0.7,4.4-1.8h0l24.1-25.6l0,0C196.9,46.8,197.5,45.3,197.5,43.6z"/>
<path id="XMLID_1037_" class="st0" d="M141.6,137.1v-4.8c3.7,1.2,7.4,1.8,11.2,1.8c5,0,7.5-1.5,7.5-4.5c0-2.8-1.7-4.2-5.2-4.2h-4.5
	c-6.8,0-10.2-3.1-10.2-9.3c0-6,4.4-9,13.1-9c3.8,0,7.5,0.5,11.2,1.5v4.8c-3.7-1.2-7.4-1.8-11.2-1.8c-5.2,0-7.8,1.5-7.8,4.5
	c0,2.8,1.6,4.2,4.9,4.2h4.5c7.2,0,10.8,3.1,10.8,9.3c0,6-4.3,9-13,9C149,138.6,145.3,138.1,141.6,137.1z"/>
<path id="XMLID_1034_" class="st0" d="M170.7,108.5c4.2-0.9,8.5-1.3,12.9-1.3c10.1,0,15.1,5,15.1,14.9c0,11-5.1,16.5-15.2,16.5
	c-2.5,0-4.9-0.5-7.3-1.5V150h-5.5V108.5z M176.2,132.2c2.2,1.1,4.6,1.6,7.3,1.6c6.5,0,9.8-3.9,9.8-11.8c0-6.8-3.2-10.3-9.7-10.3
	c-2.8,0-5.2,0.2-7.3,0.7V132.2z"/>
<path id="XMLID_1031_" class="st0" d="M203.5,129.2c0-6.4,4.3-9.7,12.7-9.7c2.7,0,5.5,0.2,8.2,0.6v-3c0-3.6-2.8-5.4-8.5-5.4
	c-3.2,0-6.5,0.5-9.9,1.5v-4.5c3.4-1,6.7-1.5,9.9-1.5c9.3,0,14,3.3,14,9.8v21.7h-3.1l-1.9-3.1c-3.1,2.1-6.5,3.1-10.2,3.1
	C207.3,138.6,203.5,135.5,203.5,129.2z M216.3,124c-4.8,0-7.2,1.7-7.2,5.1c0,3.4,1.9,5.1,5.7,5.1c3.8,0,7.1-1,9.7-3.1v-6.5
	C221.8,124.2,219,124,216.3,124z"/>
<path id="XMLID_1029_" class="st0" d="M260,137.7c-2.6,0.6-5.4,0.9-8.4,0.9c-11.2,0-16.8-5.4-16.8-16.3c0-10.1,5.6-15.1,16.8-15.1
	c3,0,5.8,0.3,8.4,0.9v4.5c-2.6-0.6-5.5-0.9-8.7-0.9c-7.3,0-10.9,3.5-10.9,10.6c0,7.9,3.6,11.8,10.9,11.8c3.2,0,6.1-0.3,8.7-0.9
	V137.7z"/>
<path id="XMLID_1026_" class="st0" d="M279.4,107.2c8.9,0,13.4,4.4,13.4,13.3c0,1.3-0.1,2.6-0.3,4h-22.1c0,6.4,3.7,9.6,11.3,9.6
	c3.6,0,6.7-0.4,9.5-1.2v4.5c-2.8,0.8-6.1,1.2-10.1,1.2c-10.8,0-16.2-5.4-16.2-16.1C265,112.3,269.8,107.2,279.4,107.2z M270.5,119.9
	h17c-0.1-5.5-2.8-8.3-8.1-8.3C273.8,111.7,270.9,114.4,270.5,119.9z"/>
<path id="XMLID_282_" class="st0" d="M24.5,114c2.3,0,4.8,0.3,7.4,0.9l0.5,0.1v-7l-0.3-0.1c-2.6-0.6-5.3-0.9-8.1-0.9
	c-11.3,0-17.1,5.2-17.1,15.4c0,11,5.7,16.6,17.1,16.6c2.8,0,5.5-0.3,8.1-0.9l0.3-0.1v-7l-0.5,0.1c-2.5,0.6-5,0.9-7.4,0.9
	c-6.1,0-9-3.1-9-9.6C15.5,116.7,18.4,114,24.5,114z"/>
<path id="XMLID_288_" class="st0" d="M52.4,106.9c-10.5,0-15.9,5.4-15.9,16.1v0c0,10.7,5.4,16.1,15.9,16.1
	c10.5,0,15.9-5.4,15.9-16.1C68.3,112.3,62.9,106.9,52.4,106.9z M59.6,122.9c0,6.3-2.4,9.4-7.2,9.4s-7.2-3.1-7.2-9.4
	c0-6.2,2.4-9.2,7.2-9.2S59.6,116.7,59.6,122.9z"/>
<path id="XMLID_291_" class="st0" d="M93.7,95.6v12.6c-2.1-0.9-4.1-1.3-6.1-1.3c-10.1,0-15.2,5.2-15.2,15.4
	c0,11.1,5.2,16.7,15.6,16.7c4.6,0,9.3-0.6,14.1-1.9l0.3-0.1V95.6H93.7z M93.7,115.7v15.1c-1.7,0.5-3.5,0.8-5.5,0.8
	c-4.9,0-7.3-3.1-7.3-9.4c0-5.3,2.3-7.9,7-7.9C90.2,114.3,92.1,114.8,93.7,115.7z"/>
<path id="XMLID_294_" class="st0" d="M121.5,107c-10,0-15.1,5.3-15.1,15.7c0,10.9,5.9,16.4,17.4,16.4c4,0,7.4-0.3,10.2-0.9l0.3-0.1
	v-7l-0.5,0.1c-3.1,0.6-6.3,0.9-9.4,0.9c-6.1,0-9.1-1.9-9.3-5.9h20.7l0-0.3c0.2-1.3,0.3-2.6,0.3-3.9C136.1,112,131.2,107,121.5,107z
	 M115.1,119.9c0.4-4,2.5-6,6.4-6c4.1,0,6.1,2,6.2,6H115.1z"/>
<g id="XMLID_814_">
	<g>
		<path id="XMLID_402_" class="st0" d="M19.7,169.8h9.1v2.2h-7v4.6h5.9v2.1h-5.9v6.7h-2.2V169.8z"/>
		<path id="XMLID_399_" class="st0" d="M31.4,177.6c0-1.8,0-3,0.1-3.7c0.1-0.6,0.3-1.1,0.5-1.5c0.3-0.7,0.9-1.4,1.7-1.9
			c0.8-0.6,1.7-0.9,2.8-0.9c1.1,0,2.1,0.3,2.8,0.9c0.8,0.6,1.3,1.2,1.6,1.9c0.2,0.4,0.4,0.9,0.5,1.5c0.1,0.6,0.1,1.8,0.1,3.6
			c0,1.8,0,3-0.1,3.6c-0.1,0.6-0.3,1.1-0.5,1.5c-0.3,0.7-0.9,1.4-1.6,1.9c-0.8,0.6-1.7,0.9-2.8,0.9c-1.1,0-2.1-0.3-2.8-0.9
			c-0.8-0.6-1.3-1.2-1.7-1.9c-0.1-0.2-0.2-0.5-0.3-0.7c-0.1-0.2-0.1-0.5-0.2-0.8C31.5,180.6,31.4,179.4,31.4,177.6z M33.6,177.6
			c0,1.5,0.1,2.6,0.2,3.1c0.1,0.5,0.3,1,0.6,1.3c0.2,0.3,0.5,0.6,0.9,0.8c0.4,0.2,0.8,0.4,1.3,0.4c0.5,0,1-0.1,1.3-0.4
			c0.4-0.2,0.6-0.5,0.9-0.8c0.3-0.3,0.5-0.8,0.6-1.3c0.1-0.5,0.1-1.6,0.1-3.1s0-2.6-0.1-3.1c-0.1-0.5-0.3-1-0.6-1.3
			c-0.2-0.3-0.5-0.6-0.9-0.8c-0.4-0.2-0.8-0.3-1.3-0.3c-0.5,0-0.9,0.1-1.3,0.3c-0.4,0.2-0.7,0.5-0.9,0.8c-0.3,0.3-0.5,0.8-0.6,1.3
			C33.6,175.1,33.6,176.1,33.6,177.6z"/>
		<path id="XMLID_396_" class="st0" d="M45.6,169.8h5.6c1.2,0,2.2,0.3,2.9,1c0.9,0.8,1.4,1.9,1.4,3.3c0,2.1-0.9,3.6-2.8,4.3l3.3,6.9
			h-2.6l-3-6.7h-2.8v6.7h-2.2V169.8z M47.7,176.7H51c0.8,0,1.4-0.3,1.8-0.8c0.4-0.5,0.6-1,0.6-1.7c0-0.8-0.3-1.4-0.7-1.8
			c-0.4-0.3-0.9-0.5-1.6-0.5h-3.4V176.7z"/>
		<path id="XMLID_394_" class="st0" d="M59.3,169.8h2l4.1,10.2l4-10.2h2v15.6h-2.2v-9.8h0l-3,7.5h-1.8l-3-7.5h0v9.8h-2.2V169.8z"/>
		<path id="XMLID_391_" class="st0" d="M83.3,182h-5.4l-1.1,3.5h-2.3l5.2-15.6h1.8l5.2,15.6h-2.3L83.3,182z M82.7,179.9l-2.1-6.8h0
			l-2.1,6.8H82.7z"/>
		<path id="XMLID_389_" class="st0" d="M98.9,181.1c-0.3,1.4-0.9,2.6-1.8,3.3c-0.9,0.8-2,1.2-3.2,1.2c-1.1,0-2.1-0.3-2.8-0.9
			c-0.8-0.6-1.3-1.2-1.7-1.9c-0.1-0.2-0.2-0.5-0.3-0.7c-0.1-0.2-0.1-0.5-0.2-0.8c-0.1-0.6-0.1-1.8-0.1-3.6c0-1.8,0-3,0.1-3.6
			c0.1-0.6,0.3-1.1,0.5-1.5c0.3-0.7,0.9-1.4,1.7-1.9c0.8-0.6,1.7-0.9,2.8-0.9c1.4,0,2.5,0.5,3.4,1.3c0.9,0.9,1.4,2,1.6,3.3h-2.3
			c-0.2-0.6-0.5-1.2-1-1.6c-0.5-0.4-1.1-0.6-1.8-0.7c-0.5,0-0.9,0.1-1.3,0.3c-0.4,0.2-0.7,0.5-0.9,0.8c-0.3,0.3-0.5,0.8-0.6,1.3
			c-0.1,0.6-0.2,1.6-0.2,3.1s0.1,2.6,0.2,3.1c0.1,0.5,0.3,1,0.6,1.3c0.2,0.3,0.5,0.6,0.9,0.8c0.4,0.2,0.8,0.4,1.3,0.4
			c1.2,0,2.1-0.7,2.7-2.1H98.9z"/>
		<path id="XMLID_387_" class="st0" d="M101.9,169.8h2.2v15.6h-2.2V169.8z"/>
		<path id="XMLID_383_" class="st0" d="M107.8,177.6c0-1.8,0-3,0.1-3.7c0.1-0.6,0.3-1.1,0.5-1.5c0.3-0.7,0.9-1.4,1.7-1.9
			c0.8-0.6,1.7-0.9,2.8-0.9c1.1,0,2.1,0.3,2.8,0.9c0.8,0.6,1.3,1.2,1.6,1.9c0.2,0.4,0.4,0.9,0.5,1.5c0.1,0.6,0.1,1.8,0.1,3.6
			c0,1.8,0,3-0.1,3.6c-0.1,0.6-0.3,1.1-0.5,1.5c-0.3,0.7-0.9,1.4-1.6,1.9c-0.8,0.6-1.7,0.9-2.8,0.9c-1.1,0-2.1-0.3-2.8-0.9
			c-0.8-0.6-1.3-1.2-1.7-1.9c-0.1-0.2-0.2-0.5-0.3-0.7c-0.1-0.2-0.1-0.5-0.2-0.8C107.8,180.6,107.8,179.4,107.8,177.6z M109.9,177.6
			c0,1.5,0.1,2.6,0.2,3.1c0.1,0.5,0.3,1,0.6,1.3c0.2,0.3,0.5,0.6,0.9,0.8c0.4,0.2,0.8,0.4,1.3,0.4c0.5,0,1-0.1,1.3-0.4
			c0.4-0.2,0.6-0.5,0.9-0.8c0.3-0.3,0.5-0.8,0.6-1.3c0.1-0.5,0.1-1.6,0.1-3.1s0-2.6-0.1-3.1c-0.1-0.5-0.3-1-0.6-1.3
			c-0.2-0.3-0.5-0.6-0.9-0.8c-0.4-0.2-0.8-0.3-1.3-0.3c-0.5,0-0.9,0.1-1.3,0.3c-0.4,0.2-0.7,0.5-0.9,0.8c-0.3,0.3-0.5,0.8-0.6,1.3
			C110,175.1,109.9,176.1,109.9,177.6z M113.4,165.9h2.7l-2.8,3.2h-1.7L113.4,165.9z"/>
		<path id="XMLID_381_" class="st0" d="M121.9,169.8h2l6.5,11.1h0v-11.1h2.2v15.6h-2l-6.5-11.1h0v11.1h-2.2V169.8z"/>
		<path id="XMLID_379_" class="st0" d="M145.6,171.9h-3.9v-2.1h10v2.1h-3.9v13.5h-2.2V171.9z"/>
		<path id="XMLID_377_" class="st0" d="M154.5,169.8h9.1v2.2h-7v4.5h5.9v2.1h-5.9v4.6h7v2.2h-9.1V169.8z"/>
		<path id="XMLID_375_" class="st0" d="M176.7,181.1c-0.3,1.4-0.9,2.6-1.8,3.3c-0.9,0.8-2,1.2-3.2,1.2c-1.1,0-2.1-0.3-2.8-0.9
			c-0.8-0.6-1.3-1.2-1.7-1.9c-0.1-0.2-0.2-0.5-0.3-0.7c-0.1-0.2-0.1-0.5-0.2-0.8c-0.1-0.6-0.1-1.8-0.1-3.6c0-1.8,0-3,0.1-3.6
			c0.1-0.6,0.3-1.1,0.5-1.5c0.3-0.7,0.9-1.4,1.7-1.9c0.8-0.6,1.7-0.9,2.8-0.9c1.4,0,2.5,0.5,3.4,1.3c0.9,0.9,1.4,2,1.6,3.3h-2.3
			c-0.2-0.6-0.5-1.2-1-1.6c-0.5-0.4-1.1-0.6-1.8-0.7c-0.5,0-0.9,0.1-1.3,0.3c-0.4,0.2-0.7,0.5-0.9,0.8c-0.3,0.3-0.5,0.8-0.6,1.3
			c-0.1,0.6-0.2,1.6-0.2,3.1s0.1,2.6,0.2,3.1c0.1,0.5,0.3,1,0.6,1.3c0.2,0.3,0.5,0.6,0.9,0.8c0.4,0.2,0.8,0.4,1.3,0.4
			c1.2,0,2.1-0.7,2.7-2.1H176.7z"/>
		<path id="XMLID_373_" class="st0" d="M179.7,169.8h2l6.5,11.1h0v-11.1h2.2v15.6h-2l-6.5-11.1h0v11.1h-2.2V169.8z"/>
		<path id="XMLID_370_" class="st0" d="M194.4,177.6c0-1.8,0-3,0.1-3.7c0.1-0.6,0.3-1.1,0.5-1.5c0.3-0.7,0.9-1.4,1.7-1.9
			c0.8-0.6,1.7-0.9,2.8-0.9c1.1,0,2.1,0.3,2.8,0.9c0.8,0.6,1.3,1.2,1.6,1.9c0.2,0.4,0.4,0.9,0.5,1.5c0.1,0.6,0.1,1.8,0.1,3.6
			c0,1.8,0,3-0.1,3.6c-0.1,0.6-0.3,1.1-0.5,1.5c-0.3,0.7-0.9,1.4-1.6,1.9c-0.8,0.6-1.7,0.9-2.8,0.9c-1.1,0-2.1-0.3-2.8-0.9
			c-0.8-0.6-1.3-1.2-1.7-1.9c-0.1-0.2-0.2-0.5-0.3-0.7c-0.1-0.2-0.1-0.5-0.2-0.8C194.5,180.6,194.4,179.4,194.4,177.6z M196.6,177.6
			c0,1.5,0.1,2.6,0.2,3.1c0.1,0.5,0.3,1,0.6,1.3c0.2,0.3,0.5,0.6,0.9,0.8c0.4,0.2,0.8,0.4,1.3,0.4c0.5,0,1-0.1,1.3-0.4
			c0.4-0.2,0.6-0.5,0.9-0.8c0.3-0.3,0.5-0.8,0.6-1.3c0.1-0.5,0.1-1.6,0.1-3.1s0-2.6-0.1-3.1c-0.1-0.5-0.3-1-0.6-1.3
			c-0.2-0.3-0.5-0.6-0.9-0.8c-0.4-0.2-0.8-0.3-1.3-0.3c-0.5,0-0.9,0.1-1.3,0.3c-0.4,0.2-0.7,0.5-0.9,0.8c-0.3,0.3-0.5,0.8-0.6,1.3
			C196.6,175.1,196.6,176.1,196.6,177.6z"/>
		<path id="XMLID_368_" class="st0" d="M208.6,169.8h2.2v13.4h7v2.2h-9.1V169.8z"/>
		<path id="XMLID_364_" class="st0" d="M220.6,177.6c0-1.8,0-3,0.1-3.7c0.1-0.6,0.3-1.1,0.5-1.5c0.3-0.7,0.9-1.4,1.7-1.9
			c0.8-0.6,1.7-0.9,2.8-0.9c1.1,0,2.1,0.3,2.8,0.9c0.8,0.6,1.3,1.2,1.6,1.9c0.2,0.4,0.4,0.9,0.5,1.5c0.1,0.6,0.1,1.8,0.1,3.6
			c0,1.8,0,3-0.1,3.6c-0.1,0.6-0.3,1.1-0.5,1.5c-0.3,0.7-0.9,1.4-1.6,1.9c-0.8,0.6-1.7,0.9-2.8,0.9c-1.1,0-2.1-0.3-2.8-0.9
			c-0.8-0.6-1.3-1.2-1.7-1.9c-0.1-0.2-0.2-0.5-0.3-0.7c-0.1-0.2-0.1-0.5-0.2-0.8C220.7,180.6,220.6,179.4,220.6,177.6z M222.8,177.6
			c0,1.5,0.1,2.6,0.2,3.1c0.1,0.5,0.3,1,0.6,1.3c0.2,0.3,0.5,0.6,0.9,0.8c0.4,0.2,0.8,0.4,1.3,0.4c0.5,0,1-0.1,1.3-0.4
			c0.4-0.2,0.6-0.5,0.9-0.8c0.3-0.3,0.5-0.8,0.6-1.3c0.1-0.5,0.1-1.6,0.1-3.1s0-2.6-0.1-3.1c-0.1-0.5-0.3-1-0.6-1.3
			c-0.2-0.3-0.5-0.6-0.9-0.8c-0.4-0.2-0.8-0.3-1.3-0.3c-0.5,0-0.9,0.1-1.3,0.3c-0.4,0.2-0.7,0.5-0.9,0.8c-0.3,0.3-0.5,0.8-0.6,1.3
			C222.9,175.1,222.8,176.1,222.8,177.6z M226.3,165.9h2.7l-2.8,3.2h-1.7L226.3,165.9z"/>
		<path id="XMLID_362_" class="st0" d="M239.4,176.9h5.1v3.2c0,1.6-0.5,2.9-1.5,3.9c-1,1-2.2,1.6-3.6,1.6c-1.1,0-2.1-0.3-2.8-0.9
			c-0.8-0.6-1.3-1.2-1.7-1.9c-0.1-0.2-0.2-0.5-0.3-0.7c-0.1-0.2-0.1-0.5-0.2-0.8c-0.1-0.6-0.1-1.8-0.1-3.6c0-1.8,0-3,0.1-3.6
			c0.1-0.6,0.3-1.1,0.5-1.5c0.3-0.7,0.9-1.4,1.7-1.9c0.8-0.6,1.7-0.9,2.8-0.9c1.4,0,2.5,0.5,3.4,1.3c0.9,0.9,1.4,2,1.6,3.3h-2.3
			c-0.2-0.6-0.5-1.2-1-1.6c-0.5-0.4-1.1-0.6-1.8-0.7c-0.5,0-0.9,0.1-1.3,0.3c-0.4,0.2-0.7,0.5-0.9,0.8c-0.3,0.3-0.5,0.8-0.6,1.3
			c-0.1,0.6-0.2,1.6-0.2,3.1s0.1,2.6,0.2,3.1c0.1,0.5,0.3,1,0.6,1.3c0.2,0.3,0.5,0.6,0.9,0.8c0.4,0.2,0.8,0.4,1.3,0.4
			c0.8,0,1.5-0.3,2.1-0.9c0.5-0.6,0.8-1.4,0.8-2.4v-0.8h-2.9V176.9z"/>
		<path id="XMLID_360_" class="st0" d="M248.5,169.8h2.2v15.6h-2.2V169.8z"/>
		<path id="XMLID_358_" class="st0" d="M264.5,181.1c-0.3,1.4-0.9,2.6-1.8,3.3c-0.9,0.8-2,1.2-3.2,1.2c-1.1,0-2.1-0.3-2.8-0.9
			c-0.8-0.6-1.3-1.2-1.7-1.9c-0.1-0.2-0.2-0.5-0.3-0.7c-0.1-0.2-0.1-0.5-0.2-0.8c-0.1-0.6-0.1-1.8-0.1-3.6c0-1.8,0-3,0.1-3.6
			c0.1-0.6,0.3-1.1,0.5-1.5c0.3-0.7,0.9-1.4,1.7-1.9c0.8-0.6,1.7-0.9,2.8-0.9c1.4,0,2.5,0.5,3.4,1.3c0.9,0.9,1.4,2,1.6,3.3h-2.3
			c-0.2-0.6-0.5-1.2-1-1.6c-0.5-0.4-1.1-0.6-1.8-0.7c-0.5,0-0.9,0.1-1.3,0.3c-0.4,0.2-0.7,0.5-0.9,0.8c-0.3,0.3-0.5,0.8-0.6,1.3
			c-0.1,0.6-0.2,1.6-0.2,3.1s0.1,2.6,0.2,3.1c0.1,0.5,0.3,1,0.6,1.3c0.2,0.3,0.5,0.6,0.9,0.8c0.4,0.2,0.8,0.4,1.3,0.4
			c1.2,0,2.1-0.7,2.7-2.1H264.5z"/>
		<path id="XMLID_355_" class="st0" d="M274.8,182h-5.4l-1.1,3.5h-2.3l5.2-15.6h1.8l5.2,15.6h-2.3L274.8,182z M274.1,179.9l-2.1-6.8
			h0l-2.1,6.8H274.1z"/>
	</g>
</g>
</svg>
