<?xml version="1.0" encoding="utf-8"?>
<!-- Generator: Adobe Illustrator 19.0.0, SVG Export Plug-In . SVG Version: 6.00 Build 0)  -->
<svg version="1.1" id="Capa_1" xmlns="http://www.w3.org/2000/svg" xmlns:xlink="http://www.w3.org/1999/xlink" x="0px" y="0px"
	 viewBox="-525 350.9 140 140" style="enable-background:new -525 350.9 140 140;" xml:space="preserve">
<style type="text/css">
	.st0{fill:#FFFFFF;}
	.st1{fill:none;stroke:#FFFFFF;stroke-width:6.631;stroke-miterlimit:10;}
</style>
<g id="XMLID_190_">
	<path id="XMLID_201_" class="st0" d="M-449.2,384.2c-2.3,0-3.8,1.7-4.4,3.4l-16.1,42.2c2.4,0,6.3,0,9.5,0c2.1,0,3.3-1.6,3.9-3
		l16.1-42.6C-442.6,384.2-446.1,384.2-449.2,384.2z"/>
	<path id="XMLID_197_" class="st0" d="M-469.7,429.8l3.6-9.4l-11.7-12.5l0,0c-0.2-0.3-0.4-0.6-0.4-0.9c0-0.4,0.1-0.7,0.4-0.9l0,0
		l20.6-21.9h-10.5c-1.2,0-2.4,0.5-3.2,1.3l-17.5,18.4l0,0c-0.7,0.8-1.2,1.9-1.2,3.1s0.5,2.3,1.2,3.1l0,0L-469.7,429.8L-469.7,429.8
		C-469.6,429.8-469.7,429.8-469.7,429.8z"/>
	<path id="XMLID_191_" class="st0" d="M-420.4,407c0-1.2-0.5-2.3-1.2-3.1l0,0l-18.6-19.7l0,0l0,0l-3.6,9.5l11.7,12.4l0,0
		c0.2,0.3,0.4,0.6,0.4,0.9c0,0.4-0.1,0.7-0.4,0.9l0,0l-20.7,21.9h10.5c1.2,0,2.4-0.5,3.2-1.3l0,0l17.4-18.5l0,0
		C-420.9,409.2-420.4,408.2-420.4,407z"/>
</g>
<polygon id="XMLID_2_" class="st1" points="-489.7,376.3 -419.8,376.3 -400.4,399 -455.1,463.6 -509.5,399 "/>
</svg>
