<?xml version="1.0" encoding="utf-8"?>
<!-- Generator: Adobe Illustrator 19.0.0, SVG Export Plug-In . SVG Version: 6.00 Build 0)  -->
<svg version="1.1" baseProfile="tiny" id="Capa_1" xmlns="http://www.w3.org/2000/svg" xmlns:xlink="http://www.w3.org/1999/xlink"
	 x="0px" y="0px" viewBox="-31 154.6 532.3 532.3" xml:space="preserve">
<g id="XMLID_12_">
	<g>
		<path fill="#E51552" d="M416.1,429.2c0-15.9-12.9-28.8-28.8-28.8c-16,0-28.8,12.9-28.8,28.8c0,15.9,12.9,28.8,28.8,28.8
			C403.3,458,416.1,445.1,416.1,429.2z"/>
		<path fill="#E51552" d="M387.3,477.8c-22.9,0-41.5,18.6-41.5,41.5c0,22.9,18.6,41.4,41.5,41.4c22.8,0,41.4-18.6,41.4-41.4
			C428.7,496.3,410.2,477.8,387.3,477.8z"/>
	</g>
	<polygon id="XMLID_671_" fill="#E51552" points="388,585.2 372.2,566.9 335.6,576.9 335.6,646.8 439,646.8 436.7,576.9 
		403.3,566.9 	"/>
	<path fill="#E51552" d="M239,478.9c-22.9,0-41.5,18.6-41.5,41.5c0,22.9,18.6,41.5,41.5,41.5c22.9,0,41.4-18.6,41.4-41.5
		C280.4,497.5,261.8,478.9,239,478.9z"/>
	<polygon id="XMLID_659_" fill="#E51552" points="239.6,586.4 223.9,568 187.3,578.1 187.3,647.9 290.7,647.9 288.4,578.1 255,568 	
		"/>
	<g>
		<path fill="#E51552" d="M311.9,492.8c16.8,0,30.3-13.6,30.3-30.3c0-16.7-13.6-30.3-30.3-30.3s-30.3,13.6-30.3,30.3
			C281.6,479.3,295.2,492.8,311.9,492.8z"/>
		<path fill="#E51552" d="M340.6,520.4c0-8.1,2.2-15.7,4.6-23h-3h-7.4h-11.3l-11.2,13.4l-11.5-13.4H289h-6.6
			c3.1,7.1,4.8,14.8,4.8,23c0,13.3-4.7,25.6-12.4,35.5h74.9l0-1.9C344.3,543.8,340.6,532.7,340.6,520.4z"/>
		<path fill="#E51552" d="M162.1,360.1c0-32.1-26.1-58.2-58.2-58.2s-58.2,26.1-58.2,58.2c0,32.2,26.1,58.2,58.2,58.2
			S162.1,392.2,162.1,360.1z"/>
	</g>
	<polygon id="XMLID_641_" fill="#E51552" points="162.5,427 125.1,427 102.9,452.8 81.4,427 34.5,437.1 31.3,540.4 51.2,540.4 
		52,556.5 157.3,556.5 162.4,457.2 245.7,416.4 236.7,389.2 	"/>
	<g>
		<path fill="none" d="M183.3,261.4c-1.5,21,12.8,42.1,38.1,56.4l4.1,2.3l-18.4,27.5c18.4-1.8,61-6.4,92.6-13.4
			c24-5.3,80.3-21.7,82.9-58.7c2.6-36.3-40-68.9-95-72.8C232.6,198.8,185.9,225.2,183.3,261.4z"/>
		<path fill="#E51552" d="M174.6,260.8c-1.7,23.3,12.6,46.3,38.4,62.2l-23.4,34.9l9.1-0.7c0.6-0.1,61.1-5.1,102.9-14.4
			c54.9-12.1,87.6-36.4,89.8-66.7c2.9-41.1-43.4-78-103.2-82.2c-3.7-0.3-7.4-0.4-11.1-0.4h0C222.2,193.5,177.3,222.3,174.6,260.8z
			 M382.5,275.5c-2.6,37-58.8,53.4-82.9,58.7c-31.6,7-74.1,11.6-92.6,13.4l18.4-27.5l-4.1-2.3c-25.3-14.2-39.5-35.3-38.1-56.4
			c2.6-36.3,49.3-62.6,104.3-58.8C342.5,206.6,385.1,239.2,382.5,275.5z"/>
	</g>
</g>
</svg>
