<?xml version="1.0" encoding="utf-8"?>
<!-- Generator: Adobe Illustrator 19.0.0, SVG Export Plug-In . SVG Version: 6.00 Build 0)  -->
<svg version="1.1" id="Capa_1" xmlns="http://www.w3.org/2000/svg" xmlns:xlink="http://www.w3.org/1999/xlink" x="0px" y="0px"
	 viewBox="-247 370.4 100.5 100.5" style="enable-background:new -247 370.4 100.5 100.5;" xml:space="preserve">
<style type="text/css">
	.st0{clip-path:url(#SVGID_2_);fill:none;stroke:#E51A53;stroke-width:2.091;stroke-miterlimit:10;}
	.st1{fill:#E51A53;}
	.st2{font-family:'SourceSansPro-Bold';}
	.st3{font-size:23.1454px;}
	.st4{clip-path:url(#SVGID_4_);fill:#FFFFFF;}
	.st5{clip-path:url(#SVGID_4_);fill:none;stroke:#E51A53;stroke-width:2.091;stroke-miterlimit:10;}
	.st6{clip-path:url(#SVGID_6_);fill:none;stroke:#E51A53;stroke-width:3;}
</style>
<g>
	<g>
		<defs>
			<rect id="SVGID_1_" x="-242.2" y="376" width="90.9" height="89.3"/>
		</defs>
		<clipPath id="SVGID_2_">
			<use xlink:href="#SVGID_1_"  style="overflow:visible;"/>
		</clipPath>
		<path class="st0" d="M-229.6,438.9l8-4.5l17.6,0.2c4,0,7.3-3.6,7.4-8.1l0.1-7.6c0-4.5-3.2-8.2-7.2-8.3l-18.7-0.2
			c-4,0-7.3,3.6-7.4,8.1l-0.1,7.6c0,2.5,0.9,4.7,2.4,6.2C-229,436.7-229.6,438.9-229.6,438.9z"/>
	</g>
	<text transform="matrix(1 0 0 1 -219.0895 430.4824)" class="st1 st2 st3">?</text>
	<g>
		<defs>
			<rect id="SVGID_3_" x="-242.2" y="376" width="90.9" height="89.3"/>
		</defs>
		<clipPath id="SVGID_4_">
			<use xlink:href="#SVGID_3_"  style="overflow:visible;"/>
		</clipPath>
		<path class="st4" d="M-164.6,432.4l-9.6-5.4l-21.2,0.2c-4.8,0.1-8.8-4.3-8.8-9.7l-0.1-9.1c-0.1-5.4,3.8-9.9,8.6-9.9l22.4-0.2
			c4.8-0.1,8.8,4.3,8.9,9.7l0.1,9.1c0,3-1.1,5.6-2.9,7.5C-165.3,429.7-164.6,432.4-164.6,432.4"/>
		<path class="st5" d="M-164.6,432.4l-9.6-5.4l-21.2,0.2c-4.8,0.1-8.8-4.3-8.8-9.7l-0.1-9.1c-0.1-5.4,3.8-9.9,8.6-9.9l22.4-0.2
			c4.8-0.1,8.8,4.3,8.9,9.7l0.1,9.1c0,3-1.1,5.6-2.9,7.5C-165.3,429.7-164.6,432.4-164.6,432.4z"/>
	</g>
	<text transform="matrix(1 0 0 1 -187.0006 420.3954)" class="st1 st2 st3">i</text>
	<g>
		<defs>
			<rect id="SVGID_5_" x="-242.2" y="376" width="90.9" height="89.3"/>
		</defs>
		<clipPath id="SVGID_6_">
			<use xlink:href="#SVGID_5_"  style="overflow:visible;"/>
		</clipPath>
		<circle class="st6" cx="-197.5" cy="420.6" r="43.2"/>
	</g>
</g>
</svg>
