<?xml version="1.0" encoding="utf-8"?>
<!-- Generator: Adobe Illustrator 19.0.0, SVG Export Plug-In . SVG Version: 6.00 Build 0)  -->
<svg version="1.1" id="Capa_1" xmlns="http://www.w3.org/2000/svg" xmlns:xlink="http://www.w3.org/1999/xlink" x="0px" y="0px"
	 viewBox="-247 370.4 100.5 100.5" style="enable-background:new -247 370.4 100.5 100.5;" xml:space="preserve">
<style type="text/css">
	.st0{clip-path:url(#SVGID_2_);fill:#E61753;}
	.st1{clip-path:url(#SVGID_2_);fill:none;stroke:#E61753;stroke-width:3;}
</style>
<g>
	<defs>
		<rect id="SVGID_1_" x="-242" y="375.9" width="89.3" height="89.3"/>
	</defs>
	<clipPath id="SVGID_2_">
		<use xlink:href="#SVGID_1_"  style="overflow:visible;"/>
	</clipPath>
	<path class="st0" d="M-181.7,426.1c0,0,0.2,0.1,0.3,0.2c0.2,0.2,0.2,0.5,0.2,0.8c0,0.4-0.1,0.4-0.2,0.5c-0.2,0.1-0.6,0.2-0.8,0.2
		c0,0-0.1,0-0.1,0c-1-0.1-2,0.6-2.2,1.6c0,0.2,0,0.4,0,0.6c0.1,0.7,0.7,1.4,1.4,1.6c0,0,0.1,0.1,0.2,0.1c0,0,0.1,0.1,0.1,0.4
		c0,0.1,0,0.1,0,0.1c0,0-0.1,0.1-0.3,0.2c-0.2,0.1-0.5,0.1-0.8,0.1h-18.4v-0.1v-19.1v-0.1c2.1-2.2,8.9-9.2,9.9-10.4
		c0.3-0.4,0.8-0.8,1.2-1.1c0.5-0.3,0.9-0.4,1.1-0.4c0,0,0,0,0,0c0,0,0,0,0,0c0.3,0.2,0.3,0.4,0.3,0.4c0,0.1,0,0.5-0.4,1.1
		c-0.9,1.4-5.5,8.8-5.5,8.9c-0.3,0.5-0.4,1-0.2,1.5c0,0.2,0.1,0.3,0.2,0.5c0.3,0.6,1,1,1.7,1h13.3c0,0,0.1,0,0.1,0
		c0.1,0,0.5,0.2,0.5,0.7c0,0.3-0.1,0.5-0.3,0.6c-0.2,0.2-0.4,0.3-0.5,0.3c-0.9,0.1-1.6,0.8-1.7,1.8c0,0.1,0,0.2,0,0.2
		c0,0.8,0.6,1.5,1.3,1.8c0,0,0.2,0.1,0.4,0.3c0.1,0.1,0.3,0.4,0.3,0.9c0,0.3-0.1,0.4-0.2,0.5c-0.2,0.1-0.5,0.2-0.6,0.2
		c-0.9,0.1-1.7,0.8-1.8,1.7c0,0.1,0,0.3,0,0.4C-183.1,425.2-182.5,425.9-181.7,426.1 M-177.3,418.8c0.1-0.1,0.1-0.2,0.2-0.2
		c0.6-0.8,1-1.8,1-2.9c0-1.4-0.6-2.6-1.6-3.5c-0.9-0.8-2-1.2-3-1.1h-9.7c0.1-0.1,0.1-0.2,0.2-0.3c1.4-2.2,3-4.8,3.5-5.6
		c0.7-1.1,1-2.2,1-3.2c0-1-0.3-2.3-1.9-3.5c-0.1-0.1-0.3-0.2-0.4-0.3c-0.6-0.3-1.3-0.5-2-0.5c-1,0-2.1,0.3-3.2,1
		c-0.8,0.5-1.6,1.2-2.1,1.8c-0.8,1-7.7,8.1-10.3,10.7c0,0,0,0,0,0c-0.4,0.4-0.6,0.9-0.6,1.4v22c0,0.6,0.3,1.2,0.8,1.6
		c0.3,0.2,0.7,0.4,1.2,0.4h20.3c0.6,0,1.8-0.1,2.9-0.7c0.6-0.4,1.2-0.8,1.5-1.4c0.4-0.7,0.7-1.4,0.7-2.3c0-0.5-0.1-1-0.2-1.5
		c0.3-0.2,0.5-0.4,0.7-0.6c0.7-0.8,1-1.8,1-2.9c0-0.9-0.2-1.6-0.5-2.3c0,0,0-0.1,0-0.1c0.1-0.1,0.2-0.2,0.3-0.3
		c0.1-0.1,0.2-0.2,0.3-0.4c0.5-0.7,0.7-1.6,0.7-2.5c0-0.9-0.2-1.6-0.5-2.4C-177.1,419-177.2,418.9-177.3,418.8"/>
	<path class="st0" d="M-212.4,433.7c-0.1,0-0.1,0.1-0.2,0.1c-0.6,0-1.6,0-2.6,0c-1,0-2,0-2.6,0c-0.1,0-0.1-0.1-0.2-0.1
		c-0.1-0.1-0.2-0.1-0.3-0.2c-0.1-0.1-0.1-0.1-0.1-0.1c0-0.5-0.1-2.6,0-10.6c0-3.9,0-7.7,0.1-9.1c0.1,0,0.2,0,0.3,0
		c0.3,0,0.7,0,1.3,0c0.5,0,1,0,1.6,0c0,0,0,0,0,0c0.6,0,1.1,0,1.6,0c0.7,0,1.2,0,1.4,0c0,0,0.1,0,0.1,0c0,1.4,0,5.2,0.1,9.1
		c0,8,0,10.1,0,10.6c0,0-0.1,0.1-0.1,0.1C-212.1,433.5-212.2,433.6-212.4,433.7 M-208,413.1c0-0.3-0.1-0.6-0.2-0.9
		c0-0.1-0.2-0.5-0.6-0.9c0,0-0.1-0.1-0.1-0.1c-0.9-1-1.8-1.3-2.4-1.4c-0.2,0-0.7,0-2.2,0c-0.5,0-1,0-1.6,0c-0.6,0-1.1,0-1.6,0
		c-1.5,0-2,0-2.2,0c-0.6,0.1-1.5,0.4-2.4,1.4c0,0,0,0,0,0c-0.4,0.5-0.6,0.9-0.7,1c-0.1,0.3-0.2,0.6-0.2,0.9c0,0,0,4.9-0.1,9.8
		c0,10.1,0,10.8,0.1,11.1c0.1,0.5,0.3,1.2,0.9,1.9c0.3,0.3,0.6,0.6,1,0.9c0.6,0.5,1.2,0.7,1.3,0.8c0.2,0.1,0.5,0.2,0.7,0.2
		c0,0,1.5,0,3.1,0c0,0,0,0,0,0c0,0,0,0,0,0c1.5,0,3.1,0,3.1,0c0.3,0,0.5-0.1,0.7-0.2c0.1,0,0.7-0.3,1.3-0.8c0.2-0.1,0.3-0.2,0.5-0.4
		c1-0.9,1.3-1.8,1.4-2.4c0-0.3,0.1-0.9,0.1-11.1C-208,418-208,413.2-208,413.1"/>
	<circle class="st1" cx="-197.3" cy="420.6" r="43.2"/>
</g>
</svg>
