<?xml version="1.0" encoding="utf-8"?>
<!-- Generator: Adobe Illustrator 19.0.0, SVG Export Plug-In . SVG Version: 6.00 Build 0)  -->
<svg version="1.1" id="Capa_1" xmlns="http://www.w3.org/2000/svg" xmlns:xlink="http://www.w3.org/1999/xlink" x="0px" y="0px"
	 viewBox="-31 154.6 532.3 532.3" enable-background="new -31 154.6 532.3 532.3" xml:space="preserve">
<g id="XMLID_837_">
	<defs>
		<rect id="XMLID_838_" x="100.5" y="265.7" width="269.3" height="310"/>
	</defs>
	<clipPath id="XMLID_2_">
		<use xlink:href="#XMLID_838_"  overflow="visible"/>
	</clipPath>
	<path id="XMLID_839_" clip-path="url(#XMLID_2_)" fill="#E51552" d="M319.7,378.9l-30,24.9c-1.5,1.2-3.2,1.8-5,1.8
		c-2.2,0-4.5-1-6-2.8c-2.7-3.3-2.3-8.2,1-11l22.8-18.9L279.7,354c-3.3-2.7-3.8-7.7-1-11c2.8-3.3,7.7-3.8,11-1l30,24.9
		c1.8,1.5,2.8,3.7,2.8,6C322.5,375.2,321.5,377.4,319.7,378.9 M274.5,325.6l-28.6,98.9c-1,3.4-4.1,5.6-7.5,5.6
		c-0.7,0-1.4-0.1-2.2-0.3c-4.1-1.2-6.5-5.5-5.3-9.7l28.6-98.9c1.2-4.1,5.5-6.5,9.7-5.3C273.4,317.2,275.7,321.5,274.5,325.6
		 M225.7,391.9c3.3,2.8,3.8,7.7,1,11c-1.5,1.9-3.8,2.8-6,2.8c-1.8,0-3.5-0.6-5-1.8l-30-24.9c-1.8-1.5-2.8-3.7-2.8-6
		c0-2.3,1-4.5,2.8-6l30-24.9c3.3-2.8,8.2-2.3,11,1c2.8,3.3,2.3,8.2-1,11l-22.8,18.9L225.7,391.9z M346.2,310.5
		c-23.2-28.8-56.7-44.7-94.4-44.7c-26.9,0-54,8.4-76.1,23.7c-23.7,16.4-40.2,39.2-47.9,65.9c-3,10.6-4.6,19.4-6,27.1
		c-2.9,16.1-4.9,27.7-17.6,46.4c-3.4,5-4.5,9.7-3.2,14.1c2,7,8.6,10,14,12.4c1.8,0.8,4.8,2.2,5.5,2.9c3.2,4,2.9,15.2,2.7,25.1
		c-0.4,14.1-0.7,28.7,6.3,39.2c9.8,14.7,24.9,14.9,37.1,15c14.3,0.2,20.8,0.2,22.3,16.1c0,0.4,0.1,2.1,0.1,3.6
		c0.4,10.5,0.5,11.9,1.1,13.4c1.1,3,3.9,5,7.1,5h133.8c2.6,0,5-1.3,6.4-3.5c1.4-2.2,1.5-4.9,0.4-7.3c-16.9-34.9-3.1-70.8,11.6-108.7
		c8.9-23.1,18.1-46.9,20.2-71C371.8,357.3,364.2,332.8,346.2,310.5"/>
</g>
</svg>
