<?xml version="1.0" encoding="utf-8"?>
<!-- Generator: Adobe Illustrator 19.0.0, SVG Export Plug-In . SVG Version: 6.00 Build 0)  -->
<svg version="1.1" id="Capa_1" xmlns="http://www.w3.org/2000/svg" xmlns:xlink="http://www.w3.org/1999/xlink" x="0px" y="0px"
	 viewBox="-31 154.6 532.3 532.3" enable-background="new -31 154.6 532.3 532.3" xml:space="preserve">
<g id="XMLID_683_">
	<defs>
		<rect id="XMLID_684_" x="103.1" y="229.8" width="264.1" height="381.9"/>
	</defs>
	<clipPath id="XMLID_2_">
		<use xlink:href="#XMLID_684_"  overflow="visible"/>
	</clipPath>
	<path id="XMLID_824_" clip-path="url(#XMLID_2_)" fill="#E51552" d="M162.8,229.8c20.3,0,36.8,16.5,36.8,36.8
		c0,20.3-16.5,36.8-36.8,36.8S126,286.9,126,266.6C126,246.3,142.5,229.8,162.8,229.8"/>
	<path id="XMLID_823_" clip-path="url(#XMLID_2_)" fill="#E51552" d="M367.2,457.4c-1.6-42.6-7-84.9-15.2-126.7
		c-6.4-32.9-47.6-28.8-60.2-5.1c-0.6,0.8-1.2,1.6-1.7,2.5c-14.7,25.9-32.6,49.1-54.9,68.6c-22.2-19.5-40.2-42.7-54.9-68.6
		c-0.6-1.1-1.3-2-2-2.8c-12.8-23.5-53.5-27.5-59.9,5.2c-8.1,41.7-13.6,83.9-15.3,126.4c-0.3,7.7,1.7,14,5.1,19
		c-0.3,1.5-0.6,3-0.6,4.8v112.3c0,25,38.7,25,38.7,0v-106c11.8-3.8,21.6-13.6,22.2-29.6c0.9-23.1,3-46,6.1-68.8
		c12.5,15.6,26.6,29.8,42.2,42.8c3.1,7.8,10.2,13.5,18.2,12c8.1,1.5,15.1-4.3,18.2-12c15.6-13,29.7-27.3,42.2-42.8
		c3.2,22.6,5.2,45.3,6.1,68.3c0.6,16,10.4,25.9,22.2,29.9v106.2c0,25,38.7,25,38.7,0V480.6c0-1.6-0.2-3.1-0.5-4.5
		C365.5,471.2,367.5,465,367.2,457.4"/>
	<path id="XMLID_685_" clip-path="url(#XMLID_2_)" fill="#E51552" d="M307.5,229.8c20.3,0,36.8,16.5,36.8,36.8
		c0,20.3-16.5,36.8-36.8,36.8s-36.8-16.5-36.8-36.8C270.7,246.3,287.2,229.8,307.5,229.8"/>
</g>
</svg>
